<?xml version="1.0" encoding="utf-8"?>
<!-- Generator: Adobe Illustrator 19.0.0, SVG Export Plug-In . SVG Version: 6.00 Build 0)  -->
<svg version="1.1" id="Layer_1" xmlns="http://www.w3.org/2000/svg" xmlns:xlink="http://www.w3.org/1999/xlink" x="0px" y="0px"
	 viewBox="0 0 179.8 105.3" enable-background="new 0 0 179.8 105.3" xml:space="preserve">
<g id="XMLID_1_">
	<g id="XMLID_67_">
		<polygon id="XMLID_81_" fill="#858585" points="20.8,72.6 40.8,81.8 61.7,91.4 81.7,100.5 90,82.4 70,73.2 49.1,63.6 29.1,54.4 
			8.2,44.8 -0.1,63 		"/>
		<g id="XMLID_68_">
			<g id="XMLID_78_">
				
					<rect id="XMLID_80_" x="64.5" y="76.7" transform="matrix(-0.9086 -0.4176 0.4176 -0.9086 108.4652 197.176)" fill-rule="evenodd" clip-rule="evenodd" fill="#858585" width="22.5" height="20.1"/>
				
					<rect id="XMLID_79_" x="70.5" y="85.9" transform="matrix(-0.9086 -0.4176 0.4176 -0.9086 108.4652 197.176)" fill="#F9F9EF" width="10.6" height="1.6"/>
			</g>
			<g id="XMLID_75_">
				
					<rect id="XMLID_77_" x="44.1" y="67.3" transform="matrix(-0.9086 -0.4176 0.4176 -0.9086 73.3443 170.6899)" fill-rule="evenodd" clip-rule="evenodd" fill="#858585" width="22.5" height="20.1"/>
				
					<rect id="XMLID_76_" x="50" y="76.5" transform="matrix(-0.9086 -0.4176 0.4176 -0.9086 73.3443 170.6899)" fill="#F9F9EF" width="10.6" height="1.6"/>
			</g>
			<g id="XMLID_72_">
				
					<rect id="XMLID_74_" x="23.6" y="57.9" transform="matrix(-0.9086 -0.4176 0.4176 -0.9086 38.2233 144.2038)" fill-rule="evenodd" clip-rule="evenodd" fill="#858585" width="22.5" height="20.1"/>
				
					<rect id="XMLID_73_" x="29.6" y="67.1" transform="matrix(-0.9086 -0.4176 0.4176 -0.9086 38.2233 144.2038)" fill="#F9F9EF" width="10.6" height="1.6"/>
			</g>
			<g id="XMLID_69_">
				
					<rect id="XMLID_71_" x="3.2" y="48.5" transform="matrix(-0.9086 -0.4176 0.4176 -0.9086 3.1022 117.7176)" fill-rule="evenodd" clip-rule="evenodd" fill="#858585" width="22.5" height="20.1"/>
				
					<rect id="XMLID_70_" x="9.1" y="57.7" transform="matrix(-0.9086 -0.4176 0.4176 -0.9086 3.1023 117.7177)" fill="#F9F9EF" width="10.6" height="1.6"/>
			</g>
		</g>
	</g>
	<g id="XMLID_42_">
		<path id="XMLID_18_" fill="#DEB996" d="M92.5,100c-5.8,5.3-13.6,6.8-17.4,3.5c-3.8-3.3-2.2-10.3,3.6-15.6
			c5.8-5.3,13.6-6.8,17.4-3.5C99.9,87.8,98.3,94.8,92.5,100z"/>
		<g id="XMLID_43_">
			<polygon id="XMLID_17_" fill="#A67D52" points="169,59.2 138.5,54.4 149.3,0 179.8,4.8 			"/>
			<polygon id="XMLID_16_" fill="#A67D52" points="105.6,96.7 80.4,85.2 144.1,46.3 169.3,57.7 			"/>
		</g>
	</g>
</g>
</svg>
