<?xml version="1.0" encoding="utf-8"?>
<!-- Generator: Adobe Illustrator 19.0.0, SVG Export Plug-In . SVG Version: 6.00 Build 0)  -->
<svg version="1.1" id="Layer_1" xmlns="http://www.w3.org/2000/svg" xmlns:xlink="http://www.w3.org/1999/xlink" x="0px" y="0px"
	 viewBox="0 0 233 427.8" style="enable-background:new 0 0 233 427.8;" xml:space="preserve">
<g id="XMLID_39_">
	<polygon id="XMLID_15_" style="fill:#8CAFC0;" points="65.1,324.5 24.5,308.1 65.1,228.3 105.8,244.8 	"/>
	<polygon id="XMLID_14_" style="fill:#8CAFC0;" points="66.9,396.8 22.2,395.2 26.2,307.7 70.8,309.3 	"/>
</g>
<g id="XMLID_36_">
	<polygon id="XMLID_13_" style="fill:#8CAFC0;" points="168.1,316.5 124.8,326.1 101.1,241.1 144.4,231.5 	"/>
	<polygon id="XMLID_12_" style="fill:#8CAFC0;" points="219.9,372.2 183.8,395.6 125.9,324.8 162,301.4 	"/>
</g>
<path id="XMLID_11_" style="fill:#754D25;" d="M63,395.4H7.8c-4.3,0-7.8,3.1-7.8,7l0,0c0,3.8,3.5,7,7.8,7H63c4.3,0,7.8-3.1,7.8-7
	l0,0C70.8,398.6,67.3,395.4,63,395.4z"/>
<path id="XMLID_10_" style="fill:#754D25;" d="M177.2,407.7l44.9-28.5c3.5-2.2,4.3-6.6,1.8-9.7l0,0c-2.5-3.1-7.4-3.9-10.9-1.6
	l-44.9,28.5c-3.5,2.2-4.3,6.6-1.8,9.7l0,0C168.8,409.2,173.7,409.9,177.2,407.7z"/>
<g id="XMLID_31_">
	<path id="XMLID_9_" style="fill:#8CAFC0;" d="M65.1,227.6C70.8,250,82.4,270,103.3,270h4.1c20.9,0,33.1-18.3,38.7-40.7
		C119.5,229.4,91.7,227.7,65.1,227.6z"/>
	<path id="XMLID_8_" style="fill:#8D633A;" d="M148.4,223.3v-83.1c0-22.6-17.3-41-45-41h-4.5c-27.7,0-39.5,20-39.5,42.7l5.5,82.4
		c0,4-5.1,13.7-3.8,13.7h90.7C153,237.9,148.4,227.3,148.4,223.3z"/>
</g>
<g id="XMLID_26_">
	<path id="XMLID_7_" style="fill:#DEB996;" d="M151.9,267.4c0.8,8.7-3.7,16-10,16.5c-6.3,0.4-12-6.2-12.7-14.9
		c-0.8-8.7,3.7-16,10-16.5C145.5,252.1,151.2,258.8,151.9,267.4z"/>
	<g id="XMLID_27_">
		<path id="XMLID_6_" style="fill:#A67D52;" d="M170.7,175.3l-28.5,20.4l-45.7-50.8c4.1-12.5,14.4-18.4,28.5-20.4L170.7,175.3z"/>
		<polygon id="XMLID_5_" style="fill:#A67D52;" points="158.8,254.5 127.8,265.5 138.4,184.9 169.4,173.9 		"/>
	</g>
</g>
<path id="XMLID_4_" style="fill:#E3C0AA;" d="M125.6,105.6c-13.2,5.5-26.4,5.5-39.7,0v-34h39.7V105.6z"/>
<g id="XMLID_21_">
	<path id="XMLID_3_" style="fill:#E3C0AA;" d="M137.7,45.5c0,19-14.8,41-33,41c-6.2,0-24.4,4.1-29.3,0c-9.6-8-3.7-28.5-3.7-41
		c0-19,14.8-27.8,33-27.8S137.7,26.5,137.7,45.5z"/>
	<polygon id="XMLID_2_" style="fill:#E3C0AA;" points="74,69.8 57.8,63.4 73.6,41.7 85.5,46.4 	"/>
	<path id="XMLID_1_" style="fill:#544841;" d="M70.7,22.7c17.3-16.3,45.6-23.2,67,0c11.3,17,11,32.4,0,46.4
		c-8.4,5.6-12.6-5-16.7-16.1C85.5,36.8,66.3,37.4,70.7,22.7z"/>
</g>
</svg>
