<?xml version="1.0" encoding="utf-8"?>
<!-- Generator: Adobe Illustrator 19.0.0, SVG Export Plug-In . SVG Version: 6.00 Build 0)  -->
<svg version="1.1" id="Layer_1" xmlns="http://www.w3.org/2000/svg" xmlns:xlink="http://www.w3.org/1999/xlink" x="0px" y="0px"
	 viewBox="0 0 43.6 46.2" enable-background="new 0 0 43.6 46.2" xml:space="preserve">
<g>
	<g>
		<g>
			<line fill="none" stroke="#E4E4E4" stroke-width="0.1323" stroke-miterlimit="10" x1="32.1" y1="38.8" x2="25.8" y2="38.8"/>
			<line fill="none" stroke="#E4E4E4" stroke-width="0.1323" stroke-miterlimit="10" x1="32.1" y1="39.3" x2="32.1" y2="32.6"/>
			<line fill="none" stroke="#E4E4E4" stroke-width="0.1323" stroke-miterlimit="10" x1="32" y1="38.8" x2="33" y2="32.8"/>
			<line fill="none" stroke="#E4E4E4" stroke-width="0.1323" stroke-miterlimit="10" x1="32" y1="38.8" x2="34" y2="33.1"/>
			<line fill="none" stroke="#E4E4E4" stroke-width="0.1323" stroke-miterlimit="10" x1="32" y1="38.8" x2="35" y2="33.5"/>
			<line fill="none" stroke="#E4E4E4" stroke-width="0.1323" stroke-miterlimit="10" x1="32" y1="38.8" x2="35.9" y2="34.1"/>
			<line fill="none" stroke="#E4E4E4" stroke-width="0.1323" stroke-miterlimit="10" x1="32" y1="38.8" x2="36.6" y2="34.9"/>
			<line fill="none" stroke="#E4E4E4" stroke-width="0.1323" stroke-miterlimit="10" x1="32" y1="38.8" x2="37.2" y2="35.7"/>
			<line fill="none" stroke="#E4E4E4" stroke-width="0.1323" stroke-miterlimit="10" x1="32" y1="38.8" x2="37.7" y2="36.7"/>
			<line fill="none" stroke="#E4E4E4" stroke-width="0.1323" stroke-miterlimit="10" x1="32" y1="38.8" x2="38" y2="37.7"/>
			<line fill="none" stroke="#E4E4E4" stroke-width="0.1323" stroke-miterlimit="10" x1="32.1" y1="38.9" x2="38.2" y2="38.9"/>
			<line fill="none" stroke="#E4E4E4" stroke-width="0.1323" stroke-miterlimit="10" x1="32.2" y1="38.9" x2="38" y2="39.9"/>
			<line fill="none" stroke="#E4E4E4" stroke-width="0.1323" stroke-miterlimit="10" x1="32" y1="38.9" x2="37.6" y2="40.9"/>
			<line fill="none" stroke="#E4E4E4" stroke-width="0.1323" stroke-miterlimit="10" x1="32" y1="38.9" x2="37.1" y2="41.9"/>
			<line fill="none" stroke="#E4E4E4" stroke-width="0.1323" stroke-miterlimit="10" x1="32" y1="38.9" x2="36.5" y2="42.7"/>
			<line fill="none" stroke="#E4E4E4" stroke-width="0.1323" stroke-miterlimit="10" x1="31.9" y1="38.9" x2="35.7" y2="43.5"/>
			<line fill="none" stroke="#E4E4E4" stroke-width="0.1323" stroke-miterlimit="10" x1="31.9" y1="38.9" x2="34.9" y2="44"/>
			<line fill="none" stroke="#E4E4E4" stroke-width="0.1323" stroke-miterlimit="10" x1="31.9" y1="38.9" x2="33.9" y2="44.5"/>
			<line fill="none" stroke="#E4E4E4" stroke-width="0.1323" stroke-miterlimit="10" x1="31.9" y1="38.9" x2="32.9" y2="44.7"/>
			<line fill="none" stroke="#E4E4E4" stroke-width="0.1323" stroke-miterlimit="10" x1="32.1" y1="39.1" x2="32.1" y2="44.7"/>
			<line fill="none" stroke="#E4E4E4" stroke-width="0.1323" stroke-miterlimit="10" x1="31.9" y1="39" x2="30.9" y2="44.8"/>
			<line fill="none" stroke="#E4E4E4" stroke-width="0.1323" stroke-miterlimit="10" x1="31.9" y1="39" x2="29.9" y2="44.5"/>
			<line fill="none" stroke="#E4E4E4" stroke-width="0.1323" stroke-miterlimit="10" x1="31.9" y1="39" x2="28.9" y2="44.1"/>
			<line fill="none" stroke="#E4E4E4" stroke-width="0.1323" stroke-miterlimit="10" x1="31.8" y1="39" x2="28" y2="43.5"/>
			<line fill="none" stroke="#E4E4E4" stroke-width="0.1323" stroke-miterlimit="10" x1="31.8" y1="38.9" x2="27.3" y2="42.7"/>
			<line fill="none" stroke="#E4E4E4" stroke-width="0.1323" stroke-miterlimit="10" x1="31.8" y1="38.9" x2="26.7" y2="41.8"/>
			<line fill="none" stroke="#E4E4E4" stroke-width="0.1323" stroke-miterlimit="10" x1="31.8" y1="38.9" x2="26.2" y2="40.9"/>
			<line fill="none" stroke="#E4E4E4" stroke-width="0.1323" stroke-miterlimit="10" x1="31.8" y1="38.8" x2="25.9" y2="39.9"/>
			<line fill="none" stroke="#E4E4E4" stroke-width="0.1323" stroke-miterlimit="10" x1="31.6" y1="38.8" x2="25.8" y2="37.8"/>
			<line fill="none" stroke="#E4E4E4" stroke-width="0.1323" stroke-miterlimit="10" x1="31.6" y1="38.8" x2="26.1" y2="36.8"/>
			<line fill="none" stroke="#E4E4E4" stroke-width="0.1323" stroke-miterlimit="10" x1="31.6" y1="38.7" x2="26.5" y2="35.8"/>
			<line fill="none" stroke="#E4E4E4" stroke-width="0.1323" stroke-miterlimit="10" x1="31.7" y1="38.7" x2="27.1" y2="34.9"/>
			<line fill="none" stroke="#E4E4E4" stroke-width="0.1323" stroke-miterlimit="10" x1="31.7" y1="38.6" x2="27.9" y2="34.1"/>
			<line fill="none" stroke="#E4E4E4" stroke-width="0.1323" stroke-miterlimit="10" x1="31.7" y1="38.6" x2="28.8" y2="33.5"/>
			<line fill="none" stroke="#E4E4E4" stroke-width="0.1323" stroke-miterlimit="10" x1="31.8" y1="38.5" x2="29.7" y2="33"/>
			<line fill="none" stroke="#E4E4E4" stroke-width="0.1323" stroke-miterlimit="10" x1="31.8" y1="38.5" x2="30.8" y2="32.7"/>
		</g>
		<g>
			<path fill="#4B4B4B" d="M24.6,38.8c0-4.1,3.3-7.5,7.5-7.5c4.1,0,7.5,3.3,7.5,7.5c0,4.1-3.3,7.5-7.5,7.5
				C28,46.2,24.6,42.9,24.6,38.8z M25.9,38.8c0,3.4,2.8,6.1,6.1,6.1c3.4,0,6.1-2.8,6.1-6.1c0-3.4-2.8-6.1-6.1-6.1
				C28.7,32.6,25.9,35.4,25.9,38.8z"/>
			<path fill="#4B4B4B" d="M24.6,38.8c0-4.1,3.4-7.5,7.5-7.5c4.1,0,7.5,3.4,7.5,7.5c0,4.1-3.4,7.5-7.5,7.5
				C28,46.2,24.6,42.9,24.6,38.8z M24.7,38.8c0,4.1,3.3,7.4,7.4,7.4c4.1,0,7.4-3.3,7.4-7.4c0-4.1-3.3-7.4-7.4-7.4
				C28,31.3,24.7,34.7,24.7,38.8z M25.9,38.8c0-3.4,2.8-6.2,6.2-6.2c3.4,0,6.2,2.8,6.2,6.2c0,3.4-2.8,6.2-6.2,6.2
				C28.7,44.9,25.9,42.2,25.9,38.8z M26,38.8c0,3.4,2.7,6.1,6.1,6.1c3.4,0,6.1-2.7,6.1-6.1c0-3.4-2.7-6.1-6.1-6.1
				C28.7,32.6,26,35.4,26,38.8z"/>
		</g>
		<path fill="none" stroke="#CACACA" stroke-width="0.1323" stroke-miterlimit="10" d="M32.1,32.6c3.4,0,6.1,2.7,6.1,6.1
			c0,3.4-2.7,6.1-6.1,6.1c-3.4,0-6.1-2.7-6.1-6.1C26,35.4,28.7,32.6,32.1,32.6z"/>
	</g>
	<g>
		<g>
			<line fill="none" stroke="#E4E4E4" stroke-width="0.1323" stroke-miterlimit="10" x1="8.7" y1="38.8" x2="2.3" y2="38.8"/>
			<line fill="none" stroke="#E4E4E4" stroke-width="0.1323" stroke-miterlimit="10" x1="8.6" y1="39.3" x2="8.6" y2="32.6"/>
			<line fill="none" stroke="#E4E4E4" stroke-width="0.1323" stroke-miterlimit="10" x1="8.5" y1="38.8" x2="9.5" y2="32.8"/>
			<line fill="none" stroke="#E4E4E4" stroke-width="0.1323" stroke-miterlimit="10" x1="8.5" y1="38.8" x2="10.6" y2="33.1"/>
			<line fill="none" stroke="#E4E4E4" stroke-width="0.1323" stroke-miterlimit="10" x1="8.5" y1="38.8" x2="11.5" y2="33.5"/>
			<line fill="none" stroke="#E4E4E4" stroke-width="0.1323" stroke-miterlimit="10" x1="8.5" y1="38.8" x2="12.4" y2="34.1"/>
			<line fill="none" stroke="#E4E4E4" stroke-width="0.1323" stroke-miterlimit="10" x1="8.5" y1="38.8" x2="13.1" y2="34.9"/>
			<line fill="none" stroke="#E4E4E4" stroke-width="0.1323" stroke-miterlimit="10" x1="8.5" y1="38.8" x2="13.8" y2="35.7"/>
			<line fill="none" stroke="#E4E4E4" stroke-width="0.1323" stroke-miterlimit="10" x1="8.5" y1="38.8" x2="14.2" y2="36.7"/>
			<line fill="none" stroke="#E4E4E4" stroke-width="0.1323" stroke-miterlimit="10" x1="8.5" y1="38.8" x2="14.5" y2="37.7"/>
			<line fill="none" stroke="#E4E4E4" stroke-width="0.1323" stroke-miterlimit="10" x1="8.7" y1="38.9" x2="14.7" y2="38.9"/>
			<line fill="none" stroke="#E4E4E4" stroke-width="0.1323" stroke-miterlimit="10" x1="8.7" y1="38.9" x2="14.5" y2="39.9"/>
			<line fill="none" stroke="#E4E4E4" stroke-width="0.1323" stroke-miterlimit="10" x1="8.5" y1="38.9" x2="14.1" y2="40.9"/>
			<line fill="none" stroke="#E4E4E4" stroke-width="0.1323" stroke-miterlimit="10" x1="8.5" y1="38.9" x2="13.6" y2="41.9"/>
			<line fill="none" stroke="#E4E4E4" stroke-width="0.1323" stroke-miterlimit="10" x1="8.5" y1="38.9" x2="13" y2="42.7"/>
			<line fill="none" stroke="#E4E4E4" stroke-width="0.1323" stroke-miterlimit="10" x1="8.5" y1="38.9" x2="12.3" y2="43.5"/>
			<line fill="none" stroke="#E4E4E4" stroke-width="0.1323" stroke-miterlimit="10" x1="8.4" y1="38.9" x2="11.4" y2="44"/>
			<line fill="none" stroke="#E4E4E4" stroke-width="0.1323" stroke-miterlimit="10" x1="8.4" y1="38.9" x2="10.4" y2="44.5"/>
			<line fill="none" stroke="#E4E4E4" stroke-width="0.1323" stroke-miterlimit="10" x1="8.4" y1="38.9" x2="9.4" y2="44.7"/>
			<line fill="none" stroke="#E4E4E4" stroke-width="0.1323" stroke-miterlimit="10" x1="8.6" y1="39.1" x2="8.6" y2="44.7"/>
			<line fill="none" stroke="#E4E4E4" stroke-width="0.1323" stroke-miterlimit="10" x1="8.4" y1="39" x2="7.4" y2="44.8"/>
			<line fill="none" stroke="#E4E4E4" stroke-width="0.1323" stroke-miterlimit="10" x1="8.4" y1="39" x2="6.4" y2="44.5"/>
			<line fill="none" stroke="#E4E4E4" stroke-width="0.1323" stroke-miterlimit="10" x1="8.4" y1="39" x2="5.4" y2="44.1"/>
			<line fill="none" stroke="#E4E4E4" stroke-width="0.1323" stroke-miterlimit="10" x1="8.3" y1="39" x2="4.5" y2="43.5"/>
			<line fill="none" stroke="#E4E4E4" stroke-width="0.1323" stroke-miterlimit="10" x1="8.3" y1="38.9" x2="3.8" y2="42.7"/>
			<line fill="none" stroke="#E4E4E4" stroke-width="0.1323" stroke-miterlimit="10" x1="8.3" y1="38.9" x2="3.2" y2="41.8"/>
			<line fill="none" stroke="#E4E4E4" stroke-width="0.1323" stroke-miterlimit="10" x1="8.3" y1="38.9" x2="2.7" y2="40.9"/>
			<line fill="none" stroke="#E4E4E4" stroke-width="0.1323" stroke-miterlimit="10" x1="8.3" y1="38.8" x2="2.5" y2="39.9"/>
			<line fill="none" stroke="#E4E4E4" stroke-width="0.1323" stroke-miterlimit="10" x1="8.2" y1="38.8" x2="2.3" y2="37.8"/>
			<line fill="none" stroke="#E4E4E4" stroke-width="0.1323" stroke-miterlimit="10" x1="8.1" y1="38.8" x2="2.6" y2="36.8"/>
			<line fill="none" stroke="#E4E4E4" stroke-width="0.1323" stroke-miterlimit="10" x1="8.2" y1="38.7" x2="3" y2="35.8"/>
			<line fill="none" stroke="#E4E4E4" stroke-width="0.1323" stroke-miterlimit="10" x1="8.2" y1="38.7" x2="3.6" y2="34.9"/>
			<line fill="none" stroke="#E4E4E4" stroke-width="0.1323" stroke-miterlimit="10" x1="8.2" y1="38.6" x2="4.4" y2="34.1"/>
			<line fill="none" stroke="#E4E4E4" stroke-width="0.1323" stroke-miterlimit="10" x1="8.2" y1="38.6" x2="5.3" y2="33.5"/>
			<line fill="none" stroke="#E4E4E4" stroke-width="0.1323" stroke-miterlimit="10" x1="8.3" y1="38.5" x2="6.3" y2="33"/>
			<line fill="none" stroke="#E4E4E4" stroke-width="0.1323" stroke-miterlimit="10" x1="8.3" y1="38.5" x2="7.3" y2="32.7"/>
		</g>
		<g>
			<path fill="#676767" d="M1.1,38.8c0-4.1,3.3-7.5,7.5-7.5c4.1,0,7.5,3.3,7.5,7.5c0,4.1-3.3,7.5-7.5,7.5
				C4.5,46.2,1.1,42.9,1.1,38.8z M2.5,38.8c0,3.4,2.8,6.1,6.1,6.1s6.1-2.8,6.1-6.1c0-3.4-2.8-6.1-6.1-6.1S2.5,35.4,2.5,38.8z"/>
			<path fill="#4B4B4B" d="M1.1,38.8c0-4.1,3.4-7.5,7.5-7.5c4.1,0,7.5,3.4,7.5,7.5c0,4.1-3.4,7.5-7.5,7.5
				C4.5,46.2,1.1,42.9,1.1,38.8z M1.2,38.8c0,4.1,3.3,7.4,7.4,7.4c4.1,0,7.4-3.3,7.4-7.4c0-4.1-3.3-7.4-7.4-7.4
				C4.5,31.3,1.2,34.7,1.2,38.8z M2.4,38.8c0-3.4,2.8-6.2,6.2-6.2s6.2,2.8,6.2,6.2c0,3.4-2.8,6.2-6.2,6.2S2.4,42.2,2.4,38.8z
				 M2.5,38.8c0,3.4,2.7,6.1,6.1,6.1c3.4,0,6.1-2.7,6.1-6.1c0-3.4-2.7-6.1-6.1-6.1C5.2,32.6,2.5,35.4,2.5,38.8z"/>
		</g>
		<path fill="none" stroke="#CACACA" stroke-width="0.1323" stroke-miterlimit="10" d="M8.6,32.6c3.4,0,6.1,2.7,6.1,6.1
			c0,3.4-2.7,6.1-6.1,6.1c-3.4,0-6.1-2.7-6.1-6.1C2.5,35.4,5.2,32.6,8.6,32.6z"/>
	</g>
	<g>
		<g>
			<path fill="#345178" d="M14.5,24.7l2.2-1.1c0.2-0.1,0.3-0.5,0.2-0.7c-0.1-0.2-0.4-0.4-0.7-0.3l-2.2,1.1c-1.1,0.6-1.5,2.5-0.9,3.1
				l0.7-1C13.8,25.3,14.1,24.9,14.5,24.7z"/>
		</g>
		<path id="XMLID_1_" fill="#5A5A5A" d="M17,23.7l-2.5,1.2c-0.1,0.1-0.3,0-0.4-0.1L13.7,24c-0.1-0.1,0-0.3,0.1-0.4l2.5-1.2
			c0.3-0.1,0.7,0,0.8,0.3l0,0.1C17.4,23.2,17.3,23.5,17,23.7z"/>
	</g>
	
		<path fill="none" stroke="#345178" stroke-width="0.8131" stroke-linecap="round" stroke-linejoin="round" stroke-miterlimit="10" d="
		M8.3,39.3l5.2-12.8c0.2-0.6,0.8-1,1.4-1l2.6-0.1"/>
	<g>
		<g>
			<path fill="#E1BCB2" d="M15.9,22.3c-0.7-0.1-1.2,0.2-1.3,0.5c0,0-0.1,0.3-0.1,0.5c0.2-0.1,0.6-0.1,0.6-0.1
				c0.4-0.2,1.7,0.8,1.9-0.1C17.1,22.7,16.6,22.4,15.9,22.3z"/>
		</g>
		<g>
			<path fill="#E1BCB2" d="M23.6,13.7l-3.8,5.9c-0.1,0.2,1,1.2,1.2,1.1l4.3-5.6c0.1-0.2,0.1-0.4,0-0.5l-1.1-1
				C24,13.5,23.7,13.5,23.6,13.7z"/>
			<path fill="#599DAB" d="M24.1,16.8l-1.9-1.4l1-1.6c0.4-0.6,1.2-0.8,1.7-0.4c0,0,0,0,0,0c0.6,0.4,0.7,1.3,0.3,1.8L24.1,16.8z"/>
			<polygon fill="#6AACB5" points="22.5,14.9 24.4,16.4 24.1,16.8 22.2,15.4 			"/>
		</g>
		<polygon fill="#E1BCB2" points="21,20.7 17,23.3 16.3,22.4 20,19.4 		"/>
	</g>
	<g>
		<g>
			<path fill="#E1BCB2" d="M26.3,37.1l-0.1-0.3l0,0l-1-2.4l-1.7,0.7l0.8,2c0.1,0.3,0,0.6-0.3,0.7l-1.3,0.6l0.3,0.6l3.5-1.2
				L26.3,37.1z"/>
			<path fill="#263B54" d="M23.1,38.1l0.2,0.7l3.1-1.4c0.2,0.2,0.2,0.5,0.2,0.9l-4,1.2c-0.5,0.1-0.9,0-1.2-0.4l0,0
				c-0.1-0.1,0-0.3,0.1-0.4L23.1,38.1z"/>
			<polygon fill="#E1BCB2" points="24.2,36.7 20.7,28.7 23.1,28 26,36.5 			"/>
		</g>
		<path fill="#6AACB5" stroke="#6AACB5" stroke-width="0.1076" stroke-miterlimit="10" d="M29,23.2l-4.3,6.1c-1,0.6-2.2,0.7-3.5,0.6
			c-0.2,0-0.4-0.3-0.3-0.5l5.3-8.9L29,23.2z"/>
	</g>
	<g>
		<path fill="#345178" d="M23.4,40.2L23.4,40.2c0.1,0.3,0.4,0.4,0.7,0.3l1.9-0.7c0.3-0.1,0.4-0.4,0.3-0.7l0,0
			c-0.1-0.3-0.4-0.4-0.7-0.3l-1.9,0.7C23.4,39.6,23.3,39.9,23.4,40.2z"/>
	</g>
	<g>
		<path fill="#676767" d="M32.1,46.2c-4.1,0-7.4-3.3-7.4-7.4c0-4.1,3.3-7.4,7.4-7.4c4.1,0,7.4,3.3,7.4,7.4
			C39.5,42.9,36.2,46.2,32.1,46.2z M32.1,32.6c-3.4,0-6.1,2.8-6.1,6.1c0,3.4,2.8,6.1,6.1,6.1c3.4,0,6.1-2.8,6.1-6.1
			C38.2,35.4,35.5,32.6,32.1,32.6z"/>
		<path fill="#676767" d="M32.1,46.2c-4.1,0-7.5-3.4-7.5-7.5c0-4.1,3.4-7.5,7.5-7.5c4.1,0,7.5,3.4,7.5,7.5
			C39.6,42.9,36.2,46.2,32.1,46.2z M32.1,31.3c-4.1,0-7.4,3.3-7.4,7.4c0,4.1,3.3,7.4,7.4,7.4c4.1,0,7.4-3.3,7.4-7.4
			C39.5,34.7,36.2,31.3,32.1,31.3z M32.1,44.9c-3.4,0-6.2-2.8-6.2-6.2s2.8-6.2,6.2-6.2c3.4,0,6.2,2.8,6.2,6.2S35.5,44.9,32.1,44.9z
			 M32.1,32.6c-3.4,0-6.1,2.7-6.1,6.1c0,3.4,2.7,6.1,6.1,6.1c3.4,0,6.1-2.7,6.1-6.1C38.2,35.4,35.5,32.6,32.1,32.6z"/>
	</g>
	<path fill="none" stroke="#CACACA" stroke-width="0.4065" stroke-miterlimit="10" d="M32.1,44.9c-3.4,0-6.2-2.8-6.2-6.2
		s2.8-6.2,6.2-6.2c3.4,0,6.2,2.8,6.2,6.2S35.5,44.9,32.1,44.9z"/>
	<path fill="none" stroke="#CACACA" stroke-width="0.2033" stroke-miterlimit="10" d="M32.1,32.6c-3.4,0-6.1,2.7-6.1,6.1
		c0,3.4,2.7,6.1,6.1,6.1c3.4,0,6.1-2.7,6.1-6.1C38.2,35.4,35.5,32.6,32.1,32.6z"/>
	<g>
		<path fill="none" stroke="#345178" stroke-width="0.8131" stroke-miterlimit="10" d="M32.1,40H21.4c-0.2,0-0.3-0.1-0.4-0.2
			l-8.6-10.2c-0.2-0.2,0.2-1,0.4-1l14.5,0c0.2,0,0.4,0.1,0.5,0.3l4.8,10.2c0.1,0.2,0.1,0.4,0,0.6C32.5,39.9,32.3,40,32.1,40z"/>
	</g>
	<g>
		<line fill="none" stroke="#345178" stroke-width="0.8131" stroke-miterlimit="10" x1="28.8" y1="26.8" x2="20.9" y2="39.8"/>
	</g>
	<g>
		<g>
			<g>
				<defs>
					<line id="SVGID_1_" x1="25.8" y1="26.2" x2="30.3" y2="26.2"/>
				</defs>
				<use xlink:href="#SVGID_1_"  overflow="visible" fill="#676767"/>
				<clipPath id="SVGID_2_">
					<use xlink:href="#SVGID_1_"  overflow="visible"/>
				</clipPath>
				<g clip-path="url(#SVGID_2_)">
					<g>
						<defs>
							<rect id="SVGID_3_" x="21.3" y="17.2" width="12.6" height="10.4"/>
						</defs>
						<use xlink:href="#SVGID_3_"  overflow="visible" fill="#676767"/>
						<clipPath id="SVGID_4_">
							<use xlink:href="#SVGID_3_"  overflow="visible"/>
						</clipPath>
						<g clip-path="url(#SVGID_4_)">
							<path fill="#676767" d="M33.9,25.3c0,0-0.2-0.1-0.6,0c-0.2,0.3-0.4,0.5-0.7-0.3c-0.3-0.5-0.5-0.1-0.8,0.3
								c-0.1-0.4-0.2,0.2-0.3,0c-0.1,0.6-0.2,0.3-0.3-0.1c-0.1-0.5-0.2-0.5-0.3-0.2c-0.1,0.2-0.2-1.1-0.4,0.3
								c-0.1-1.1-0.2-0.4-0.4,0.1c-0.1-0.6-0.3,0.5-0.4,0c-0.1,0.2-0.1,0.4-0.2,0.4c-0.1,0-0.1-0.2-0.2-0.4
								c-0.1-0.1-0.3-0.3-0.4-0.1c-0.1,0.2-0.1,0.2-0.2,0.4c-0.1,0-0.1,0-0.2-0.3c-0.1,0-0.3,0-0.4-0.4c-0.1,0.3-0.3-0.4-0.4-0.2
								c-0.1-0.1-0.3,0.3-0.4,0.5c-0.1-0.5-0.3,1-0.4-0.1c-0.1,0.7-0.3,0.3-0.4,0.2c-0.1,0.3-0.3-0.3-0.4,0
								c-0.1-0.7-0.3-0.4-0.4-0.1c-0.2,0-0.3-0.8-0.4,0c-0.1,0.1-0.3,0.2-0.4,0c-0.1-0.4-0.3-0.1-0.4,0c-0.1,0.2-0.3,0-0.4,0
								c-0.3,0.3-0.5-0.7-0.8,0c-0.2-0.2-0.5,0-0.7,0c-0.2,0-0.4,0.3-0.5,0.2c-0.2,0-0.3-0.1-0.4-0.2c-0.2,0.4-0.4-0.2-0.4,0
								c0,0.3,0-0.5,0-0.4c0-0.3,0.1-0.3,0.4,0c0.1-0.3,0.3-0.1,0.4,0c0.2-0.1,0.3,0.3,0.5,0c0.2,1.2,0.4,0.5,0.7,0.1
								c0.2-0.1,0.5,0.1,0.8-0.1c0.1,0.3,0.3-0.9,0.4-0.1c0.1-0.7,0.3-0.3,0.4,0c0.1,0,0.3,0.3,0.4,0.1c0.1-0.1,0.3,1.5,0.4,0
								c0.1-0.4,0.3-1.1,0.4-0.4c0.1-0.3,0.3,0.3,0.4,0.2c0.1,0.8,0.3,0.2,0.4-0.1c0.1-0.1,0.3-0.1,0.4,0.2c0.1,0.5,0.3,0.3,0.4,0.1
								c0.1-0.1,0.3-0.5,0.4,0c0.1-0.6,0.3,0.3,0.4,0c0.1,0.4,0.3,0.2,0.4-0.1c0.1,0.2,0.3,0.3,0.4,0c0.1,0.1,0.3-0.2,0.4-0.1
								c0.1-0.8,0.3,0.2,0.4,0c0.1,0.5,0.2-0.5,0.4,0.1c0.1,0.4,0.2,0.2,0.4,0.1c0.1-0.6,0.2,1.3,0.3-0.1c0.1-0.7,0.2,0.1,0.3,0.1
								c0.1-0.3,0.2-0.4,0.3-0.2c0.3-0.5,0.6-0.3,0.8,0.1c0.3-0.1,0.5-0.3,0.7-0.1c0.4-0.3,0.6,0.1,0.6,0
								C33.9,24.6,33.9,25,33.9,25.3z"/>
							<path fill="#676767" d="M33.9,26.2c0,0.2-0.1-0.1-0.2,0c-0.1-0.4-0.2,0.1-0.3,0c-0.1-0.2-0.2,0.7-0.4,0
								c-0.1,0.4-0.1,1-0.2,0.3c-0.1,0.9-0.2-0.3-0.3-0.3c-0.2,0.3-0.4,1.2-0.6,0c-0.1,0.3-0.2-1.3-0.3-0.2
								c-0.1,0.4-0.2,0.5-0.3,0.2c-0.2,0.4-0.4,0-0.7,0.1c-0.1,0-0.2-0.2-0.4-0.1c-0.1,0.4-0.1,0.5-0.2,0.2
								c-0.1-0.2-0.1-0.6-0.2-0.6c-0.1-0.3-0.1-0.4-0.2-0.3c-0.1,0-0.1,0.2-0.2,0.4c-0.1,0.5-0.3,0-0.4,0.4
								c-0.1-0.6-0.3-0.1-0.4-0.2c-0.1,0.2-0.3,0.7-0.4,0.2c-0.1,0.2-0.3,0.3-0.4,0.3c-0.1,0.3-0.1,0.2-0.2,0.2
								c-0.1,0.2-0.1-0.1-0.2-0.4c-0.2,0-0.3,0.4-0.5,0c-0.1,0.3-0.2,0.2-0.2,0.1c-0.1-0.2-0.2-0.5-0.2-0.2
								c-0.1,0.5-0.2,0.6-0.2,0.6c-0.1,0-0.2-0.2-0.2-0.6c-0.2-1.2-0.3-1-0.5,0c-0.2-0.8-0.3,0.3-0.4,0c-0.1-0.7-0.3,0.8-0.4,0.1
								c-0.1,0.6-0.3,0.1-0.4,0.1c-0.1,0.4-0.3,1.5-0.4-0.2c-0.3,0-0.5,0.2-0.8,0.1c-0.2-0.5-0.5,0.2-0.7-0.1
								c-0.2-0.5-0.4-0.1-0.5-0.1c-0.2,0-0.3,0-0.4,0.1c-0.2,0.1-0.4-0.4-0.4,0c0-0.3,0-0.2,0-0.4c0,0,0.1,0.5,0.4,0
								c0.1,0.4,0.3,0.3,0.4,0.2c0.2-0.4,0.3,0.4,0.5-0.2c0.2-0.1,0.4,0.4,0.7-0.1c0.2-0.4,0.5-0.1,0.8,0.1c0.1-1,0.3-0.7,0.4-0.2
								c0.1-0.9,0.3,1.4,0.4,0.2c0.1-0.2,0.3,0,0.4,0.3c0.1,0.1,0.3,0.3,0.4-0.3c0.2,0,0.3-0.1,0.5,0.3c0.1-0.3,0.2,0.5,0.2,0.2
								c0.1-0.1,0.2-0.1,0.2-0.4c0.1-0.7,0.2,0,0.2-0.3c0.1-0.1,0.2-0.4,0.2,0.2c0,0.8,0.1,0.4,0.1,0.4c0-0.2,0.1-0.3,0.1,0
								c0.1-0.1,0.2-0.7,0.2-0.2c0.1-0.4,0.3-0.5,0.4-0.4c0.1,0.3,0.3,0.2,0.4,0.1c0.1-0.4,0.3-0.3,0.4-0.1c0.1,0.2,0.3,0.5,0.4,0.4
								c0.1,0.4,0.3,0.5,0.4,0.3c0.1,0.5,0.1,0.4,0.2,0.4c0.1-0.1,0.1,0,0.2-0.2c0.1-0.3,0.2,0.1,0.4-0.3c0.1,0.2,0.1,0.2,0.2,0
								c0.1-0.2,0.1-0.4,0.2-0.3c0.1-0.4,0.2-0.2,0.3-0.1c0.1,0,0.2-0.3,0.3,0.1c0.1-0.3,0.2,0.4,0.3-0.2c0.1,0.8,0.2,0.1,0.3,0.2
								c0.1,0.4,0.2-0.1,0.3,0.2c0.1,0.1,0.2,0.2,0.3-0.2c0.2,0.3,0.3,0,0.5,0c0.1-0.1,0.3,0.4,0.4,0.1c0.1,0.5,0.2-0.1,0.3-0.1
								c0.2-0.4,0.2,0.2,0.2,0C33.9,25.9,33.9,26,33.9,26.2z"/>
							<path fill="#676767" d="M33.9,26.6c0-0.3-0.1,0.5-0.2,0c-0.1,0.2-0.2,0.6-0.3,0.2c-0.1,0.3-0.2,0.1-0.4-0.2
								c-0.1,0.1-0.1,0.1-0.2,0.4c-0.1,0-0.2-0.6-0.3-0.4c-0.1-0.1-0.2-0.5-0.3-0.4c-0.1,0-0.2,0.9-0.3,0.4
								c-0.1-0.2-0.2,0.4-0.3,0.3c-0.1,0.3-0.1,0.5-0.2,0.5c-0.1,0-0.1-0.2-0.2-0.6c-0.1,0.4-0.2-0.1-0.3,0.1
								c-0.1,0.5-0.2-0.5-0.3-0.2c-0.1,0.2-0.2,0.4-0.4,0.1c-0.1,0.2-0.1,0.4-0.2,0.3c-0.1-0.1-0.1-0.3-0.2-0.6
								c-0.1,0.4-0.2-0.2-0.4-0.1c-0.1-0.4-0.1-0.4-0.2,0c-0.1,0.3-0.1,0.9-0.2,0.4c-0.1-0.1-0.3-0.4-0.4-0.1
								c-0.1,0.9-0.3-0.1-0.4,0.2c-0.1-0.4-0.3,0.4-0.4,0.1c-0.1,0.4-0.3,0-0.4-0.2c0,0.5-0.1,0.7-0.1,0.7c0,0.1-0.1-0.4-0.1-0.1
								c0,0.2-0.1,0.1-0.1,0.2c0-0.1-0.1-0.1-0.1-0.4c-0.1,0.5-0.2,0.6-0.2,0.4c-0.1-0.2-0.2-0.3-0.2-0.9c-0.1,0.2-0.2-0.1-0.2-0.3
								c-0.1-0.1-0.2-0.2-0.2,0.3c-0.1,0-0.2,0.6-0.2,0.3c-0.1,0.9-0.2,0.4-0.2-0.3c-0.2-0.9-0.3-0.1-0.4,0
								c-0.1-0.9-0.3,0.5-0.4,0.2c-0.1-0.9-0.3,0.1-0.4,0c-0.1,0.4-0.3,0.3-0.4-0.2c-0.3-0.2-0.5-0.2-0.8,0.1
								c-0.2-0.3-0.5-0.8-0.7-0.1c-0.2,0.5-0.4-0.6-0.5-0.4c-0.2-0.1-0.3,0-0.4,0.4c-0.2,0.5-0.4-0.6-0.4,0c0,0.2,0-0.1,0-0.4
								c0,0.1,0.1,0.1,0.4,0c0.1-0.3,0.3-0.4,0.4-0.4c0.2,0.1,0.3-0.1,0.5,0.4c0.2,0.2,0.4-0.3,0.7,0.2c0.2-0.3,0.5,0.4,0.8-0.2
								c0.1-0.9,0.3,0.3,0.4,0c0.1-1.2,0.3,0,0.4,0c0.1,0.5,0.3,0.1,0.4-0.1c0.1-0.2,0.3,0,0.4,0.1c0.2-0.5,0.3,0.9,0.5,0.4
								c0.1,0.1,0.2,0.4,0.2,0.1c0.1-0.1,0.2-0.2,0.2-0.4c0.1-0.4,0.2-0.5,0.2-0.5c0.1,0,0.2,0.2,0.2,0.4c0.1,0.3,0.2-0.5,0.2-0.3
								c0,0.5,0.1,0.6,0.1,0.4c0,0,0.1-0.2,0.1-0.1c0.1-0.1,0.3-0.2,0.4-0.3c0.1,0.2,0.3,0.8,0.4,0.3c0.1-0.2,0.3,0.6,0.4,0.3
								c0.1-0.1,0.3,0.1,0.4-0.3c0.1,0.3,0.3,0,0.4,0.1c0.1-0.3,0.1-0.4,0.2-0.3c0.1-0.1,0.1,0.3,0.2,0.6c0.1,0.2,0.2-0.2,0.4-0.1
								c0.1,0,0.2,0.3,0.4-0.3c0.1,0.2,0.2-0.5,0.3,0.1c0.1-0.1,0.2,0.3,0.3,0c0.1,0.4,0.2,0.9,0.3,0c0.1-1.2,0.2-0.5,0.3-0.1
								c0.1-1.4,0.2,0.2,0.3-0.3c0.1-0.1,0.2,1.2,0.3,0.3c0.1-0.1,0.2-0.6,0.3-0.3c0.1,0.8,0.2,0.5,0.2,0.3c0.1-0.1,0.3-0.6,0.4-0.1
								c0.1-0.2,0.2,0,0.3,0.1c0.2,0,0.2,0.1,0.2,0C33.9,26.3,33.9,27,33.9,26.6z"/>
							<path fill="#676767" d="M33.9,27.4c0,0.1-0.1,0-0.2,0c-0.1,0.3-0.2-0.1-0.3-0.3c-0.1-0.2-0.2,0.1-0.4,0.3
								c-0.1-0.5-0.3-0.4-0.5,0c-0.1-0.5-0.2,0.3-0.3,0.1c-0.1,0.4-0.2,0.7-0.3-0.1c0-0.3-0.1-0.2-0.2-0.1c-0.1,0.1-0.1,0.4-0.2,0.4
								c-0.1,0-0.2-0.3-0.3-0.3c-0.1,0.3-0.2-0.3-0.3-0.1c-0.1-0.1-0.2,0.6-0.3,0.1c-0.1-0.5-0.1-0.4-0.2-0.6c-0.1,0-0.1,0-0.2,0.8
								c-0.1-0.2-0.1-0.1-0.2-0.2c-0.1,0.4-0.1,0.9-0.2,0.3c-0.1-0.1-0.1-0.6-0.2-0.6c-0.1-0.3-0.1-0.3-0.2,0.3
								c-0.1,0.7-0.3,0-0.4-0.1c-0.1-0.3-0.3-0.1-0.4,0.4c-0.1,0.6-0.3,0.4-0.4,0.1c-0.1-0.2-0.3-0.3-0.4,0.1
								c-0.1,0-0.1-0.4-0.2-0.1c-0.1,0.1-0.1-0.2-0.2-0.5c0,0.1-0.1,0.2-0.1,0.1c0,0.1-0.1-0.6-0.1-0.5c0,0-0.1,0.5-0.1,0.4
								c0-0.1-0.1-0.1-0.1-0.2c-0.1,0.3-0.2,0-0.2,0.3c-0.1-0.2-0.2-0.2-0.2-0.1c0-0.4-0.1,0.5-0.1,0.2c0,0.3-0.1,0.1-0.1-0.8
								c0-0.1-0.1-0.6-0.1-0.8c0-0.2-0.1-0.1-0.1,1.1c0,0.2-0.1-0.1-0.1-0.2c0-0.1-0.1-0.1-0.1,0.5c-0.1,0.8-0.2,0.1-0.2-0.1
								c-0.2-1-0.3-0.2-0.4-0.3c-0.1,1-0.3-0.6-0.4,0c-0.1-0.2-0.3-0.3-0.4,0c-0.1,0.9-0.3,0.6-0.4,0.2c-0.3-0.2-0.5,0-0.8-0.5
								c-0.2,1-0.5,0.6-0.7,0.5c-0.2-0.1-0.4-0.4-0.5-0.3c-0.2,0-0.3,0.1-0.4,0.3c-0.2,0.1-0.4,0-0.4,0c0-0.4,0-0.3,0-0.4
								c0-0.7,0.1-0.3,0.4,0c0.1,0,0.3-0.2,0.4-0.3c0.2,0.7,0.3,0.1,0.5,0.3c0.2,0.5,0.4,0.4,0.7,0.1c0.2,0,0.5,0.1,0.8-0.1
								c0.1-0.5,0.3-1.1,0.4,0c0.1-0.2,0.3,0.1,0.4,0c0.1,0.1,0.3,1.2,0.4,0.1c0.1-1.1,0.3,0.4,0.4-0.2c0.2-0.2,0.3,0,0.5-0.1
								c0.1-0.6,0.2-0.7,0.2-0.5c0.1,0.1,0.2,0.4,0.2,0.6c0.1,0.3,0.2,0.5,0.2,0.4c0.1-0.2,0.2-0.3,0.2-0.5c0.1-0.4,0.2-0.3,0.2,0.1
								c0.1,0.4,0.2,0.8,0.2,0.1c0.1,0.3,0.3,0.1,0.4,0.2c0.1-0.2,0.1-0.7,0.2-0.5c0.1,0,0.1-0.1,0.2-0.1c0.1,0.8,0.3-0.5,0.4-0.1
								c0.1,0.3,0.3,0.2,0.4,0.5c0-0.6,0.1-0.4,0.1-0.6c0-0.3,0.1-0.4,0.1-0.1c0.1,0,0.1,0.3,0.2,0.4c0.1-0.1,0.3-0.1,0.4-0.2
								c0.1,0.1,0.2,0,0.4,0.4c0.1,0.2,0.2-0.2,0.4,0.1c0.1,0.2,0.1,0.3,0.2,0.2c0.1,0.1,0.1-0.2,0.2-0.4c0.1-0.2,0.1,0.1,0.2,0.3
								c0.1,0.2,0.1,0.2,0.2-0.3c0.1,0.3,0.1,0.6,0.2,0.7s0.1-0.1,0.2-0.5c0.1,0.8,0.2-0.1,0.3,0c0.2,0.4,0.4,0.2,0.6,0
								c0.2-0.4,0.3,0.2,0.5,0c0.1,0.2,0.3,0,0.4,0.3c0.1-0.2,0.2,0.2,0.3-0.3c0.2,0.4,0.2,0.5,0.2,0C33.9,27.1,33.9,27.1,33.9,27.4
								z"/>
							<path fill="#676767" d="M33.9,28.5c0,0-0.1-0.5-0.4,0c-0.1,0.1-0.3,0.1-0.4,0c-0.2,0.2-0.3,0-0.5,0c-0.1,0.2-0.2,0.3-0.3,0.3
								c-0.1,0-0.2,0-0.3-0.3c-0.1,0.6-0.1,0.5-0.2,0.3c-0.1,0.1-0.1-0.5-0.2-0.3c-0.1-0.2-0.3-0.1-0.4-0.1
								c-0.1-0.7-0.3,1.1-0.4-0.1c-0.1,0.5-0.3-0.6-0.4,0c-0.1,0.3-0.3,0.7-0.4-0.1c-0.1,0-0.3-0.3-0.4,0.2c-0.2,0.1-0.3-0.3-0.5,0
								c-0.2,0.5-0.3-0.2-0.5,0c-0.2,0.2-0.3,0.2-0.5,0c-0.2,0.2-0.3,0.2-0.5,0c-0.2-0.4-0.3,0.3-0.5-0.3c-0.1,0.7-0.2,0.4-0.2,0.4
								c-0.1-0.2-0.2,0.3-0.2-0.1c-0.2,0.2-0.3-0.4-0.5,0.1c-0.2-0.2-0.3-0.2-0.5,0c-0.2,0.4-0.3,0-0.4,0c-0.1-0.1-0.3,0-0.4-0.1
								c-0.1,0-0.3,0.3-0.4-0.1c-0.1,0.2-0.3-0.2-0.4,0.2c-0.3,0.3-0.5,0.3-0.8,0.2c-0.2,0.4-0.5-0.1-0.7-0.2c-0.2-0.3-0.4,0-0.5,0
								c-0.2,0-0.3,0-0.4,0c-0.2,0.5-0.4,0.3-0.4,0c0-0.1,0-0.1,0-0.4c0-0.2,0.1,0.5,0.4,0c0.1,0.1,0.3,0,0.4-0.1
								c0.2,0,0.3,0,0.5,0.1c0.2-0.2,0.4,0.5,0.7-0.1c0.2-0.4,0.5-0.4,0.8,0.1c0.1,0,0.3,0.7,0.4,0.2c0.1,0.8,0.3,0.1,0.4,0
								c0.1-0.6,0.3-0.1,0.4,0c0.1-0.4,0.1-0.2,0.2,0c0.1,0.2,0.2,0.4,0.2-0.2c0.1,0.6,0.2,0.3,0.2,0.2c0.1,0.1,0.2-0.1,0.2-0.1
								c0.1-0.6,0.2-0.2,0.2,0c0.1,0.1,0.2,0.3,0.2-0.1c0.2,0.1,0.3-0.2,0.5,0c0.2,0.5,0.3-0.1,0.5,0c0.1-0.6,0.2-0.8,0.2-0.4
								c0.1-0.2,0.2-0.2,0.2,0c0.2,0.3,0.3,0.7,0.5,0.4c0.1-0.3,0.2,0,0.2,0c0.1,0,0.2,0.2,0.2-0.2c0.2,0.5,0.3-0.1,0.5,0.2
								c0.2,0.5,0.3,0.5,0.4,0c0.1,0,0.3,0,0.4-0.1c0.1,0.8,0.3,0,0.4,0.3c0.1,0.2,0.1,0.2,0.2,0.2c0.1-0.2,0.1-0.4,0.2-0.4
								c0.1,0.4,0.3,0.4,0.4,0.2c0.1-0.4,0.2,0,0.4-0.2c0.1,0.1,0.2,0,0.3,0c0.1-0.1,0.2-0.1,0.3,0c0.2-0.1,0.4-0.9,0.5-0.1
								c0.2-0.4,0.3,0.3,0.4,0.1c0.2-0.3,0.4-0.7,0.4,0C33.9,28.3,33.9,27.9,33.9,28.5z"/>
						</g>
						<g clip-path="url(#SVGID_4_)">
							<path fill="#676767" d="M33.9,20.1c0,0-0.2-0.1-0.6,0c-0.2,0.3-0.4,0.5-0.7-0.3c-0.3-0.5-0.5-0.1-0.8,0.3
								c-0.1-0.4-0.2,0.2-0.3,0c-0.1,0.6-0.2,0.3-0.3-0.1c-0.1-0.5-0.2-0.5-0.3-0.2c-0.1,0.2-0.2-1.1-0.4,0.3
								c-0.1-1.1-0.2-0.4-0.4,0.1c-0.1-0.6-0.3,0.5-0.4,0c-0.1,0.2-0.1,0.4-0.2,0.4c-0.1,0-0.1-0.2-0.2-0.4
								c-0.1-0.1-0.3-0.3-0.4-0.1c-0.1,0.2-0.1,0.2-0.2,0.4c-0.1,0-0.1,0-0.2-0.3c-0.1,0-0.3,0-0.4-0.4c-0.1,0.3-0.3-0.4-0.4-0.2
								c-0.1-0.1-0.3,0.3-0.4,0.5c-0.1-0.5-0.3,1-0.4-0.1c-0.1,0.7-0.3,0.3-0.4,0.2c-0.1,0.3-0.3-0.3-0.4,0
								c-0.1-0.7-0.3-0.4-0.4-0.1c-0.2,0-0.3-0.8-0.4,0c-0.1,0.1-0.3,0.2-0.4,0c-0.1-0.4-0.3-0.1-0.4,0c-0.1,0.2-0.3,0-0.4,0
								c-0.3,0.3-0.5-0.7-0.8,0c-0.2-0.2-0.5,0-0.7,0c-0.2,0-0.4,0.3-0.5,0.2c-0.2,0-0.3-0.1-0.4-0.2c-0.2,0.4-0.4-0.2-0.4,0
								c0,0.3,0-0.5,0-0.4c0-0.3,0.1-0.3,0.4,0c0.1-0.3,0.3-0.1,0.4,0c0.2-0.1,0.3,0.3,0.5,0c0.2,1.2,0.4,0.5,0.7,0.1
								c0.2-0.1,0.5,0.1,0.8-0.1c0.1,0.3,0.3-0.9,0.4-0.1c0.1-0.7,0.3-0.3,0.4,0c0.1,0,0.3,0.3,0.4,0.1c0.1-0.1,0.3,1.5,0.4,0
								c0.1-0.4,0.3-1.1,0.4-0.4c0.1-0.3,0.3,0.3,0.4,0.2c0.1,0.8,0.3,0.2,0.4-0.1c0.1-0.1,0.3-0.1,0.4,0.2c0.1,0.5,0.3,0.3,0.4,0.1
								c0.1-0.1,0.3-0.5,0.4,0c0.1-0.6,0.3,0.3,0.4,0c0.1,0.4,0.3,0.2,0.4-0.1c0.1,0.2,0.3,0.3,0.4,0c0.1,0.1,0.3-0.2,0.4-0.1
								c0.1-0.8,0.3,0.2,0.4,0c0.1,0.5,0.2-0.5,0.4,0.1c0.1,0.4,0.2,0.2,0.4,0.1c0.1-0.6,0.2,1.3,0.3-0.1c0.1-0.7,0.2,0.1,0.3,0.1
								c0.1-0.3,0.2-0.4,0.3-0.2c0.3-0.5,0.6-0.3,0.8,0.1c0.3-0.1,0.5-0.3,0.7-0.1c0.4-0.3,0.6,0.1,0.6,0
								C33.9,19.4,33.9,19.8,33.9,20.1z"/>
							<path fill="#676767" d="M33.9,21c0,0.2-0.1-0.1-0.2,0c-0.1-0.4-0.2,0.1-0.3,0c-0.1-0.2-0.2,0.7-0.4,0c-0.1,0.4-0.1,1-0.2,0.3
								c-0.1,0.9-0.2-0.3-0.3-0.3c-0.2,0.3-0.4,1.2-0.6,0c-0.1,0.3-0.2-1.3-0.3-0.2c-0.1,0.4-0.2,0.5-0.3,0.2
								c-0.2,0.4-0.4,0-0.7,0.1c-0.1,0-0.2-0.2-0.4-0.1c-0.1,0.4-0.1,0.5-0.2,0.2c-0.1-0.2-0.1-0.6-0.2-0.6
								c-0.1-0.3-0.1-0.4-0.2-0.3c-0.1,0-0.1,0.2-0.2,0.4c-0.1,0.5-0.3,0-0.4,0.4c-0.1-0.6-0.3-0.1-0.4-0.2
								c-0.1,0.2-0.3,0.7-0.4,0.2c-0.1,0.2-0.3,0.3-0.4,0.3c-0.1,0.3-0.1,0.2-0.2,0.2c-0.1,0.2-0.1-0.1-0.2-0.4
								c-0.2,0-0.3,0.4-0.5,0c-0.1,0.3-0.2,0.2-0.2,0.1c-0.1-0.2-0.2-0.5-0.2-0.2c-0.1,0.5-0.2,0.6-0.2,0.6c-0.1,0-0.2-0.2-0.2-0.6
								c-0.2-1.2-0.3-1-0.5,0c-0.2-0.8-0.3,0.3-0.4,0c-0.1-0.7-0.3,0.8-0.4,0.1c-0.1,0.6-0.3,0.1-0.4,0.1c-0.1,0.4-0.3,1.5-0.4-0.2
								c-0.3,0-0.5,0.2-0.8,0.1c-0.2-0.5-0.5,0.2-0.7-0.1c-0.2-0.5-0.4-0.1-0.5-0.1c-0.2,0-0.3,0-0.4,0.1c-0.2,0.1-0.4-0.4-0.4,0
								c0-0.3,0-0.2,0-0.4c0,0,0.1,0.5,0.4,0c0.1,0.4,0.3,0.3,0.4,0.2c0.2-0.4,0.3,0.4,0.5-0.2c0.2-0.1,0.4,0.4,0.7-0.1
								c0.2-0.4,0.5-0.1,0.8,0.1c0.1-1,0.3-0.7,0.4-0.2c0.1-0.9,0.3,1.4,0.4,0.2c0.1-0.2,0.3,0,0.4,0.3c0.1,0.1,0.3,0.3,0.4-0.3
								c0.2,0,0.3-0.1,0.5,0.3c0.1-0.3,0.2,0.5,0.2,0.2c0.1-0.1,0.2-0.1,0.2-0.4c0.1-0.7,0.2,0,0.2-0.3c0.1-0.1,0.2-0.4,0.2,0.2
								c0,0.8,0.1,0.4,0.1,0.4c0-0.2,0.1-0.3,0.1,0c0.1-0.1,0.2-0.7,0.2-0.2c0.1-0.4,0.3-0.5,0.4-0.4c0.1,0.3,0.3,0.2,0.4,0.1
								c0.1-0.4,0.3-0.3,0.4-0.1c0.1,0.2,0.3,0.5,0.4,0.4c0.1,0.4,0.3,0.5,0.4,0.3c0.1,0.5,0.1,0.4,0.2,0.4c0.1-0.1,0.1,0,0.2-0.2
								c0.1-0.3,0.2,0.1,0.4-0.3c0.1,0.2,0.1,0.2,0.2,0c0.1-0.2,0.1-0.4,0.2-0.3c0.1-0.4,0.2-0.2,0.3-0.1c0.1,0,0.2-0.3,0.3,0.1
								c0.1-0.3,0.2,0.4,0.3-0.2c0.1,0.8,0.2,0.1,0.3,0.2c0.1,0.4,0.2-0.1,0.3,0.2c0.1,0.1,0.2,0.2,0.3-0.2c0.2,0.3,0.3,0,0.5,0
								c0.1-0.1,0.3,0.4,0.4,0.1c0.1,0.5,0.2-0.1,0.3-0.1c0.2-0.4,0.2,0.2,0.2,0C33.9,20.7,33.9,20.8,33.9,21z"/>
							<path fill="#676767" d="M33.9,21.4c0-0.3-0.1,0.5-0.2,0c-0.1,0.2-0.2,0.6-0.3,0.2c-0.1,0.3-0.2,0.1-0.4-0.2
								c-0.1,0.1-0.1,0.1-0.2,0.4c-0.1,0-0.2-0.6-0.3-0.4c-0.1-0.1-0.2-0.5-0.3-0.4c-0.1,0-0.2,0.9-0.3,0.4
								c-0.1-0.2-0.2,0.4-0.3,0.3c-0.1,0.3-0.1,0.5-0.2,0.5c-0.1,0-0.1-0.2-0.2-0.6c-0.1,0.4-0.2-0.1-0.3,0.1
								c-0.1,0.5-0.2-0.5-0.3-0.2c-0.1,0.2-0.2,0.4-0.4,0.1c-0.1,0.2-0.1,0.4-0.2,0.3c-0.1-0.1-0.1-0.3-0.2-0.6
								c-0.1,0.4-0.2-0.2-0.4-0.1c-0.1-0.4-0.1-0.4-0.2,0c-0.1,0.3-0.1,0.9-0.2,0.4c-0.1-0.1-0.3-0.4-0.4-0.1
								c-0.1,0.9-0.3-0.1-0.4,0.2c-0.1-0.4-0.3,0.4-0.4,0.1c-0.1,0.4-0.3,0-0.4-0.2c0,0.5-0.1,0.7-0.1,0.7c0,0.1-0.1-0.4-0.1-0.1
								c0,0.2-0.1,0.1-0.1,0.2c0-0.1-0.1-0.1-0.1-0.4c-0.1,0.5-0.2,0.6-0.2,0.4c-0.1-0.2-0.2-0.3-0.2-0.9c-0.1,0.2-0.2-0.1-0.2-0.3
								c-0.1-0.1-0.2-0.2-0.2,0.3c-0.1,0-0.2,0.6-0.2,0.3c-0.1,0.9-0.2,0.4-0.2-0.3c-0.2-0.9-0.3-0.1-0.4,0
								c-0.1-0.9-0.3,0.5-0.4,0.2c-0.1-0.9-0.3,0.1-0.4,0c-0.1,0.4-0.3,0.3-0.4-0.2c-0.3-0.2-0.5-0.2-0.8,0.1
								c-0.2-0.3-0.5-0.8-0.7-0.1c-0.2,0.5-0.4-0.6-0.5-0.4c-0.2-0.1-0.3,0-0.4,0.4c-0.2,0.5-0.4-0.6-0.4,0c0,0.2,0-0.1,0-0.4
								c0,0.1,0.1,0.1,0.4,0c0.1-0.3,0.3-0.4,0.4-0.4c0.2,0.1,0.3-0.1,0.5,0.4c0.2,0.2,0.4-0.3,0.7,0.2c0.2-0.3,0.5,0.4,0.8-0.2
								c0.1-0.9,0.3,0.3,0.4,0c0.1-1.2,0.3,0,0.4,0c0.1,0.5,0.3,0.1,0.4-0.1c0.1-0.2,0.3,0,0.4,0.1c0.2-0.5,0.3,0.9,0.5,0.4
								c0.1,0.1,0.2,0.4,0.2,0.1c0.1-0.1,0.2-0.2,0.2-0.4c0.1-0.4,0.2-0.5,0.2-0.5c0.1,0,0.2,0.2,0.2,0.4c0.1,0.3,0.2-0.5,0.2-0.3
								c0,0.5,0.1,0.6,0.1,0.4c0,0,0.1-0.2,0.1-0.1c0.1-0.1,0.3-0.2,0.4-0.3c0.1,0.2,0.3,0.8,0.4,0.3c0.1-0.2,0.3,0.6,0.4,0.3
								c0.1-0.1,0.3,0.1,0.4-0.3c0.1,0.3,0.3,0,0.4,0.1c0.1-0.3,0.1-0.4,0.2-0.3c0.1-0.1,0.1,0.3,0.2,0.6c0.1,0.2,0.2-0.2,0.4-0.1
								c0.1,0,0.2,0.3,0.4-0.3c0.1,0.2,0.2-0.5,0.3,0.1c0.1-0.1,0.2,0.3,0.3,0c0.1,0.4,0.2,0.9,0.3,0c0.1-1.2,0.2-0.5,0.3-0.1
								c0.1-1.4,0.2,0.2,0.3-0.3c0.1-0.1,0.2,1.2,0.3,0.3c0.1-0.1,0.2-0.6,0.3-0.3c0.1,0.8,0.2,0.5,0.2,0.3c0.1-0.1,0.3-0.6,0.4-0.1
								c0.1-0.2,0.2,0,0.3,0.1c0.2,0,0.2,0.1,0.2,0C33.9,21.1,33.9,21.8,33.9,21.4z"/>
							<path fill="#676767" d="M33.9,22.2c0,0.1-0.1,0-0.2,0c-0.1,0.3-0.2-0.1-0.3-0.3c-0.1-0.2-0.2,0.1-0.4,0.3
								c-0.1-0.5-0.3-0.4-0.5,0c-0.1-0.5-0.2,0.3-0.3,0.1c-0.1,0.4-0.2,0.7-0.3-0.1c0-0.3-0.1-0.2-0.2-0.1c-0.1,0.1-0.1,0.4-0.2,0.4
								c-0.1,0-0.2-0.3-0.3-0.3c-0.1,0.3-0.2-0.3-0.3-0.1c-0.1-0.1-0.2,0.6-0.3,0.1c-0.1-0.5-0.1-0.4-0.2-0.6c-0.1,0-0.1,0-0.2,0.8
								c-0.1-0.2-0.1-0.1-0.2-0.2c-0.1,0.4-0.1,0.9-0.2,0.3c-0.1-0.1-0.1-0.6-0.2-0.6c-0.1-0.3-0.1-0.3-0.2,0.3
								c-0.1,0.7-0.3,0-0.4-0.1c-0.1-0.3-0.3-0.1-0.4,0.4c-0.1,0.6-0.3,0.4-0.4,0.1c-0.1-0.2-0.3-0.3-0.4,0.1
								c-0.1,0-0.1-0.4-0.2-0.1c-0.1,0.1-0.1-0.2-0.2-0.5c0,0.1-0.1,0.2-0.1,0.1c0,0.1-0.1-0.6-0.1-0.5c0,0-0.1,0.5-0.1,0.4
								c0-0.1-0.1-0.1-0.1-0.2c-0.1,0.3-0.2,0-0.2,0.3c-0.1-0.2-0.2-0.2-0.2-0.1c0-0.4-0.1,0.5-0.1,0.2c0,0.3-0.1,0.1-0.1-0.8
								c0-0.1-0.1-0.6-0.1-0.8c0-0.2-0.1-0.1-0.1,1.1c0,0.2-0.1-0.1-0.1-0.2c0-0.1-0.1-0.1-0.1,0.5c-0.1,0.8-0.2,0.1-0.2-0.1
								c-0.2-1-0.3-0.2-0.4-0.3c-0.1,1-0.3-0.6-0.4,0c-0.1-0.2-0.3-0.3-0.4,0c-0.1,0.9-0.3,0.6-0.4,0.2c-0.3-0.2-0.5,0-0.8-0.5
								c-0.2,1-0.5,0.6-0.7,0.5c-0.2-0.1-0.4-0.4-0.5-0.3c-0.2,0-0.3,0.1-0.4,0.3c-0.2,0.1-0.4,0-0.4,0c0-0.4,0-0.3,0-0.4
								c0-0.7,0.1-0.3,0.4,0c0.1,0,0.3-0.2,0.4-0.3c0.2,0.7,0.3,0.1,0.5,0.3c0.2,0.5,0.4,0.4,0.7,0.1c0.2,0,0.5,0.1,0.8-0.1
								c0.1-0.5,0.3-1.1,0.4,0c0.1-0.2,0.3,0.1,0.4,0c0.1,0.1,0.3,1.2,0.4,0.1c0.1-1.1,0.3,0.4,0.4-0.2c0.2-0.2,0.3,0,0.5-0.1
								c0.1-0.6,0.2-0.7,0.2-0.5c0.1,0.1,0.2,0.4,0.2,0.6c0.1,0.3,0.2,0.5,0.2,0.4c0.1-0.2,0.2-0.3,0.2-0.5c0.1-0.4,0.2-0.3,0.2,0.1
								c0.1,0.4,0.2,0.8,0.2,0.1c0.1,0.3,0.3,0.1,0.4,0.2c0.1-0.2,0.1-0.7,0.2-0.5c0.1,0,0.1-0.1,0.2-0.1c0.1,0.8,0.3-0.5,0.4-0.1
								c0.1,0.3,0.3,0.2,0.4,0.5c0-0.6,0.1-0.4,0.1-0.6c0-0.3,0.1-0.4,0.1-0.1c0.1,0,0.1,0.3,0.2,0.4c0.1-0.1,0.3-0.1,0.4-0.2
								c0.1,0.1,0.2,0,0.4,0.4c0.1,0.2,0.2-0.2,0.4,0.1c0.1,0.2,0.1,0.3,0.2,0.2c0.1,0.1,0.1-0.2,0.2-0.4c0.1-0.2,0.1,0.1,0.2,0.3
								c0.1,0.2,0.1,0.2,0.2-0.3c0.1,0.3,0.1,0.6,0.2,0.7s0.1-0.1,0.2-0.5c0.1,0.8,0.2-0.1,0.3,0c0.2,0.4,0.4,0.2,0.6,0
								c0.2-0.4,0.3,0.2,0.5,0c0.1,0.2,0.3,0,0.4,0.3c0.1-0.2,0.2,0.2,0.3-0.3c0.2,0.4,0.2,0.5,0.2,0C33.9,21.9,33.9,21.9,33.9,22.2
								z"/>
							<path fill="#676767" d="M33.9,23.3c0,0-0.1-0.5-0.4,0c-0.1,0.1-0.3,0.1-0.4,0c-0.2,0.2-0.3,0-0.5,0c-0.1,0.2-0.2,0.3-0.3,0.3
								c-0.1,0-0.2,0-0.3-0.3c-0.1,0.6-0.1,0.5-0.2,0.3c-0.1,0.1-0.1-0.5-0.2-0.3c-0.1-0.2-0.3-0.1-0.4-0.1
								c-0.1-0.7-0.3,1.1-0.4-0.1c-0.1,0.5-0.3-0.6-0.4,0c-0.1,0.3-0.3,0.7-0.4-0.1c-0.1,0-0.3-0.3-0.4,0.2c-0.2,0.1-0.3-0.3-0.5,0
								c-0.2,0.5-0.3-0.2-0.5,0c-0.2,0.2-0.3,0.2-0.5,0c-0.2,0.2-0.3,0.2-0.5,0c-0.2-0.4-0.3,0.3-0.5-0.3c-0.1,0.7-0.2,0.4-0.2,0.4
								c-0.1-0.2-0.2,0.3-0.2-0.1c-0.2,0.2-0.3-0.4-0.5,0.1c-0.2-0.2-0.3-0.2-0.5,0c-0.2,0.4-0.3,0-0.4,0c-0.1-0.1-0.3,0-0.4-0.1
								c-0.1,0-0.3,0.3-0.4-0.1c-0.1,0.2-0.3-0.2-0.4,0.2c-0.3,0.3-0.5,0.3-0.8,0.2c-0.2,0.4-0.5-0.1-0.7-0.2c-0.2-0.3-0.4,0-0.5,0
								c-0.2,0-0.3,0-0.4,0c-0.2,0.5-0.4,0.3-0.4,0c0-0.1,0-0.1,0-0.4c0-0.2,0.1,0.5,0.4,0c0.1,0.1,0.3,0,0.4-0.1
								c0.2,0,0.3,0,0.5,0.1c0.2-0.2,0.4,0.5,0.7-0.1c0.2-0.4,0.5-0.4,0.8,0.1c0.1,0,0.3,0.7,0.4,0.2c0.1,0.8,0.3,0.1,0.4,0
								c0.1-0.6,0.3-0.1,0.4,0c0.1-0.4,0.1-0.2,0.2,0c0.1,0.2,0.2,0.4,0.2-0.2c0.1,0.6,0.2,0.3,0.2,0.2c0.1,0.1,0.2-0.1,0.2-0.1
								c0.1-0.6,0.2-0.2,0.2,0c0.1,0.1,0.2,0.3,0.2-0.1c0.2,0.1,0.3-0.2,0.5,0c0.2,0.5,0.3-0.1,0.5,0c0.1-0.6,0.2-0.8,0.2-0.4
								c0.1-0.2,0.2-0.2,0.2,0c0.2,0.3,0.3,0.7,0.5,0.4c0.1-0.3,0.2,0,0.2,0c0.1,0,0.2,0.2,0.2-0.2c0.2,0.5,0.3-0.1,0.5,0.2
								c0.2,0.5,0.3,0.5,0.4,0c0.1,0,0.3,0,0.4-0.1c0.1,0.8,0.3,0,0.4,0.3c0.1,0.2,0.1,0.2,0.2,0.2c0.1-0.2,0.1-0.4,0.2-0.4
								c0.1,0.4,0.3,0.4,0.4,0.2c0.1-0.4,0.2,0,0.4-0.2c0.1,0.1,0.2,0,0.3,0c0.1-0.1,0.2-0.1,0.3,0c0.2-0.1,0.4-0.9,0.5-0.1
								c0.2-0.4,0.3,0.3,0.4,0.1c0.2-0.3,0.4-0.7,0.4,0C33.9,23.1,33.9,22.8,33.9,23.3z"/>
							<path fill="#676767" d="M33.9,24.2c0,0.3-0.1,0.3-0.2,0c-0.2,0-0.4-0.3-0.7,0c-0.1,0.1-0.3,0-0.5,0c-0.2,0.2-0.4,0.1-0.6,0
								c-0.1,0.6-0.2,0.4-0.3,0.2c-0.1-0.1-0.2,0-0.3-0.2c-0.1-0.5-0.1-0.1-0.2,0.1c-0.1-0.2-0.1,0.6-0.2,0
								c-0.1,0.2-0.2,0.1-0.3-0.1c-0.1-0.4-0.2-0.3-0.4-0.2c-0.1,0.1-0.2-0.2-0.4,0c-0.1-0.7-0.2,0.3-0.4,0
								c-0.1-0.1-0.3,0.2-0.4,0.2c-0.1,0.5-0.3,0.1-0.4-0.1c-0.1,0.2-0.3,0-0.4-0.2c-0.1-0.3-0.3-0.6-0.4,0
								c-0.1,0.3-0.3-0.6-0.4,0.3c-0.2,0.7-0.3,0-0.5,0.1c-0.2-1-0.3-0.1-0.5-0.1c-0.1,0.1-0.2,0.6-0.2-0.1
								c-0.1-0.4-0.2,0.2-0.2,0.3c-0.2,0-0.3,0.3-0.5-0.3c-0.2,0.2-0.3-0.1-0.4,0c-0.1-0.1-0.3,0.3-0.4,0c-0.1-0.1-0.3,0.3-0.4,0
								c-0.1,0-0.3,0.4-0.4,0c-0.3,0.4-0.5,0.4-0.8,0.3c-0.2,0-0.5-0.1-0.7-0.3c-0.2,0.5-0.4,0.2-0.5,0c-0.2-0.3-0.3-0.5-0.4,0
								c-0.2-0.1-0.4-0.1-0.4,0c0-0.3,0-1.4,0-0.4c0-0.5,0.1,0.3,0.4,0c0.1-0.2,0.3,0,0.4,0.1c0.2,0.2,0.3,0.3,0.5-0.1
								c0.2,0.4,0.4-0.3,0.7,0.2c0.2,0,0.5-0.5,0.8-0.2c0.1-0.5,0.3-1.3,0.4-0.3c0.1-0.4,0.3-0.4,0.4,0.1c0.1-0.2,0.3,0.6,0.4,0.2
								c0.1-0.1,0.3,0.5,0.4,0c0.2,0.2,0.3-0.2,0.5-0.3c0.2-0.1,0.3,0.2,0.5,0.2c0.2-0.5,0.3-0.2,0.5,0c0.2-0.4,0.3,0.2,0.5,0.1
								c0.1-0.1,0.3-0.7,0.4,0c0.1,0,0.3-0.1,0.4,0.2c0.1,0.2,0.3-0.1,0.4,0.1c0.1,0,0.3-0.3,0.4-0.3c0.1-0.1,0.3,0,0.4-0.1
								c0.1,0,0.3,0.3,0.4,0.1c0.1,0.9,0.2,0.4,0.4,0.1c0.1-0.8,0.2,0,0.4-0.1c0.1,0,0.2,0,0.3,0.1c0.1,0.6,0.1-0.1,0.2,0.2
								c0.1,0,0.1-0.7,0.2-0.3c0.1-0.2,0.1-0.6,0.2-0.6c0.1-0.1,0.1-0.1,0.2,0.4c0.1-0.2,0.2,0,0.3,0.1c0.2,0,0.4,0.4,0.6,0
								c0.2,0.4,0.3,0,0.5,0c0.1,0.2,0.3,0.1,0.4,0c0.1-0.1,0.2,0.1,0.3,0C33.8,24,33.8,24.1,33.9,24.2c0,0,0-0.1,0-0.4
								C33.9,24.1,33.9,24.4,33.9,24.2z"/>
							<path fill="#676767" d="M33.9,24.6c0,0-0.2,0.2-0.5,0c-0.2,0.1-0.4,0-0.6,0c-0.1,0.1-0.2,0.1-0.4,0.1
								c-0.1-0.1-0.3-0.3-0.4-0.1c-0.1-0.6-0.2-0.2-0.3-0.2c-0.1-0.1-0.2,0.7-0.3,0.2c-0.1,0.2-0.2-0.7-0.3,0.1
								c-0.1,0-0.2,0.4-0.3-0.1c-0.1-0.7-0.2-0.4-0.4,0c-0.1,0.1-0.2,0.2-0.4-0.1c-0.1-0.2-0.2-1.1-0.4-0.1
								c-0.1,0.5-0.3,0.4-0.4,0.2c-0.3-0.5-0.5,0.6-0.8,0.1c-0.3,0.1-0.5,0.4-0.8-0.1c-0.2-0.6-0.3-0.6-0.5,0
								c-0.2,0.2-0.3,0.7-0.5,0.1c-0.2,0.3-0.3-0.4-0.5-0.1c-0.1-0.5-0.2-0.2-0.2-0.3c-0.1,0-0.2,0.2-0.2,0.3
								c-0.2,0.2-0.3-0.4-0.4-0.1c-0.1-0.7-0.3-0.4-0.4,0c-0.1-0.2-0.3,0.2-0.4,0.1c-0.1-1.1-0.3-0.2-0.4,0
								c-0.3-0.1-0.5-0.2-0.8,0.1c-0.2,0-0.5,0.2-0.7-0.1c-0.2,0.2-0.4,0.3-0.5,0.3c-0.2,0-0.3-0.1-0.4-0.3c-0.2,0.1-0.4,0.5-0.4,0
								c0,0,0,0.3,0-0.4c0,0.4,0.1,0,0.4,0c0.1,0,0.3-0.1,0.4-0.1c0.2-0.1,0.3,0,0.5,0.1c0.2,0,0.4,0.1,0.7,0.2
								c0.2,0.3,0.5-0.8,0.8-0.2c0.1,0,0.3,0.3,0.4,0c0.1-0.1,0.3,0.6,0.4,0c0.1-0.1,0.3-0.3,0.4,0c0.1-0.3,0.3,0.3,0.4,0.1
								c0.2-0.4,0.3,0.2,0.5,0.1c0.1-0.7,0.2-0.3,0.2-0.2c0.1-0.2,0.2,0.2,0.2,0.1c0.2-0.2,0.3,0.8,0.5,0.2c0.2-0.5,0.3,0.2,0.5-0.3
								c0.1-0.2,0.3,0.3,0.4,0c0.1,0.2,0.3,0.3,0.4,0.1c0.1-0.3,0.3,1.1,0.4,0.1c0.1,0,0.3-0.1,0.4-0.2c0.1,0.3,0.3-0.2,0.4,0.2
								c0.1,0.1,0.3,0.6,0.4,0c0.1-0.2,0.2,0.1,0.4,0c0.1-0.4,0.1,0.8,0.2,0c0.1-0.2,0.1,0.6,0.2-0.2c0.1-0.4,0.2,0.1,0.3-0.3
								c0.1,0.4,0.2-0.1,0.3,0.2c0.1-0.2,0.2-0.1,0.3,0.2c0.1,0.1,0.2,0,0.3-0.1c0.1-0.1,0.2-0.1,0.3,0.2c0.1,0.1,0.2,0.1,0.3-0.2
								c0.2-0.5,0.3-0.1,0.5,0c0.1,0,0.3,0,0.4-0.1c0.1,0,0.2,0.1,0.3,0.1c0.2-0.1,0.2,0.4,0.2,0C33.9,24,33.9,24.6,33.9,24.6z"/>
						</g>
						<g clip-path="url(#SVGID_4_)">
							<path fill="#676767" d="M33.9,16.3c0-0.3-0.1,0.5-0.2,0c-0.1,0.2-0.2,0.6-0.3,0.2c-0.1,0.3-0.2,0.1-0.4-0.2
								c-0.1,0.1-0.1,0.1-0.2,0.4c-0.1,0-0.2-0.6-0.3-0.4c-0.1-0.1-0.2-0.5-0.3-0.4c-0.1,0-0.2,0.9-0.3,0.4
								c-0.1-0.2-0.2,0.4-0.3,0.3c-0.1,0.3-0.1,0.5-0.2,0.5c-0.1,0-0.1-0.2-0.2-0.6c-0.1,0.4-0.2-0.1-0.3,0.1
								c-0.1,0.5-0.2-0.5-0.3-0.2c-0.1,0.2-0.2,0.4-0.4,0.1c-0.1,0.2-0.1,0.4-0.2,0.3c-0.1-0.1-0.1-0.3-0.2-0.6
								c-0.1,0.4-0.2-0.2-0.4-0.1c-0.1-0.4-0.1-0.4-0.2,0c-0.1,0.3-0.1,0.9-0.2,0.4c-0.1-0.1-0.3-0.4-0.4-0.1
								c-0.1,0.9-0.3-0.1-0.4,0.2c-0.1-0.4-0.3,0.4-0.4,0.1c-0.1,0.4-0.3,0-0.4-0.2c0,0.5-0.1,0.7-0.1,0.7c0,0.1-0.1-0.4-0.1-0.1
								c0,0.2-0.1,0.1-0.1,0.2c0-0.1-0.1-0.1-0.1-0.4c-0.1,0.5-0.2,0.6-0.2,0.4c-0.1-0.2-0.2-0.3-0.2-0.9c-0.1,0.2-0.2-0.1-0.2-0.3
								c-0.1-0.1-0.2-0.2-0.2,0.3c-0.1,0-0.2,0.6-0.2,0.3c-0.1,0.9-0.2,0.4-0.2-0.3c-0.2-0.9-0.3-0.1-0.4,0
								c-0.1-0.9-0.3,0.5-0.4,0.2c-0.1-0.9-0.3,0.1-0.4,0c-0.1,0.4-0.3,0.3-0.4-0.2c-0.3-0.2-0.5-0.2-0.8,0.1
								c-0.2-0.3-0.5-0.8-0.7-0.1c-0.2,0.5-0.4-0.6-0.5-0.4c-0.2-0.1-0.3,0-0.4,0.4c-0.2,0.5-0.4-0.6-0.4,0c0,0.2,0-0.1,0-0.4
								c0,0.1,0.1,0.1,0.4,0c0.1-0.3,0.3-0.4,0.4-0.4c0.2,0.1,0.3-0.1,0.5,0.4c0.2,0.2,0.4-0.3,0.7,0.2c0.2-0.3,0.5,0.4,0.8-0.2
								c0.1-0.9,0.3,0.3,0.4,0c0.1-1.2,0.3,0,0.4,0c0.1,0.5,0.3,0.1,0.4-0.1c0.1-0.2,0.3,0,0.4,0.1c0.2-0.5,0.3,0.9,0.5,0.4
								c0.1,0.1,0.2,0.4,0.2,0.1c0.1-0.1,0.2-0.2,0.2-0.4c0.1-0.4,0.2-0.5,0.2-0.5c0.1,0,0.2,0.2,0.2,0.4c0.1,0.3,0.2-0.5,0.2-0.3
								c0,0.5,0.1,0.6,0.1,0.4c0,0,0.1-0.2,0.1-0.1c0.1-0.1,0.3-0.2,0.4-0.3c0.1,0.2,0.3,0.8,0.4,0.3c0.1-0.2,0.3,0.6,0.4,0.3
								c0.1-0.1,0.3,0.1,0.4-0.3c0.1,0.3,0.3,0,0.4,0.1c0.1-0.3,0.1-0.4,0.2-0.3c0.1-0.1,0.1,0.3,0.2,0.6c0.1,0.2,0.2-0.2,0.4-0.1
								c0.1,0,0.2,0.3,0.4-0.3c0.1,0.2,0.2-0.5,0.3,0.1c0.1-0.1,0.2,0.3,0.3,0c0.1,0.4,0.2,0.9,0.3,0c0.1-1.2,0.2-0.5,0.3-0.1
								c0.1-1.4,0.2,0.2,0.3-0.3c0.1-0.1,0.2,1.2,0.3,0.3c0.1-0.1,0.2-0.6,0.3-0.3c0.1,0.8,0.2,0.5,0.2,0.3c0.1-0.1,0.3-0.6,0.4-0.1
								c0.1-0.2,0.2,0,0.3,0.1c0.2,0,0.2,0.1,0.2,0C33.9,15.9,33.9,16.6,33.9,16.3z"/>
							<path fill="#676767" d="M33.9,17c0,0.1-0.1,0-0.2,0c-0.1,0.3-0.2-0.1-0.3-0.3c-0.1-0.2-0.2,0.1-0.4,0.3
								c-0.1-0.5-0.3-0.4-0.5,0c-0.1-0.5-0.2,0.3-0.3,0.1c-0.1,0.4-0.2,0.7-0.3-0.1c0-0.3-0.1-0.2-0.2-0.1c-0.1,0.1-0.1,0.4-0.2,0.4
								c-0.1,0-0.2-0.3-0.3-0.3c-0.1,0.3-0.2-0.3-0.3-0.1c-0.1-0.1-0.2,0.6-0.3,0.1c-0.1-0.5-0.1-0.4-0.2-0.6c-0.1,0-0.1,0-0.2,0.8
								c-0.1-0.2-0.1-0.1-0.2-0.2c-0.1,0.4-0.1,0.9-0.2,0.3c-0.1-0.1-0.1-0.6-0.2-0.6c-0.1-0.3-0.1-0.3-0.2,0.3
								c-0.1,0.7-0.3,0-0.4-0.1c-0.1-0.3-0.3-0.1-0.4,0.4c-0.1,0.6-0.3,0.4-0.4,0.1c-0.1-0.2-0.3-0.3-0.4,0.1
								c-0.1,0-0.1-0.4-0.2-0.1c-0.1,0.1-0.1-0.2-0.2-0.5c0,0.1-0.1,0.2-0.1,0.1c0,0.1-0.1-0.6-0.1-0.5c0,0-0.1,0.5-0.1,0.4
								c0-0.1-0.1-0.1-0.1-0.2c-0.1,0.3-0.2,0-0.2,0.3c-0.1-0.2-0.2-0.2-0.2-0.1c0-0.4-0.1,0.5-0.1,0.2c0,0.3-0.1,0.1-0.1-0.8
								c0-0.1-0.1-0.6-0.1-0.8c0-0.2-0.1-0.1-0.1,1.1c0,0.2-0.1-0.1-0.1-0.2c0-0.1-0.1-0.1-0.1,0.5c-0.1,0.8-0.2,0.1-0.2-0.1
								c-0.2-1-0.3-0.2-0.4-0.3c-0.1,1-0.3-0.6-0.4,0c-0.1-0.2-0.3-0.3-0.4,0c-0.1,0.9-0.3,0.6-0.4,0.2c-0.3-0.2-0.5,0-0.8-0.5
								c-0.2,1-0.5,0.6-0.7,0.5c-0.2-0.1-0.4-0.4-0.5-0.3c-0.2,0-0.3,0.1-0.4,0.3c-0.2,0.1-0.4,0-0.4,0c0-0.4,0-0.3,0-0.4
								c0-0.7,0.1-0.3,0.4,0c0.1,0,0.3-0.2,0.4-0.3c0.2,0.7,0.3,0.1,0.5,0.3c0.2,0.5,0.4,0.4,0.7,0.1c0.2,0,0.5,0.1,0.8-0.1
								c0.1-0.5,0.3-1.1,0.4,0c0.1-0.2,0.3,0.1,0.4,0c0.1,0.1,0.3,1.2,0.4,0.1c0.1-1.1,0.3,0.4,0.4-0.2c0.2-0.2,0.3,0,0.5-0.1
								c0.1-0.6,0.2-0.7,0.2-0.5c0.1,0.1,0.2,0.4,0.2,0.6c0.1,0.3,0.2,0.5,0.2,0.4c0.1-0.2,0.2-0.3,0.2-0.5c0.1-0.4,0.2-0.3,0.2,0.1
								c0.1,0.4,0.2,0.8,0.2,0.1c0.1,0.3,0.3,0.1,0.4,0.2c0.1-0.2,0.1-0.7,0.2-0.5c0.1,0,0.1-0.1,0.2-0.1c0.1,0.8,0.3-0.5,0.4-0.1
								c0.1,0.3,0.3,0.2,0.4,0.5c0-0.6,0.1-0.4,0.1-0.6c0-0.3,0.1-0.4,0.1-0.1c0.1,0,0.1,0.3,0.2,0.4c0.1-0.1,0.3-0.1,0.4-0.2
								c0.1,0.1,0.2,0,0.4,0.4c0.1,0.2,0.2-0.2,0.4,0.1c0.1,0.2,0.1,0.3,0.2,0.2c0.1,0.1,0.1-0.2,0.2-0.4c0.1-0.2,0.1,0.1,0.2,0.3
								c0.1,0.2,0.1,0.2,0.2-0.3c0.1,0.3,0.1,0.6,0.2,0.7c0.1,0.1,0.1-0.1,0.2-0.5c0.1,0.8,0.2-0.1,0.3,0c0.2,0.4,0.4,0.2,0.6,0
								c0.2-0.4,0.3,0.2,0.5,0c0.1,0.2,0.3,0,0.4,0.3c0.1-0.2,0.2,0.2,0.3-0.3c0.2,0.4,0.2,0.5,0.2,0C33.9,16.7,33.9,16.7,33.9,17z"
								/>
							<path fill="#676767" d="M33.9,18.1c0,0-0.1-0.5-0.4,0c-0.1,0.1-0.3,0.1-0.4,0c-0.2,0.2-0.3,0-0.5,0c-0.1,0.2-0.2,0.3-0.3,0.3
								c-0.1,0-0.2,0-0.3-0.3c-0.1,0.6-0.1,0.5-0.2,0.3c-0.1,0.1-0.1-0.5-0.2-0.3c-0.1-0.2-0.3-0.1-0.4-0.1
								c-0.1-0.7-0.3,1.1-0.4-0.1c-0.1,0.5-0.3-0.6-0.4,0c-0.1,0.3-0.3,0.7-0.4-0.1c-0.1,0-0.3-0.3-0.4,0.2c-0.2,0.1-0.3-0.3-0.5,0
								c-0.2,0.5-0.3-0.2-0.5,0c-0.2,0.2-0.3,0.2-0.5,0c-0.2,0.2-0.3,0.2-0.5,0c-0.2-0.4-0.3,0.3-0.5-0.3c-0.1,0.7-0.2,0.4-0.2,0.4
								c-0.1-0.2-0.2,0.3-0.2-0.1c-0.2,0.2-0.3-0.4-0.5,0.1c-0.2-0.2-0.3-0.2-0.5,0c-0.2,0.4-0.3,0-0.4,0c-0.1-0.1-0.3,0-0.4-0.1
								c-0.1,0-0.3,0.3-0.4-0.1c-0.1,0.2-0.3-0.2-0.4,0.2c-0.3,0.3-0.5,0.3-0.8,0.2c-0.2,0.4-0.5-0.1-0.7-0.2c-0.2-0.3-0.4,0-0.5,0
								c-0.2,0-0.3,0-0.4,0c-0.2,0.5-0.4,0.3-0.4,0c0-0.1,0-0.1,0-0.4c0-0.2,0.1,0.5,0.4,0c0.1,0.1,0.3,0,0.4-0.1
								c0.2,0,0.3,0,0.5,0.1c0.2-0.2,0.4,0.5,0.7-0.1c0.2-0.4,0.5-0.4,0.8,0.1c0.1,0,0.3,0.7,0.4,0.2c0.1,0.8,0.3,0.1,0.4,0
								c0.1-0.6,0.3-0.1,0.4,0c0.1-0.4,0.1-0.2,0.2,0c0.1,0.2,0.2,0.4,0.2-0.2c0.1,0.6,0.2,0.3,0.2,0.2c0.1,0.1,0.2-0.1,0.2-0.1
								c0.1-0.6,0.2-0.2,0.2,0c0.1,0.1,0.2,0.3,0.2-0.1c0.2,0.1,0.3-0.2,0.5,0c0.2,0.5,0.3-0.1,0.5,0c0.1-0.6,0.2-0.8,0.2-0.4
								c0.1-0.2,0.2-0.2,0.2,0c0.2,0.3,0.3,0.7,0.5,0.4c0.1-0.3,0.2,0,0.2,0c0.1,0,0.2,0.2,0.2-0.2c0.2,0.5,0.3-0.1,0.5,0.2
								c0.2,0.5,0.3,0.5,0.4,0c0.1,0,0.3,0,0.4-0.1c0.1,0.8,0.3,0,0.4,0.3c0.1,0.2,0.1,0.2,0.2,0.2c0.1-0.2,0.1-0.4,0.2-0.4
								c0.1,0.4,0.3,0.4,0.4,0.2c0.1-0.4,0.2,0,0.4-0.2c0.1,0.1,0.2,0,0.3,0s0.2-0.1,0.3,0c0.2-0.1,0.4-0.9,0.5-0.1
								c0.2-0.4,0.3,0.3,0.4,0.1c0.2-0.3,0.4-0.7,0.4,0C33.9,17.9,33.9,17.6,33.9,18.1z"/>
							<path fill="#676767" d="M33.9,19c0,0.3-0.1,0.3-0.2,0c-0.2,0-0.4-0.3-0.7,0c-0.1,0.1-0.3,0-0.5,0c-0.2,0.2-0.4,0.1-0.6,0
								c-0.1,0.6-0.2,0.4-0.3,0.2c-0.1-0.1-0.2,0-0.3-0.2c-0.1-0.5-0.1-0.1-0.2,0.1c-0.1-0.2-0.1,0.6-0.2,0
								c-0.1,0.2-0.2,0.1-0.3-0.1c-0.1-0.4-0.2-0.3-0.4-0.2c-0.1,0.1-0.2-0.2-0.4,0c-0.1-0.7-0.2,0.3-0.4,0
								c-0.1-0.1-0.3,0.2-0.4,0.2c-0.1,0.5-0.3,0.1-0.4-0.1c-0.1,0.2-0.3,0-0.4-0.2c-0.1-0.3-0.3-0.6-0.4,0
								c-0.1,0.3-0.3-0.6-0.4,0.3c-0.2,0.7-0.3,0-0.5,0.1c-0.2-1-0.3-0.1-0.5-0.1c-0.1,0.1-0.2,0.6-0.2-0.1
								c-0.1-0.4-0.2,0.2-0.2,0.3c-0.2,0-0.3,0.3-0.5-0.3c-0.2,0.2-0.3-0.1-0.4,0c-0.1-0.1-0.3,0.3-0.4,0c-0.1-0.1-0.3,0.3-0.4,0
								c-0.1,0-0.3,0.4-0.4,0c-0.3,0.4-0.5,0.4-0.8,0.3c-0.2,0-0.5-0.1-0.7-0.3c-0.2,0.5-0.4,0.2-0.5,0c-0.2-0.3-0.3-0.5-0.4,0
								c-0.2-0.1-0.4-0.1-0.4,0c0-0.3,0-1.4,0-0.4c0-0.5,0.1,0.3,0.4,0c0.1-0.2,0.3,0,0.4,0.1c0.2,0.2,0.3,0.3,0.5-0.1
								c0.2,0.4,0.4-0.3,0.7,0.2c0.2,0,0.5-0.5,0.8-0.2c0.1-0.5,0.3-1.3,0.4-0.3c0.1-0.4,0.3-0.4,0.4,0.1c0.1-0.2,0.3,0.6,0.4,0.2
								c0.1-0.1,0.3,0.5,0.4,0c0.2,0.2,0.3-0.2,0.5-0.3c0.2-0.1,0.3,0.2,0.5,0.2c0.2-0.5,0.3-0.2,0.5,0c0.2-0.4,0.3,0.2,0.5,0.1
								c0.1-0.1,0.3-0.7,0.4,0c0.1,0,0.3-0.1,0.4,0.2c0.1,0.2,0.3-0.1,0.4,0.1c0.1,0,0.3-0.3,0.4-0.3c0.1-0.1,0.3,0,0.4-0.1
								c0.1,0,0.3,0.3,0.4,0.1c0.1,0.9,0.2,0.4,0.4,0.1c0.1-0.8,0.2,0,0.4-0.1c0.1,0,0.2,0,0.3,0.1c0.1,0.6,0.1-0.1,0.2,0.2
								c0.1,0,0.1-0.7,0.2-0.3c0.1-0.2,0.1-0.6,0.2-0.6c0.1-0.1,0.1-0.1,0.2,0.4c0.1-0.2,0.2,0,0.3,0.1c0.2,0,0.4,0.4,0.6,0
								c0.2,0.4,0.3,0,0.5,0c0.1,0.2,0.3,0.1,0.4,0c0.1-0.1,0.2,0.1,0.3,0C33.8,18.8,33.8,18.9,33.9,19c0,0,0-0.1,0-0.4
								C33.9,18.9,33.9,19.2,33.9,19z"/>
							<path fill="#676767" d="M33.9,19.4c0,0-0.2,0.2-0.5,0c-0.2,0.1-0.4,0-0.6,0c-0.1,0.1-0.2,0.1-0.4,0.1
								c-0.1-0.1-0.3-0.3-0.4-0.1c-0.1-0.6-0.2-0.2-0.3-0.2c-0.1-0.1-0.2,0.7-0.3,0.2c-0.1,0.2-0.2-0.7-0.3,0.1
								c-0.1,0-0.2,0.4-0.3-0.1c-0.1-0.7-0.2-0.4-0.4,0c-0.1,0.1-0.2,0.2-0.4-0.1c-0.1-0.2-0.2-1.1-0.4-0.1
								c-0.1,0.5-0.3,0.4-0.4,0.2c-0.3-0.5-0.5,0.6-0.8,0.1c-0.3,0.1-0.5,0.4-0.8-0.1c-0.2-0.6-0.3-0.6-0.5,0
								c-0.2,0.2-0.3,0.7-0.5,0.1c-0.2,0.3-0.3-0.4-0.5-0.1c-0.1-0.5-0.2-0.2-0.2-0.3c-0.1,0-0.2,0.2-0.2,0.3
								c-0.2,0.2-0.3-0.4-0.4-0.1c-0.1-0.7-0.3-0.4-0.4,0c-0.1-0.2-0.3,0.2-0.4,0.1c-0.1-1.1-0.3-0.2-0.4,0
								c-0.3-0.1-0.5-0.2-0.8,0.1c-0.2,0-0.5,0.2-0.7-0.1c-0.2,0.2-0.4,0.3-0.5,0.3c-0.2,0-0.3-0.1-0.4-0.3c-0.2,0.1-0.4,0.5-0.4,0
								c0,0,0,0.3,0-0.4c0,0.4,0.1,0,0.4,0c0.1,0,0.3-0.1,0.4-0.1c0.2-0.1,0.3,0,0.5,0.1c0.2,0,0.4,0.1,0.7,0.2
								c0.2,0.3,0.5-0.8,0.8-0.2c0.1,0,0.3,0.3,0.4,0c0.1-0.1,0.3,0.6,0.4,0c0.1-0.1,0.3-0.3,0.4,0c0.1-0.3,0.3,0.3,0.4,0.1
								c0.2-0.4,0.3,0.2,0.5,0.1c0.1-0.7,0.2-0.3,0.2-0.2c0.1-0.2,0.2,0.2,0.2,0.1c0.2-0.2,0.3,0.8,0.5,0.2c0.2-0.5,0.3,0.2,0.5-0.3
								c0.1-0.2,0.3,0.3,0.4,0c0.1,0.2,0.3,0.3,0.4,0.1c0.1-0.3,0.3,1.1,0.4,0.1c0.1,0,0.3-0.1,0.4-0.2c0.1,0.3,0.3-0.2,0.4,0.2
								c0.1,0.1,0.3,0.6,0.4,0c0.1-0.2,0.2,0.1,0.4,0c0.1-0.4,0.1,0.8,0.2,0c0.1-0.2,0.1,0.6,0.2-0.2c0.1-0.4,0.2,0.1,0.3-0.3
								c0.1,0.4,0.2-0.1,0.3,0.2c0.1-0.2,0.2-0.1,0.3,0.2c0.1,0.1,0.2,0,0.3-0.1c0.1-0.1,0.2-0.1,0.3,0.2c0.1,0.1,0.2,0.1,0.3-0.2
								c0.2-0.5,0.3-0.1,0.5,0c0.1,0,0.3,0,0.4-0.1c0.1,0,0.2,0.1,0.3,0.1c0.2-0.1,0.2,0.4,0.2,0C33.9,18.8,33.9,19.4,33.9,19.4z"/>
						</g>
					</g>
				</g>
			</g>
			<rect x="25.8" y="26.1" fill="#676767" width="4.5" height="0.1"/>
		</g>
		<g>
			<g>
				<defs>
					<path id="SVGID_5_" d="M30.3,26.8h-4.5c-0.3,0-0.6-0.3-0.6-0.6c0-0.3,0.3-0.6,0.6-0.6h4.5c0.3,0,0.6,0.3,0.6,0.6
						C31,26.5,30.7,26.8,30.3,26.8z"/>
				</defs>
				<use xlink:href="#SVGID_5_"  overflow="visible" fill="#676767"/>
				<clipPath id="SVGID_6_">
					<use xlink:href="#SVGID_5_"  overflow="visible"/>
				</clipPath>
				<g clip-path="url(#SVGID_6_)">
					<g>
						<defs>
							<rect id="SVGID_7_" x="21.3" y="17.2" width="12.6" height="10.4"/>
						</defs>
						<use xlink:href="#SVGID_7_"  overflow="visible" fill="#676767"/>
						<clipPath id="SVGID_8_">
							<use xlink:href="#SVGID_7_"  overflow="visible"/>
						</clipPath>
						<g clip-path="url(#SVGID_8_)">
							<path fill="#676767" d="M33.9,25.3c0,0-0.2-0.1-0.6,0c-0.2,0.3-0.4,0.5-0.7-0.3c-0.3-0.5-0.5-0.1-0.8,0.3
								c-0.1-0.4-0.2,0.2-0.3,0c-0.1,0.6-0.2,0.3-0.3-0.1c-0.1-0.5-0.2-0.5-0.3-0.2c-0.1,0.2-0.2-1.1-0.4,0.3
								c-0.1-1.1-0.2-0.4-0.4,0.1c-0.1-0.6-0.3,0.5-0.4,0c-0.1,0.2-0.1,0.4-0.2,0.4c-0.1,0-0.1-0.2-0.2-0.4
								c-0.1-0.1-0.3-0.3-0.4-0.1c-0.1,0.2-0.1,0.2-0.2,0.4c-0.1,0-0.1,0-0.2-0.3c-0.1,0-0.3,0-0.4-0.4c-0.1,0.3-0.3-0.4-0.4-0.2
								c-0.1-0.1-0.3,0.3-0.4,0.5c-0.1-0.5-0.3,1-0.4-0.1c-0.1,0.7-0.3,0.3-0.4,0.2c-0.1,0.3-0.3-0.3-0.4,0
								c-0.1-0.7-0.3-0.4-0.4-0.1c-0.2,0-0.3-0.8-0.4,0c-0.1,0.1-0.3,0.2-0.4,0c-0.1-0.4-0.3-0.1-0.4,0c-0.1,0.2-0.3,0-0.4,0
								c-0.3,0.3-0.5-0.7-0.8,0c-0.2-0.2-0.5,0-0.7,0c-0.2,0-0.4,0.3-0.5,0.2c-0.2,0-0.3-0.1-0.4-0.2c-0.2,0.4-0.4-0.2-0.4,0
								c0,0.3,0-0.5,0-0.4c0-0.3,0.1-0.3,0.4,0c0.1-0.3,0.3-0.1,0.4,0c0.2-0.1,0.3,0.3,0.5,0c0.2,1.2,0.4,0.5,0.7,0.1
								c0.2-0.1,0.5,0.1,0.8-0.1c0.1,0.3,0.3-0.9,0.4-0.1c0.1-0.7,0.3-0.3,0.4,0c0.1,0,0.3,0.3,0.4,0.1c0.1-0.1,0.3,1.5,0.4,0
								c0.1-0.4,0.3-1.1,0.4-0.4c0.1-0.3,0.3,0.3,0.4,0.2c0.1,0.8,0.3,0.2,0.4-0.1c0.1-0.1,0.3-0.1,0.4,0.2c0.1,0.5,0.3,0.3,0.4,0.1
								c0.1-0.1,0.3-0.5,0.4,0c0.1-0.6,0.3,0.3,0.4,0c0.1,0.4,0.3,0.2,0.4-0.1c0.1,0.2,0.3,0.3,0.4,0c0.1,0.1,0.3-0.2,0.4-0.1
								c0.1-0.8,0.3,0.2,0.4,0c0.1,0.5,0.2-0.5,0.4,0.1c0.1,0.4,0.2,0.2,0.4,0.1c0.1-0.6,0.2,1.3,0.3-0.1c0.1-0.7,0.2,0.1,0.3,0.1
								c0.1-0.3,0.2-0.4,0.3-0.2c0.3-0.5,0.6-0.3,0.8,0.1c0.3-0.1,0.5-0.3,0.7-0.1c0.4-0.3,0.6,0.1,0.6,0
								C33.9,24.6,33.9,25,33.9,25.3z"/>
							<path fill="#676767" d="M33.9,26.2c0,0.2-0.1-0.1-0.2,0c-0.1-0.4-0.2,0.1-0.3,0c-0.1-0.2-0.2,0.7-0.4,0
								c-0.1,0.4-0.1,1-0.2,0.3c-0.1,0.9-0.2-0.3-0.3-0.3c-0.2,0.3-0.4,1.2-0.6,0c-0.1,0.3-0.2-1.3-0.3-0.2
								c-0.1,0.4-0.2,0.5-0.3,0.2c-0.2,0.4-0.4,0-0.7,0.1c-0.1,0-0.2-0.2-0.4-0.1c-0.1,0.4-0.1,0.5-0.2,0.2
								c-0.1-0.2-0.1-0.6-0.2-0.6c-0.1-0.3-0.1-0.4-0.2-0.3c-0.1,0-0.1,0.2-0.2,0.4c-0.1,0.5-0.3,0-0.4,0.4
								c-0.1-0.6-0.3-0.1-0.4-0.2c-0.1,0.2-0.3,0.7-0.4,0.2c-0.1,0.2-0.3,0.3-0.4,0.3c-0.1,0.3-0.1,0.2-0.2,0.2
								c-0.1,0.2-0.1-0.1-0.2-0.4c-0.2,0-0.3,0.4-0.5,0c-0.1,0.3-0.2,0.2-0.2,0.1c-0.1-0.2-0.2-0.5-0.2-0.2
								c-0.1,0.5-0.2,0.6-0.2,0.6c-0.1,0-0.2-0.2-0.2-0.6c-0.2-1.2-0.3-1-0.5,0c-0.2-0.8-0.3,0.3-0.4,0c-0.1-0.7-0.3,0.8-0.4,0.1
								c-0.1,0.6-0.3,0.1-0.4,0.1c-0.1,0.4-0.3,1.5-0.4-0.2c-0.3,0-0.5,0.2-0.8,0.1c-0.2-0.5-0.5,0.2-0.7-0.1
								c-0.2-0.5-0.4-0.1-0.5-0.1c-0.2,0-0.3,0-0.4,0.1c-0.2,0.1-0.4-0.4-0.4,0c0-0.3,0-0.2,0-0.4c0,0,0.1,0.5,0.4,0
								c0.1,0.4,0.3,0.3,0.4,0.2c0.2-0.4,0.3,0.4,0.5-0.2c0.2-0.1,0.4,0.4,0.7-0.1c0.2-0.4,0.5-0.1,0.8,0.1c0.1-1,0.3-0.7,0.4-0.2
								c0.1-0.9,0.3,1.4,0.4,0.2c0.1-0.2,0.3,0,0.4,0.3c0.1,0.1,0.3,0.3,0.4-0.3c0.2,0,0.3-0.1,0.5,0.3c0.1-0.3,0.2,0.5,0.2,0.2
								c0.1-0.1,0.2-0.1,0.2-0.4c0.1-0.7,0.2,0,0.2-0.3c0.1-0.1,0.2-0.4,0.2,0.2c0,0.8,0.1,0.4,0.1,0.4c0-0.2,0.1-0.3,0.1,0
								c0.1-0.1,0.2-0.7,0.2-0.2c0.1-0.4,0.3-0.5,0.4-0.4c0.1,0.3,0.3,0.2,0.4,0.1c0.1-0.4,0.3-0.3,0.4-0.1c0.1,0.2,0.3,0.5,0.4,0.4
								c0.1,0.4,0.3,0.5,0.4,0.3c0.1,0.5,0.1,0.4,0.2,0.4c0.1-0.1,0.1,0,0.2-0.2c0.1-0.3,0.2,0.1,0.4-0.3c0.1,0.2,0.1,0.2,0.2,0
								c0.1-0.2,0.1-0.4,0.2-0.3c0.1-0.4,0.2-0.2,0.3-0.1c0.1,0,0.2-0.3,0.3,0.1c0.1-0.3,0.2,0.4,0.3-0.2c0.1,0.8,0.2,0.1,0.3,0.2
								c0.1,0.4,0.2-0.1,0.3,0.2c0.1,0.1,0.2,0.2,0.3-0.2c0.2,0.3,0.3,0,0.5,0c0.1-0.1,0.3,0.4,0.4,0.1c0.1,0.5,0.2-0.1,0.3-0.1
								c0.2-0.4,0.2,0.2,0.2,0C33.9,25.9,33.9,26,33.9,26.2z"/>
							<path fill="#676767" d="M33.9,26.6c0-0.3-0.1,0.5-0.2,0c-0.1,0.2-0.2,0.6-0.3,0.2c-0.1,0.3-0.2,0.1-0.4-0.2
								c-0.1,0.1-0.1,0.1-0.2,0.4c-0.1,0-0.2-0.6-0.3-0.4c-0.1-0.1-0.2-0.5-0.3-0.4c-0.1,0-0.2,0.9-0.3,0.4
								c-0.1-0.2-0.2,0.4-0.3,0.3c-0.1,0.3-0.1,0.5-0.2,0.5c-0.1,0-0.1-0.2-0.2-0.6c-0.1,0.4-0.2-0.1-0.3,0.1
								c-0.1,0.5-0.2-0.5-0.3-0.2c-0.1,0.2-0.2,0.4-0.4,0.1c-0.1,0.2-0.1,0.4-0.2,0.3c-0.1-0.1-0.1-0.3-0.2-0.6
								c-0.1,0.4-0.2-0.2-0.4-0.1c-0.1-0.4-0.1-0.4-0.2,0c-0.1,0.3-0.1,0.9-0.2,0.4c-0.1-0.1-0.3-0.4-0.4-0.1
								c-0.1,0.9-0.3-0.1-0.4,0.2c-0.1-0.4-0.3,0.4-0.4,0.1c-0.1,0.4-0.3,0-0.4-0.2c0,0.5-0.1,0.7-0.1,0.7c0,0.1-0.1-0.4-0.1-0.1
								c0,0.2-0.1,0.1-0.1,0.2c0-0.1-0.1-0.1-0.1-0.4c-0.1,0.5-0.2,0.6-0.2,0.4c-0.1-0.2-0.2-0.3-0.2-0.9c-0.1,0.2-0.2-0.1-0.2-0.3
								c-0.1-0.1-0.2-0.2-0.2,0.3c-0.1,0-0.2,0.6-0.2,0.3c-0.1,0.9-0.2,0.4-0.2-0.3c-0.2-0.9-0.3-0.1-0.4,0
								c-0.1-0.9-0.3,0.5-0.4,0.2c-0.1-0.9-0.3,0.1-0.4,0c-0.1,0.4-0.3,0.3-0.4-0.2c-0.3-0.2-0.5-0.2-0.8,0.1
								c-0.2-0.3-0.5-0.8-0.7-0.1c-0.2,0.5-0.4-0.6-0.5-0.4c-0.2-0.1-0.3,0-0.4,0.4c-0.2,0.5-0.4-0.6-0.4,0c0,0.2,0-0.1,0-0.4
								c0,0.1,0.1,0.1,0.4,0c0.1-0.3,0.3-0.4,0.4-0.4c0.2,0.1,0.3-0.1,0.5,0.4c0.2,0.2,0.4-0.3,0.7,0.2c0.2-0.3,0.5,0.4,0.8-0.2
								c0.1-0.9,0.3,0.3,0.4,0c0.1-1.2,0.3,0,0.4,0c0.1,0.5,0.3,0.1,0.4-0.1c0.1-0.2,0.3,0,0.4,0.1c0.2-0.5,0.3,0.9,0.5,0.4
								c0.1,0.1,0.2,0.4,0.2,0.1c0.1-0.1,0.2-0.2,0.2-0.4c0.1-0.4,0.2-0.5,0.2-0.5c0.1,0,0.2,0.2,0.2,0.4c0.1,0.3,0.2-0.5,0.2-0.3
								c0,0.5,0.1,0.6,0.1,0.4c0,0,0.1-0.2,0.1-0.1c0.1-0.1,0.3-0.2,0.4-0.3c0.1,0.2,0.3,0.8,0.4,0.3c0.1-0.2,0.3,0.6,0.4,0.3
								c0.1-0.1,0.3,0.1,0.4-0.3c0.1,0.3,0.3,0,0.4,0.1c0.1-0.3,0.1-0.4,0.2-0.3c0.1-0.1,0.1,0.3,0.2,0.6c0.1,0.2,0.2-0.2,0.4-0.1
								c0.1,0,0.2,0.3,0.4-0.3c0.1,0.2,0.2-0.5,0.3,0.1c0.1-0.1,0.2,0.3,0.3,0c0.1,0.4,0.2,0.9,0.3,0c0.1-1.2,0.2-0.5,0.3-0.1
								c0.1-1.4,0.2,0.2,0.3-0.3c0.1-0.1,0.2,1.2,0.3,0.3c0.1-0.1,0.2-0.6,0.3-0.3c0.1,0.8,0.2,0.5,0.2,0.3c0.1-0.1,0.3-0.6,0.4-0.1
								c0.1-0.2,0.2,0,0.3,0.1c0.2,0,0.2,0.1,0.2,0C33.9,26.3,33.9,27,33.9,26.6z"/>
							<path fill="#676767" d="M33.9,27.4c0,0.1-0.1,0-0.2,0c-0.1,0.3-0.2-0.1-0.3-0.3c-0.1-0.2-0.2,0.1-0.4,0.3
								c-0.1-0.5-0.3-0.4-0.5,0c-0.1-0.5-0.2,0.3-0.3,0.1c-0.1,0.4-0.2,0.7-0.3-0.1c0-0.3-0.1-0.2-0.2-0.1c-0.1,0.1-0.1,0.4-0.2,0.4
								c-0.1,0-0.2-0.3-0.3-0.3c-0.1,0.3-0.2-0.3-0.3-0.1c-0.1-0.1-0.2,0.6-0.3,0.1c-0.1-0.5-0.1-0.4-0.2-0.6c-0.1,0-0.1,0-0.2,0.8
								c-0.1-0.2-0.1-0.1-0.2-0.2c-0.1,0.4-0.1,0.9-0.2,0.3c-0.1-0.1-0.1-0.6-0.2-0.6c-0.1-0.3-0.1-0.3-0.2,0.3
								c-0.1,0.7-0.3,0-0.4-0.1c-0.1-0.3-0.3-0.1-0.4,0.4c-0.1,0.6-0.3,0.4-0.4,0.1c-0.1-0.2-0.3-0.3-0.4,0.1
								c-0.1,0-0.1-0.4-0.2-0.1c-0.1,0.1-0.1-0.2-0.2-0.5c0,0.1-0.1,0.2-0.1,0.1c0,0.1-0.1-0.6-0.1-0.5c0,0-0.1,0.5-0.1,0.4
								c0-0.1-0.1-0.1-0.1-0.2c-0.1,0.3-0.2,0-0.2,0.3c-0.1-0.2-0.2-0.2-0.2-0.1c0-0.4-0.1,0.5-0.1,0.2c0,0.3-0.1,0.1-0.1-0.8
								c0-0.1-0.1-0.6-0.1-0.8c0-0.2-0.1-0.1-0.1,1.1c0,0.2-0.1-0.1-0.1-0.2c0-0.1-0.1-0.1-0.1,0.5c-0.1,0.8-0.2,0.1-0.2-0.1
								c-0.2-1-0.3-0.2-0.4-0.3c-0.1,1-0.3-0.6-0.4,0c-0.1-0.2-0.3-0.3-0.4,0c-0.1,0.9-0.3,0.6-0.4,0.2c-0.3-0.2-0.5,0-0.8-0.5
								c-0.2,1-0.5,0.6-0.7,0.5c-0.2-0.1-0.4-0.4-0.5-0.3c-0.2,0-0.3,0.1-0.4,0.3c-0.2,0.1-0.4,0-0.4,0c0-0.4,0-0.3,0-0.4
								c0-0.7,0.1-0.3,0.4,0c0.1,0,0.3-0.2,0.4-0.3c0.2,0.7,0.3,0.1,0.5,0.3c0.2,0.5,0.4,0.4,0.7,0.1c0.2,0,0.5,0.1,0.8-0.1
								c0.1-0.5,0.3-1.1,0.4,0c0.1-0.2,0.3,0.1,0.4,0c0.1,0.1,0.3,1.2,0.4,0.1c0.1-1.1,0.3,0.4,0.4-0.2c0.2-0.2,0.3,0,0.5-0.1
								c0.1-0.6,0.2-0.7,0.2-0.5c0.1,0.1,0.2,0.4,0.2,0.6c0.1,0.3,0.2,0.5,0.2,0.4c0.1-0.2,0.2-0.3,0.2-0.5c0.1-0.4,0.2-0.3,0.2,0.1
								c0.1,0.4,0.2,0.8,0.2,0.1c0.1,0.3,0.3,0.1,0.4,0.2c0.1-0.2,0.1-0.7,0.2-0.5c0.1,0,0.1-0.1,0.2-0.1c0.1,0.8,0.3-0.5,0.4-0.1
								c0.1,0.3,0.3,0.2,0.4,0.5c0-0.6,0.1-0.4,0.1-0.6c0-0.3,0.1-0.4,0.1-0.1c0.1,0,0.1,0.3,0.2,0.4c0.1-0.1,0.3-0.1,0.4-0.2
								c0.1,0.1,0.2,0,0.4,0.4c0.1,0.2,0.2-0.2,0.4,0.1c0.1,0.2,0.1,0.3,0.2,0.2c0.1,0.1,0.1-0.2,0.2-0.4c0.1-0.2,0.1,0.1,0.2,0.3
								c0.1,0.2,0.1,0.2,0.2-0.3c0.1,0.3,0.1,0.6,0.2,0.7s0.1-0.1,0.2-0.5c0.1,0.8,0.2-0.1,0.3,0c0.2,0.4,0.4,0.2,0.6,0
								c0.2-0.4,0.3,0.2,0.5,0c0.1,0.2,0.3,0,0.4,0.3c0.1-0.2,0.2,0.2,0.3-0.3c0.2,0.4,0.2,0.5,0.2,0C33.9,27.1,33.9,27.1,33.9,27.4
								z"/>
							<path fill="#676767" d="M33.9,28.5c0,0-0.1-0.5-0.4,0c-0.1,0.1-0.3,0.1-0.4,0c-0.2,0.2-0.3,0-0.5,0c-0.1,0.2-0.2,0.3-0.3,0.3
								c-0.1,0-0.2,0-0.3-0.3c-0.1,0.6-0.1,0.5-0.2,0.3c-0.1,0.1-0.1-0.5-0.2-0.3c-0.1-0.2-0.3-0.1-0.4-0.1
								c-0.1-0.7-0.3,1.1-0.4-0.1c-0.1,0.5-0.3-0.6-0.4,0c-0.1,0.3-0.3,0.7-0.4-0.1c-0.1,0-0.3-0.3-0.4,0.2c-0.2,0.1-0.3-0.3-0.5,0
								c-0.2,0.5-0.3-0.2-0.5,0c-0.2,0.2-0.3,0.2-0.5,0c-0.2,0.2-0.3,0.2-0.5,0c-0.2-0.4-0.3,0.3-0.5-0.3c-0.1,0.7-0.2,0.4-0.2,0.4
								c-0.1-0.2-0.2,0.3-0.2-0.1c-0.2,0.2-0.3-0.4-0.5,0.1c-0.2-0.2-0.3-0.2-0.5,0c-0.2,0.4-0.3,0-0.4,0c-0.1-0.1-0.3,0-0.4-0.1
								c-0.1,0-0.3,0.3-0.4-0.1c-0.1,0.2-0.3-0.2-0.4,0.2c-0.3,0.3-0.5,0.3-0.8,0.2c-0.2,0.4-0.5-0.1-0.7-0.2c-0.2-0.3-0.4,0-0.5,0
								c-0.2,0-0.3,0-0.4,0c-0.2,0.5-0.4,0.3-0.4,0c0-0.1,0-0.1,0-0.4c0-0.2,0.1,0.5,0.4,0c0.1,0.1,0.3,0,0.4-0.1
								c0.2,0,0.3,0,0.5,0.1c0.2-0.2,0.4,0.5,0.7-0.1c0.2-0.4,0.5-0.4,0.8,0.1c0.1,0,0.3,0.7,0.4,0.2c0.1,0.8,0.3,0.1,0.4,0
								c0.1-0.6,0.3-0.1,0.4,0c0.1-0.4,0.1-0.2,0.2,0c0.1,0.2,0.2,0.4,0.2-0.2c0.1,0.6,0.2,0.3,0.2,0.2c0.1,0.1,0.2-0.1,0.2-0.1
								c0.1-0.6,0.2-0.2,0.2,0c0.1,0.1,0.2,0.3,0.2-0.1c0.2,0.1,0.3-0.2,0.5,0c0.2,0.5,0.3-0.1,0.5,0c0.1-0.6,0.2-0.8,0.2-0.4
								c0.1-0.2,0.2-0.2,0.2,0c0.2,0.3,0.3,0.7,0.5,0.4c0.1-0.3,0.2,0,0.2,0c0.1,0,0.2,0.2,0.2-0.2c0.2,0.5,0.3-0.1,0.5,0.2
								c0.2,0.5,0.3,0.5,0.4,0c0.1,0,0.3,0,0.4-0.1c0.1,0.8,0.3,0,0.4,0.3c0.1,0.2,0.1,0.2,0.2,0.2c0.1-0.2,0.1-0.4,0.2-0.4
								c0.1,0.4,0.3,0.4,0.4,0.2c0.1-0.4,0.2,0,0.4-0.2c0.1,0.1,0.2,0,0.3,0c0.1-0.1,0.2-0.1,0.3,0c0.2-0.1,0.4-0.9,0.5-0.1
								c0.2-0.4,0.3,0.3,0.4,0.1c0.2-0.3,0.4-0.7,0.4,0C33.9,28.3,33.9,27.9,33.9,28.5z"/>
						</g>
						<g clip-path="url(#SVGID_8_)">
							<path fill="#676767" d="M33.9,20.1c0,0-0.2-0.1-0.6,0c-0.2,0.3-0.4,0.5-0.7-0.3c-0.3-0.5-0.5-0.1-0.8,0.3
								c-0.1-0.4-0.2,0.2-0.3,0c-0.1,0.6-0.2,0.3-0.3-0.1c-0.1-0.5-0.2-0.5-0.3-0.2c-0.1,0.2-0.2-1.1-0.4,0.3
								c-0.1-1.1-0.2-0.4-0.4,0.1c-0.1-0.6-0.3,0.5-0.4,0c-0.1,0.2-0.1,0.4-0.2,0.4c-0.1,0-0.1-0.2-0.2-0.4
								c-0.1-0.1-0.3-0.3-0.4-0.1c-0.1,0.2-0.1,0.2-0.2,0.4c-0.1,0-0.1,0-0.2-0.3c-0.1,0-0.3,0-0.4-0.4c-0.1,0.3-0.3-0.4-0.4-0.2
								c-0.1-0.1-0.3,0.3-0.4,0.5c-0.1-0.5-0.3,1-0.4-0.1c-0.1,0.7-0.3,0.3-0.4,0.2c-0.1,0.3-0.3-0.3-0.4,0
								c-0.1-0.7-0.3-0.4-0.4-0.1c-0.2,0-0.3-0.8-0.4,0c-0.1,0.1-0.3,0.2-0.4,0c-0.1-0.4-0.3-0.1-0.4,0c-0.1,0.2-0.3,0-0.4,0
								c-0.3,0.3-0.5-0.7-0.8,0c-0.2-0.2-0.5,0-0.7,0c-0.2,0-0.4,0.3-0.5,0.2c-0.2,0-0.3-0.1-0.4-0.2c-0.2,0.4-0.4-0.2-0.4,0
								c0,0.3,0-0.5,0-0.4c0-0.3,0.1-0.3,0.4,0c0.1-0.3,0.3-0.1,0.4,0c0.2-0.1,0.3,0.3,0.5,0c0.2,1.2,0.4,0.5,0.7,0.1
								c0.2-0.1,0.5,0.1,0.8-0.1c0.1,0.3,0.3-0.9,0.4-0.1c0.1-0.7,0.3-0.3,0.4,0c0.1,0,0.3,0.3,0.4,0.1c0.1-0.1,0.3,1.5,0.4,0
								c0.1-0.4,0.3-1.1,0.4-0.4c0.1-0.3,0.3,0.3,0.4,0.2c0.1,0.8,0.3,0.2,0.4-0.1c0.1-0.1,0.3-0.1,0.4,0.2c0.1,0.5,0.3,0.3,0.4,0.1
								c0.1-0.1,0.3-0.5,0.4,0c0.1-0.6,0.3,0.3,0.4,0c0.1,0.4,0.3,0.2,0.4-0.1c0.1,0.2,0.3,0.3,0.4,0c0.1,0.1,0.3-0.2,0.4-0.1
								c0.1-0.8,0.3,0.2,0.4,0c0.1,0.5,0.2-0.5,0.4,0.1c0.1,0.4,0.2,0.2,0.4,0.1c0.1-0.6,0.2,1.3,0.3-0.1c0.1-0.7,0.2,0.1,0.3,0.1
								c0.1-0.3,0.2-0.4,0.3-0.2c0.3-0.5,0.6-0.3,0.8,0.1c0.3-0.1,0.5-0.3,0.7-0.1c0.4-0.3,0.6,0.1,0.6,0
								C33.9,19.4,33.9,19.8,33.9,20.1z"/>
							<path fill="#676767" d="M33.9,21c0,0.2-0.1-0.1-0.2,0c-0.1-0.4-0.2,0.1-0.3,0c-0.1-0.2-0.2,0.7-0.4,0c-0.1,0.4-0.1,1-0.2,0.3
								c-0.1,0.9-0.2-0.3-0.3-0.3c-0.2,0.3-0.4,1.2-0.6,0c-0.1,0.3-0.2-1.3-0.3-0.2c-0.1,0.4-0.2,0.5-0.3,0.2
								c-0.2,0.4-0.4,0-0.7,0.1c-0.1,0-0.2-0.2-0.4-0.1c-0.1,0.4-0.1,0.5-0.2,0.2c-0.1-0.2-0.1-0.6-0.2-0.6
								c-0.1-0.3-0.1-0.4-0.2-0.3c-0.1,0-0.1,0.2-0.2,0.4c-0.1,0.5-0.3,0-0.4,0.4c-0.1-0.6-0.3-0.1-0.4-0.2
								c-0.1,0.2-0.3,0.7-0.4,0.2c-0.1,0.2-0.3,0.3-0.4,0.3c-0.1,0.3-0.1,0.2-0.2,0.2c-0.1,0.2-0.1-0.1-0.2-0.4
								c-0.2,0-0.3,0.4-0.5,0c-0.1,0.3-0.2,0.2-0.2,0.1c-0.1-0.2-0.2-0.5-0.2-0.2c-0.1,0.5-0.2,0.6-0.2,0.6c-0.1,0-0.2-0.2-0.2-0.6
								c-0.2-1.2-0.3-1-0.5,0c-0.2-0.8-0.3,0.3-0.4,0c-0.1-0.7-0.3,0.8-0.4,0.1c-0.1,0.6-0.3,0.1-0.4,0.1c-0.1,0.4-0.3,1.5-0.4-0.2
								c-0.3,0-0.5,0.2-0.8,0.1c-0.2-0.5-0.5,0.2-0.7-0.1c-0.2-0.5-0.4-0.1-0.5-0.1c-0.2,0-0.3,0-0.4,0.1c-0.2,0.1-0.4-0.4-0.4,0
								c0-0.3,0-0.2,0-0.4c0,0,0.1,0.5,0.4,0c0.1,0.4,0.3,0.3,0.4,0.2c0.2-0.4,0.3,0.4,0.5-0.2c0.2-0.1,0.4,0.4,0.7-0.1
								c0.2-0.4,0.5-0.1,0.8,0.1c0.1-1,0.3-0.7,0.4-0.2c0.1-0.9,0.3,1.4,0.4,0.2c0.1-0.2,0.3,0,0.4,0.3c0.1,0.1,0.3,0.3,0.4-0.3
								c0.2,0,0.3-0.1,0.5,0.3c0.1-0.3,0.2,0.5,0.2,0.2c0.1-0.1,0.2-0.1,0.2-0.4c0.1-0.7,0.2,0,0.2-0.3c0.1-0.1,0.2-0.4,0.2,0.2
								c0,0.8,0.1,0.4,0.1,0.4c0-0.2,0.1-0.3,0.1,0c0.1-0.1,0.2-0.7,0.2-0.2c0.1-0.4,0.3-0.5,0.4-0.4c0.1,0.3,0.3,0.2,0.4,0.1
								c0.1-0.4,0.3-0.3,0.4-0.1c0.1,0.2,0.3,0.5,0.4,0.4c0.1,0.4,0.3,0.5,0.4,0.3c0.1,0.5,0.1,0.4,0.2,0.4c0.1-0.1,0.1,0,0.2-0.2
								c0.1-0.3,0.2,0.1,0.4-0.3c0.1,0.2,0.1,0.2,0.2,0c0.1-0.2,0.1-0.4,0.2-0.3c0.1-0.4,0.2-0.2,0.3-0.1c0.1,0,0.2-0.3,0.3,0.1
								c0.1-0.3,0.2,0.4,0.3-0.2c0.1,0.8,0.2,0.1,0.3,0.2c0.1,0.4,0.2-0.1,0.3,0.2c0.1,0.1,0.2,0.2,0.3-0.2c0.2,0.3,0.3,0,0.5,0
								c0.1-0.1,0.3,0.4,0.4,0.1c0.1,0.5,0.2-0.1,0.3-0.1c0.2-0.4,0.2,0.2,0.2,0C33.9,20.7,33.9,20.8,33.9,21z"/>
							<path fill="#676767" d="M33.9,21.4c0-0.3-0.1,0.5-0.2,0c-0.1,0.2-0.2,0.6-0.3,0.2c-0.1,0.3-0.2,0.1-0.4-0.2
								c-0.1,0.1-0.1,0.1-0.2,0.4c-0.1,0-0.2-0.6-0.3-0.4c-0.1-0.1-0.2-0.5-0.3-0.4c-0.1,0-0.2,0.9-0.3,0.4
								c-0.1-0.2-0.2,0.4-0.3,0.3c-0.1,0.3-0.1,0.5-0.2,0.5c-0.1,0-0.1-0.2-0.2-0.6c-0.1,0.4-0.2-0.1-0.3,0.1
								c-0.1,0.5-0.2-0.5-0.3-0.2c-0.1,0.2-0.2,0.4-0.4,0.1c-0.1,0.2-0.1,0.4-0.2,0.3c-0.1-0.1-0.1-0.3-0.2-0.6
								c-0.1,0.4-0.2-0.2-0.4-0.1c-0.1-0.4-0.1-0.4-0.2,0c-0.1,0.3-0.1,0.9-0.2,0.4c-0.1-0.1-0.3-0.4-0.4-0.1
								c-0.1,0.9-0.3-0.1-0.4,0.2c-0.1-0.4-0.3,0.4-0.4,0.1c-0.1,0.4-0.3,0-0.4-0.2c0,0.5-0.1,0.7-0.1,0.7c0,0.1-0.1-0.4-0.1-0.1
								c0,0.2-0.1,0.1-0.1,0.2c0-0.1-0.1-0.1-0.1-0.4c-0.1,0.5-0.2,0.6-0.2,0.4c-0.1-0.2-0.2-0.3-0.2-0.9c-0.1,0.2-0.2-0.1-0.2-0.3
								c-0.1-0.1-0.2-0.2-0.2,0.3c-0.1,0-0.2,0.6-0.2,0.3c-0.1,0.9-0.2,0.4-0.2-0.3c-0.2-0.9-0.3-0.1-0.4,0
								c-0.1-0.9-0.3,0.5-0.4,0.2c-0.1-0.9-0.3,0.1-0.4,0c-0.1,0.4-0.3,0.3-0.4-0.2c-0.3-0.2-0.5-0.2-0.8,0.1
								c-0.2-0.3-0.5-0.8-0.7-0.1c-0.2,0.5-0.4-0.6-0.5-0.4c-0.2-0.1-0.3,0-0.4,0.4c-0.2,0.5-0.4-0.6-0.4,0c0,0.2,0-0.1,0-0.4
								c0,0.1,0.1,0.1,0.4,0c0.1-0.3,0.3-0.4,0.4-0.4c0.2,0.1,0.3-0.1,0.5,0.4c0.2,0.2,0.4-0.3,0.7,0.2c0.2-0.3,0.5,0.4,0.8-0.2
								c0.1-0.9,0.3,0.3,0.4,0c0.1-1.2,0.3,0,0.4,0c0.1,0.5,0.3,0.1,0.4-0.1c0.1-0.2,0.3,0,0.4,0.1c0.2-0.5,0.3,0.9,0.5,0.4
								c0.1,0.1,0.2,0.4,0.2,0.1c0.1-0.1,0.2-0.2,0.2-0.4c0.1-0.4,0.2-0.5,0.2-0.5c0.1,0,0.2,0.2,0.2,0.4c0.1,0.3,0.2-0.5,0.2-0.3
								c0,0.5,0.1,0.6,0.1,0.4c0,0,0.1-0.2,0.1-0.1c0.1-0.1,0.3-0.2,0.4-0.3c0.1,0.2,0.3,0.8,0.4,0.3c0.1-0.2,0.3,0.6,0.4,0.3
								c0.1-0.1,0.3,0.1,0.4-0.3c0.1,0.3,0.3,0,0.4,0.1c0.1-0.3,0.1-0.4,0.2-0.3c0.1-0.1,0.1,0.3,0.2,0.6c0.1,0.2,0.2-0.2,0.4-0.1
								c0.1,0,0.2,0.3,0.4-0.3c0.1,0.2,0.2-0.5,0.3,0.1c0.1-0.1,0.2,0.3,0.3,0c0.1,0.4,0.2,0.9,0.3,0c0.1-1.2,0.2-0.5,0.3-0.1
								c0.1-1.4,0.2,0.2,0.3-0.3c0.1-0.1,0.2,1.2,0.3,0.3c0.1-0.1,0.2-0.6,0.3-0.3c0.1,0.8,0.2,0.5,0.2,0.3c0.1-0.1,0.3-0.6,0.4-0.1
								c0.1-0.2,0.2,0,0.3,0.1c0.2,0,0.2,0.1,0.2,0C33.9,21.1,33.9,21.8,33.9,21.4z"/>
							<path fill="#676767" d="M33.9,22.2c0,0.1-0.1,0-0.2,0c-0.1,0.3-0.2-0.1-0.3-0.3c-0.1-0.2-0.2,0.1-0.4,0.3
								c-0.1-0.5-0.3-0.4-0.5,0c-0.1-0.5-0.2,0.3-0.3,0.1c-0.1,0.4-0.2,0.7-0.3-0.1c0-0.3-0.1-0.2-0.2-0.1c-0.1,0.1-0.1,0.4-0.2,0.4
								c-0.1,0-0.2-0.3-0.3-0.3c-0.1,0.3-0.2-0.3-0.3-0.1c-0.1-0.1-0.2,0.6-0.3,0.1c-0.1-0.5-0.1-0.4-0.2-0.6c-0.1,0-0.1,0-0.2,0.8
								c-0.1-0.2-0.1-0.1-0.2-0.2c-0.1,0.4-0.1,0.9-0.2,0.3c-0.1-0.1-0.1-0.6-0.2-0.6c-0.1-0.3-0.1-0.3-0.2,0.3
								c-0.1,0.7-0.3,0-0.4-0.1c-0.1-0.3-0.3-0.1-0.4,0.4c-0.1,0.6-0.3,0.4-0.4,0.1c-0.1-0.2-0.3-0.3-0.4,0.1
								c-0.1,0-0.1-0.4-0.2-0.1c-0.1,0.1-0.1-0.2-0.2-0.5c0,0.1-0.1,0.2-0.1,0.1c0,0.1-0.1-0.6-0.1-0.5c0,0-0.1,0.5-0.1,0.4
								c0-0.1-0.1-0.1-0.1-0.2c-0.1,0.3-0.2,0-0.2,0.3c-0.1-0.2-0.2-0.2-0.2-0.1c0-0.4-0.1,0.5-0.1,0.2c0,0.3-0.1,0.1-0.1-0.8
								c0-0.1-0.1-0.6-0.1-0.8c0-0.2-0.1-0.1-0.1,1.1c0,0.2-0.1-0.1-0.1-0.2c0-0.1-0.1-0.1-0.1,0.5c-0.1,0.8-0.2,0.1-0.2-0.1
								c-0.2-1-0.3-0.2-0.4-0.3c-0.1,1-0.3-0.6-0.4,0c-0.1-0.2-0.3-0.3-0.4,0c-0.1,0.9-0.3,0.6-0.4,0.2c-0.3-0.2-0.5,0-0.8-0.5
								c-0.2,1-0.5,0.6-0.7,0.5c-0.2-0.1-0.4-0.4-0.5-0.3c-0.2,0-0.3,0.1-0.4,0.3c-0.2,0.1-0.4,0-0.4,0c0-0.4,0-0.3,0-0.4
								c0-0.7,0.1-0.3,0.4,0c0.1,0,0.3-0.2,0.4-0.3c0.2,0.7,0.3,0.1,0.5,0.3c0.2,0.5,0.4,0.4,0.7,0.1c0.2,0,0.5,0.1,0.8-0.1
								c0.1-0.5,0.3-1.1,0.4,0c0.1-0.2,0.3,0.1,0.4,0c0.1,0.1,0.3,1.2,0.4,0.1c0.1-1.1,0.3,0.4,0.4-0.2c0.2-0.2,0.3,0,0.5-0.1
								c0.1-0.6,0.2-0.7,0.2-0.5c0.1,0.1,0.2,0.4,0.2,0.6c0.1,0.3,0.2,0.5,0.2,0.4c0.1-0.2,0.2-0.3,0.2-0.5c0.1-0.4,0.2-0.3,0.2,0.1
								c0.1,0.4,0.2,0.8,0.2,0.1c0.1,0.3,0.3,0.1,0.4,0.2c0.1-0.2,0.1-0.7,0.2-0.5c0.1,0,0.1-0.1,0.2-0.1c0.1,0.8,0.3-0.5,0.4-0.1
								c0.1,0.3,0.3,0.2,0.4,0.5c0-0.6,0.1-0.4,0.1-0.6c0-0.3,0.1-0.4,0.1-0.1c0.1,0,0.1,0.3,0.2,0.4c0.1-0.1,0.3-0.1,0.4-0.2
								c0.1,0.1,0.2,0,0.4,0.4c0.1,0.2,0.2-0.2,0.4,0.1c0.1,0.2,0.1,0.3,0.2,0.2c0.1,0.1,0.1-0.2,0.2-0.4c0.1-0.2,0.1,0.1,0.2,0.3
								c0.1,0.2,0.1,0.2,0.2-0.3c0.1,0.3,0.1,0.6,0.2,0.7s0.1-0.1,0.2-0.5c0.1,0.8,0.2-0.1,0.3,0c0.2,0.4,0.4,0.2,0.6,0
								c0.2-0.4,0.3,0.2,0.5,0c0.1,0.2,0.3,0,0.4,0.3c0.1-0.2,0.2,0.2,0.3-0.3c0.2,0.4,0.2,0.5,0.2,0C33.9,21.9,33.9,21.9,33.9,22.2
								z"/>
							<path fill="#676767" d="M33.9,23.3c0,0-0.1-0.5-0.4,0c-0.1,0.1-0.3,0.1-0.4,0c-0.2,0.2-0.3,0-0.5,0c-0.1,0.2-0.2,0.3-0.3,0.3
								c-0.1,0-0.2,0-0.3-0.3c-0.1,0.6-0.1,0.5-0.2,0.3c-0.1,0.1-0.1-0.5-0.2-0.3c-0.1-0.2-0.3-0.1-0.4-0.1
								c-0.1-0.7-0.3,1.1-0.4-0.1c-0.1,0.5-0.3-0.6-0.4,0c-0.1,0.3-0.3,0.7-0.4-0.1c-0.1,0-0.3-0.3-0.4,0.2c-0.2,0.1-0.3-0.3-0.5,0
								c-0.2,0.5-0.3-0.2-0.5,0c-0.2,0.2-0.3,0.2-0.5,0c-0.2,0.2-0.3,0.2-0.5,0c-0.2-0.4-0.3,0.3-0.5-0.3c-0.1,0.7-0.2,0.4-0.2,0.4
								c-0.1-0.2-0.2,0.3-0.2-0.1c-0.2,0.2-0.3-0.4-0.5,0.1c-0.2-0.2-0.3-0.2-0.5,0c-0.2,0.4-0.3,0-0.4,0c-0.1-0.1-0.3,0-0.4-0.1
								c-0.1,0-0.3,0.3-0.4-0.1c-0.1,0.2-0.3-0.2-0.4,0.2c-0.3,0.3-0.5,0.3-0.8,0.2c-0.2,0.4-0.5-0.1-0.7-0.2c-0.2-0.3-0.4,0-0.5,0
								c-0.2,0-0.3,0-0.4,0c-0.2,0.5-0.4,0.3-0.4,0c0-0.1,0-0.1,0-0.4c0-0.2,0.1,0.5,0.4,0c0.1,0.1,0.3,0,0.4-0.1
								c0.2,0,0.3,0,0.5,0.1c0.2-0.2,0.4,0.5,0.7-0.1c0.2-0.4,0.5-0.4,0.8,0.1c0.1,0,0.3,0.7,0.4,0.2c0.1,0.8,0.3,0.1,0.4,0
								c0.1-0.6,0.3-0.1,0.4,0c0.1-0.4,0.1-0.2,0.2,0c0.1,0.2,0.2,0.4,0.2-0.2c0.1,0.6,0.2,0.3,0.2,0.2c0.1,0.1,0.2-0.1,0.2-0.1
								c0.1-0.6,0.2-0.2,0.2,0c0.1,0.1,0.2,0.3,0.2-0.1c0.2,0.1,0.3-0.2,0.5,0c0.2,0.5,0.3-0.1,0.5,0c0.1-0.6,0.2-0.8,0.2-0.4
								c0.1-0.2,0.2-0.2,0.2,0c0.2,0.3,0.3,0.7,0.5,0.4c0.1-0.3,0.2,0,0.2,0c0.1,0,0.2,0.2,0.2-0.2c0.2,0.5,0.3-0.1,0.5,0.2
								c0.2,0.5,0.3,0.5,0.4,0c0.1,0,0.3,0,0.4-0.1c0.1,0.8,0.3,0,0.4,0.3c0.1,0.2,0.1,0.2,0.2,0.2c0.1-0.2,0.1-0.4,0.2-0.4
								c0.1,0.4,0.3,0.4,0.4,0.2c0.1-0.4,0.2,0,0.4-0.2c0.1,0.1,0.2,0,0.3,0c0.1-0.1,0.2-0.1,0.3,0c0.2-0.1,0.4-0.9,0.5-0.1
								c0.2-0.4,0.3,0.3,0.4,0.1c0.2-0.3,0.4-0.7,0.4,0C33.9,23.1,33.9,22.8,33.9,23.3z"/>
							<path fill="#676767" d="M33.9,24.2c0,0.3-0.1,0.3-0.2,0c-0.2,0-0.4-0.3-0.7,0c-0.1,0.1-0.3,0-0.5,0c-0.2,0.2-0.4,0.1-0.6,0
								c-0.1,0.6-0.2,0.4-0.3,0.2c-0.1-0.1-0.2,0-0.3-0.2c-0.1-0.5-0.1-0.1-0.2,0.1c-0.1-0.2-0.1,0.6-0.2,0
								c-0.1,0.2-0.2,0.1-0.3-0.1c-0.1-0.4-0.2-0.3-0.4-0.2c-0.1,0.1-0.2-0.2-0.4,0c-0.1-0.7-0.2,0.3-0.4,0
								c-0.1-0.1-0.3,0.2-0.4,0.2c-0.1,0.5-0.3,0.1-0.4-0.1c-0.1,0.2-0.3,0-0.4-0.2c-0.1-0.3-0.3-0.6-0.4,0
								c-0.1,0.3-0.3-0.6-0.4,0.3c-0.2,0.7-0.3,0-0.5,0.1c-0.2-1-0.3-0.1-0.5-0.1c-0.1,0.1-0.2,0.6-0.2-0.1
								c-0.1-0.4-0.2,0.2-0.2,0.3c-0.2,0-0.3,0.3-0.5-0.3c-0.2,0.2-0.3-0.1-0.4,0c-0.1-0.1-0.3,0.3-0.4,0c-0.1-0.1-0.3,0.3-0.4,0
								c-0.1,0-0.3,0.4-0.4,0c-0.3,0.4-0.5,0.4-0.8,0.3c-0.2,0-0.5-0.1-0.7-0.3c-0.2,0.5-0.4,0.2-0.5,0c-0.2-0.3-0.3-0.5-0.4,0
								c-0.2-0.1-0.4-0.1-0.4,0c0-0.3,0-1.4,0-0.4c0-0.5,0.1,0.3,0.4,0c0.1-0.2,0.3,0,0.4,0.1c0.2,0.2,0.3,0.3,0.5-0.1
								c0.2,0.4,0.4-0.3,0.7,0.2c0.2,0,0.5-0.5,0.8-0.2c0.1-0.5,0.3-1.3,0.4-0.3c0.1-0.4,0.3-0.4,0.4,0.1c0.1-0.2,0.3,0.6,0.4,0.2
								c0.1-0.1,0.3,0.5,0.4,0c0.2,0.2,0.3-0.2,0.5-0.3c0.2-0.1,0.3,0.2,0.5,0.2c0.2-0.5,0.3-0.2,0.5,0c0.2-0.4,0.3,0.2,0.5,0.1
								c0.1-0.1,0.3-0.7,0.4,0c0.1,0,0.3-0.1,0.4,0.2c0.1,0.2,0.3-0.1,0.4,0.1c0.1,0,0.3-0.3,0.4-0.3c0.1-0.1,0.3,0,0.4-0.1
								c0.1,0,0.3,0.3,0.4,0.1c0.1,0.9,0.2,0.4,0.4,0.1c0.1-0.8,0.2,0,0.4-0.1c0.1,0,0.2,0,0.3,0.1c0.1,0.6,0.1-0.1,0.2,0.2
								c0.1,0,0.1-0.7,0.2-0.3c0.1-0.2,0.1-0.6,0.2-0.6c0.1-0.1,0.1-0.1,0.2,0.4c0.1-0.2,0.2,0,0.3,0.1c0.2,0,0.4,0.4,0.6,0
								c0.2,0.4,0.3,0,0.5,0c0.1,0.2,0.3,0.1,0.4,0c0.1-0.1,0.2,0.1,0.3,0C33.8,24,33.8,24.1,33.9,24.2c0,0,0-0.1,0-0.4
								C33.9,24.1,33.9,24.4,33.9,24.2z"/>
							<path fill="#676767" d="M33.9,24.6c0,0-0.2,0.2-0.5,0c-0.2,0.1-0.4,0-0.6,0c-0.1,0.1-0.2,0.1-0.4,0.1
								c-0.1-0.1-0.3-0.3-0.4-0.1c-0.1-0.6-0.2-0.2-0.3-0.2c-0.1-0.1-0.2,0.7-0.3,0.2c-0.1,0.2-0.2-0.7-0.3,0.1
								c-0.1,0-0.2,0.4-0.3-0.1c-0.1-0.7-0.2-0.4-0.4,0c-0.1,0.1-0.2,0.2-0.4-0.1c-0.1-0.2-0.2-1.1-0.4-0.1
								c-0.1,0.5-0.3,0.4-0.4,0.2c-0.3-0.5-0.5,0.6-0.8,0.1c-0.3,0.1-0.5,0.4-0.8-0.1c-0.2-0.6-0.3-0.6-0.5,0
								c-0.2,0.2-0.3,0.7-0.5,0.1c-0.2,0.3-0.3-0.4-0.5-0.1c-0.1-0.5-0.2-0.2-0.2-0.3c-0.1,0-0.2,0.2-0.2,0.3
								c-0.2,0.2-0.3-0.4-0.4-0.1c-0.1-0.7-0.3-0.4-0.4,0c-0.1-0.2-0.3,0.2-0.4,0.1c-0.1-1.1-0.3-0.2-0.4,0
								c-0.3-0.1-0.5-0.2-0.8,0.1c-0.2,0-0.5,0.2-0.7-0.1c-0.2,0.2-0.4,0.3-0.5,0.3c-0.2,0-0.3-0.1-0.4-0.3c-0.2,0.1-0.4,0.5-0.4,0
								c0,0,0,0.3,0-0.4c0,0.4,0.1,0,0.4,0c0.1,0,0.3-0.1,0.4-0.1c0.2-0.1,0.3,0,0.5,0.1c0.2,0,0.4,0.1,0.7,0.2
								c0.2,0.3,0.5-0.8,0.8-0.2c0.1,0,0.3,0.3,0.4,0c0.1-0.1,0.3,0.6,0.4,0c0.1-0.1,0.3-0.3,0.4,0c0.1-0.3,0.3,0.3,0.4,0.1
								c0.2-0.4,0.3,0.2,0.5,0.1c0.1-0.7,0.2-0.3,0.2-0.2c0.1-0.2,0.2,0.2,0.2,0.1c0.2-0.2,0.3,0.8,0.5,0.2c0.2-0.5,0.3,0.2,0.5-0.3
								c0.1-0.2,0.3,0.3,0.4,0c0.1,0.2,0.3,0.3,0.4,0.1c0.1-0.3,0.3,1.1,0.4,0.1c0.1,0,0.3-0.1,0.4-0.2c0.1,0.3,0.3-0.2,0.4,0.2
								c0.1,0.1,0.3,0.6,0.4,0c0.1-0.2,0.2,0.1,0.4,0c0.1-0.4,0.1,0.8,0.2,0c0.1-0.2,0.1,0.6,0.2-0.2c0.1-0.4,0.2,0.1,0.3-0.3
								c0.1,0.4,0.2-0.1,0.3,0.2c0.1-0.2,0.2-0.1,0.3,0.2c0.1,0.1,0.2,0,0.3-0.1c0.1-0.1,0.2-0.1,0.3,0.2c0.1,0.1,0.2,0.1,0.3-0.2
								c0.2-0.5,0.3-0.1,0.5,0c0.1,0,0.3,0,0.4-0.1c0.1,0,0.2,0.1,0.3,0.1c0.2-0.1,0.2,0.4,0.2,0C33.9,24,33.9,24.6,33.9,24.6z"/>
						</g>
						<g clip-path="url(#SVGID_8_)">
							<path fill="#676767" d="M33.9,16.3c0-0.3-0.1,0.5-0.2,0c-0.1,0.2-0.2,0.6-0.3,0.2c-0.1,0.3-0.2,0.1-0.4-0.2
								c-0.1,0.1-0.1,0.1-0.2,0.4c-0.1,0-0.2-0.6-0.3-0.4c-0.1-0.1-0.2-0.5-0.3-0.4c-0.1,0-0.2,0.9-0.3,0.4
								c-0.1-0.2-0.2,0.4-0.3,0.3c-0.1,0.3-0.1,0.5-0.2,0.5c-0.1,0-0.1-0.2-0.2-0.6c-0.1,0.4-0.2-0.1-0.3,0.1
								c-0.1,0.5-0.2-0.5-0.3-0.2c-0.1,0.2-0.2,0.4-0.4,0.1c-0.1,0.2-0.1,0.4-0.2,0.3c-0.1-0.1-0.1-0.3-0.2-0.6
								c-0.1,0.4-0.2-0.2-0.4-0.1c-0.1-0.4-0.1-0.4-0.2,0c-0.1,0.3-0.1,0.9-0.2,0.4c-0.1-0.1-0.3-0.4-0.4-0.1
								c-0.1,0.9-0.3-0.1-0.4,0.2c-0.1-0.4-0.3,0.4-0.4,0.1c-0.1,0.4-0.3,0-0.4-0.2c0,0.5-0.1,0.7-0.1,0.7c0,0.1-0.1-0.4-0.1-0.1
								c0,0.2-0.1,0.1-0.1,0.2c0-0.1-0.1-0.1-0.1-0.4c-0.1,0.5-0.2,0.6-0.2,0.4c-0.1-0.2-0.2-0.3-0.2-0.9c-0.1,0.2-0.2-0.1-0.2-0.3
								c-0.1-0.1-0.2-0.2-0.2,0.3c-0.1,0-0.2,0.6-0.2,0.3c-0.1,0.9-0.2,0.4-0.2-0.3c-0.2-0.9-0.3-0.1-0.4,0
								c-0.1-0.9-0.3,0.5-0.4,0.2c-0.1-0.9-0.3,0.1-0.4,0c-0.1,0.4-0.3,0.3-0.4-0.2c-0.3-0.2-0.5-0.2-0.8,0.1
								c-0.2-0.3-0.5-0.8-0.7-0.1c-0.2,0.5-0.4-0.6-0.5-0.4c-0.2-0.1-0.3,0-0.4,0.4c-0.2,0.5-0.4-0.6-0.4,0c0,0.2,0-0.1,0-0.4
								c0,0.1,0.1,0.1,0.4,0c0.1-0.3,0.3-0.4,0.4-0.4c0.2,0.1,0.3-0.1,0.5,0.4c0.2,0.2,0.4-0.3,0.7,0.2c0.2-0.3,0.5,0.4,0.8-0.2
								c0.1-0.9,0.3,0.3,0.4,0c0.1-1.2,0.3,0,0.4,0c0.1,0.5,0.3,0.1,0.4-0.1c0.1-0.2,0.3,0,0.4,0.1c0.2-0.5,0.3,0.9,0.5,0.4
								c0.1,0.1,0.2,0.4,0.2,0.1c0.1-0.1,0.2-0.2,0.2-0.4c0.1-0.4,0.2-0.5,0.2-0.5c0.1,0,0.2,0.2,0.2,0.4c0.1,0.3,0.2-0.5,0.2-0.3
								c0,0.5,0.1,0.6,0.1,0.4c0,0,0.1-0.2,0.1-0.1c0.1-0.1,0.3-0.2,0.4-0.3c0.1,0.2,0.3,0.8,0.4,0.3c0.1-0.2,0.3,0.6,0.4,0.3
								c0.1-0.1,0.3,0.1,0.4-0.3c0.1,0.3,0.3,0,0.4,0.1c0.1-0.3,0.1-0.4,0.2-0.3c0.1-0.1,0.1,0.3,0.2,0.6c0.1,0.2,0.2-0.2,0.4-0.1
								c0.1,0,0.2,0.3,0.4-0.3c0.1,0.2,0.2-0.5,0.3,0.1c0.1-0.1,0.2,0.3,0.3,0c0.1,0.4,0.2,0.9,0.3,0c0.1-1.2,0.2-0.5,0.3-0.1
								c0.1-1.4,0.2,0.2,0.3-0.3c0.1-0.1,0.2,1.2,0.3,0.3c0.1-0.1,0.2-0.6,0.3-0.3c0.1,0.8,0.2,0.5,0.2,0.3c0.1-0.1,0.3-0.6,0.4-0.1
								c0.1-0.2,0.2,0,0.3,0.1c0.2,0,0.2,0.1,0.2,0C33.9,15.9,33.9,16.6,33.9,16.3z"/>
							<path fill="#676767" d="M33.9,17c0,0.1-0.1,0-0.2,0c-0.1,0.3-0.2-0.1-0.3-0.3c-0.1-0.2-0.2,0.1-0.4,0.3
								c-0.1-0.5-0.3-0.4-0.5,0c-0.1-0.5-0.2,0.3-0.3,0.1c-0.1,0.4-0.2,0.7-0.3-0.1c0-0.3-0.1-0.2-0.2-0.1c-0.1,0.1-0.1,0.4-0.2,0.4
								c-0.1,0-0.2-0.3-0.3-0.3c-0.1,0.3-0.2-0.3-0.3-0.1c-0.1-0.1-0.2,0.6-0.3,0.1c-0.1-0.5-0.1-0.4-0.2-0.6c-0.1,0-0.1,0-0.2,0.8
								c-0.1-0.2-0.1-0.1-0.2-0.2c-0.1,0.4-0.1,0.9-0.2,0.3c-0.1-0.1-0.1-0.6-0.2-0.6c-0.1-0.3-0.1-0.3-0.2,0.3
								c-0.1,0.7-0.3,0-0.4-0.1c-0.1-0.3-0.3-0.1-0.4,0.4c-0.1,0.6-0.3,0.4-0.4,0.1c-0.1-0.2-0.3-0.3-0.4,0.1
								c-0.1,0-0.1-0.4-0.2-0.1c-0.1,0.1-0.1-0.2-0.2-0.5c0,0.1-0.1,0.2-0.1,0.1c0,0.1-0.1-0.6-0.1-0.5c0,0-0.1,0.5-0.1,0.4
								c0-0.1-0.1-0.1-0.1-0.2c-0.1,0.3-0.2,0-0.2,0.3c-0.1-0.2-0.2-0.2-0.2-0.1c0-0.4-0.1,0.5-0.1,0.2c0,0.3-0.1,0.1-0.1-0.8
								c0-0.1-0.1-0.6-0.1-0.8c0-0.2-0.1-0.1-0.1,1.1c0,0.2-0.1-0.1-0.1-0.2c0-0.1-0.1-0.1-0.1,0.5c-0.1,0.8-0.2,0.1-0.2-0.1
								c-0.2-1-0.3-0.2-0.4-0.3c-0.1,1-0.3-0.6-0.4,0c-0.1-0.2-0.3-0.3-0.4,0c-0.1,0.9-0.3,0.6-0.4,0.2c-0.3-0.2-0.5,0-0.8-0.5
								c-0.2,1-0.5,0.6-0.7,0.5c-0.2-0.1-0.4-0.4-0.5-0.3c-0.2,0-0.3,0.1-0.4,0.3c-0.2,0.1-0.4,0-0.4,0c0-0.4,0-0.3,0-0.4
								c0-0.7,0.1-0.3,0.4,0c0.1,0,0.3-0.2,0.4-0.3c0.2,0.7,0.3,0.1,0.5,0.3c0.2,0.5,0.4,0.4,0.7,0.1c0.2,0,0.5,0.1,0.8-0.1
								c0.1-0.5,0.3-1.1,0.4,0c0.1-0.2,0.3,0.1,0.4,0c0.1,0.1,0.3,1.2,0.4,0.1c0.1-1.1,0.3,0.4,0.4-0.2c0.2-0.2,0.3,0,0.5-0.1
								c0.1-0.6,0.2-0.7,0.2-0.5c0.1,0.1,0.2,0.4,0.2,0.6c0.1,0.3,0.2,0.5,0.2,0.4c0.1-0.2,0.2-0.3,0.2-0.5c0.1-0.4,0.2-0.3,0.2,0.1
								c0.1,0.4,0.2,0.8,0.2,0.1c0.1,0.3,0.3,0.1,0.4,0.2c0.1-0.2,0.1-0.7,0.2-0.5c0.1,0,0.1-0.1,0.2-0.1c0.1,0.8,0.3-0.5,0.4-0.1
								c0.1,0.3,0.3,0.2,0.4,0.5c0-0.6,0.1-0.4,0.1-0.6c0-0.3,0.1-0.4,0.1-0.1c0.1,0,0.1,0.3,0.2,0.4c0.1-0.1,0.3-0.1,0.4-0.2
								c0.1,0.1,0.2,0,0.4,0.4c0.1,0.2,0.2-0.2,0.4,0.1c0.1,0.2,0.1,0.3,0.2,0.2c0.1,0.1,0.1-0.2,0.2-0.4c0.1-0.2,0.1,0.1,0.2,0.3
								c0.1,0.2,0.1,0.2,0.2-0.3c0.1,0.3,0.1,0.6,0.2,0.7c0.1,0.1,0.1-0.1,0.2-0.5c0.1,0.8,0.2-0.1,0.3,0c0.2,0.4,0.4,0.2,0.6,0
								c0.2-0.4,0.3,0.2,0.5,0c0.1,0.2,0.3,0,0.4,0.3c0.1-0.2,0.2,0.2,0.3-0.3c0.2,0.4,0.2,0.5,0.2,0C33.9,16.7,33.9,16.7,33.9,17z"
								/>
							<path fill="#676767" d="M33.9,18.1c0,0-0.1-0.5-0.4,0c-0.1,0.1-0.3,0.1-0.4,0c-0.2,0.2-0.3,0-0.5,0c-0.1,0.2-0.2,0.3-0.3,0.3
								c-0.1,0-0.2,0-0.3-0.3c-0.1,0.6-0.1,0.5-0.2,0.3c-0.1,0.1-0.1-0.5-0.2-0.3c-0.1-0.2-0.3-0.1-0.4-0.1
								c-0.1-0.7-0.3,1.1-0.4-0.1c-0.1,0.5-0.3-0.6-0.4,0c-0.1,0.3-0.3,0.7-0.4-0.1c-0.1,0-0.3-0.3-0.4,0.2c-0.2,0.1-0.3-0.3-0.5,0
								c-0.2,0.5-0.3-0.2-0.5,0c-0.2,0.2-0.3,0.2-0.5,0c-0.2,0.2-0.3,0.2-0.5,0c-0.2-0.4-0.3,0.3-0.5-0.3c-0.1,0.7-0.2,0.4-0.2,0.4
								c-0.1-0.2-0.2,0.3-0.2-0.1c-0.2,0.2-0.3-0.4-0.5,0.1c-0.2-0.2-0.3-0.2-0.5,0c-0.2,0.4-0.3,0-0.4,0c-0.1-0.1-0.3,0-0.4-0.1
								c-0.1,0-0.3,0.3-0.4-0.1c-0.1,0.2-0.3-0.2-0.4,0.2c-0.3,0.3-0.5,0.3-0.8,0.2c-0.2,0.4-0.5-0.1-0.7-0.2c-0.2-0.3-0.4,0-0.5,0
								c-0.2,0-0.3,0-0.4,0c-0.2,0.5-0.4,0.3-0.4,0c0-0.1,0-0.1,0-0.4c0-0.2,0.1,0.5,0.4,0c0.1,0.1,0.3,0,0.4-0.1
								c0.2,0,0.3,0,0.5,0.1c0.2-0.2,0.4,0.5,0.7-0.1c0.2-0.4,0.5-0.4,0.8,0.1c0.1,0,0.3,0.7,0.4,0.2c0.1,0.8,0.3,0.1,0.4,0
								c0.1-0.6,0.3-0.1,0.4,0c0.1-0.4,0.1-0.2,0.2,0c0.1,0.2,0.2,0.4,0.2-0.2c0.1,0.6,0.2,0.3,0.2,0.2c0.1,0.1,0.2-0.1,0.2-0.1
								c0.1-0.6,0.2-0.2,0.2,0c0.1,0.1,0.2,0.3,0.2-0.1c0.2,0.1,0.3-0.2,0.5,0c0.2,0.5,0.3-0.1,0.5,0c0.1-0.6,0.2-0.8,0.2-0.4
								c0.1-0.2,0.2-0.2,0.2,0c0.2,0.3,0.3,0.7,0.5,0.4c0.1-0.3,0.2,0,0.2,0c0.1,0,0.2,0.2,0.2-0.2c0.2,0.5,0.3-0.1,0.5,0.2
								c0.2,0.5,0.3,0.5,0.4,0c0.1,0,0.3,0,0.4-0.1c0.1,0.8,0.3,0,0.4,0.3c0.1,0.2,0.1,0.2,0.2,0.2c0.1-0.2,0.1-0.4,0.2-0.4
								c0.1,0.4,0.3,0.4,0.4,0.2c0.1-0.4,0.2,0,0.4-0.2c0.1,0.1,0.2,0,0.3,0s0.2-0.1,0.3,0c0.2-0.1,0.4-0.9,0.5-0.1
								c0.2-0.4,0.3,0.3,0.4,0.1c0.2-0.3,0.4-0.7,0.4,0C33.9,17.9,33.9,17.6,33.9,18.1z"/>
							<path fill="#676767" d="M33.9,19c0,0.3-0.1,0.3-0.2,0c-0.2,0-0.4-0.3-0.7,0c-0.1,0.1-0.3,0-0.5,0c-0.2,0.2-0.4,0.1-0.6,0
								c-0.1,0.6-0.2,0.4-0.3,0.2c-0.1-0.1-0.2,0-0.3-0.2c-0.1-0.5-0.1-0.1-0.2,0.1c-0.1-0.2-0.1,0.6-0.2,0
								c-0.1,0.2-0.2,0.1-0.3-0.1c-0.1-0.4-0.2-0.3-0.4-0.2c-0.1,0.1-0.2-0.2-0.4,0c-0.1-0.7-0.2,0.3-0.4,0
								c-0.1-0.1-0.3,0.2-0.4,0.2c-0.1,0.5-0.3,0.1-0.4-0.1c-0.1,0.2-0.3,0-0.4-0.2c-0.1-0.3-0.3-0.6-0.4,0
								c-0.1,0.3-0.3-0.6-0.4,0.3c-0.2,0.7-0.3,0-0.5,0.1c-0.2-1-0.3-0.1-0.5-0.1c-0.1,0.1-0.2,0.6-0.2-0.1
								c-0.1-0.4-0.2,0.2-0.2,0.3c-0.2,0-0.3,0.3-0.5-0.3c-0.2,0.2-0.3-0.1-0.4,0c-0.1-0.1-0.3,0.3-0.4,0c-0.1-0.1-0.3,0.3-0.4,0
								c-0.1,0-0.3,0.4-0.4,0c-0.3,0.4-0.5,0.4-0.8,0.3c-0.2,0-0.5-0.1-0.7-0.3c-0.2,0.5-0.4,0.2-0.5,0c-0.2-0.3-0.3-0.5-0.4,0
								c-0.2-0.1-0.4-0.1-0.4,0c0-0.3,0-1.4,0-0.4c0-0.5,0.1,0.3,0.4,0c0.1-0.2,0.3,0,0.4,0.1c0.2,0.2,0.3,0.3,0.5-0.1
								c0.2,0.4,0.4-0.3,0.7,0.2c0.2,0,0.5-0.5,0.8-0.2c0.1-0.5,0.3-1.3,0.4-0.3c0.1-0.4,0.3-0.4,0.4,0.1c0.1-0.2,0.3,0.6,0.4,0.2
								c0.1-0.1,0.3,0.5,0.4,0c0.2,0.2,0.3-0.2,0.5-0.3c0.2-0.1,0.3,0.2,0.5,0.2c0.2-0.5,0.3-0.2,0.5,0c0.2-0.4,0.3,0.2,0.5,0.1
								c0.1-0.1,0.3-0.7,0.4,0c0.1,0,0.3-0.1,0.4,0.2c0.1,0.2,0.3-0.1,0.4,0.1c0.1,0,0.3-0.3,0.4-0.3c0.1-0.1,0.3,0,0.4-0.1
								c0.1,0,0.3,0.3,0.4,0.1c0.1,0.9,0.2,0.4,0.4,0.1c0.1-0.8,0.2,0,0.4-0.1c0.1,0,0.2,0,0.3,0.1c0.1,0.6,0.1-0.1,0.2,0.2
								c0.1,0,0.1-0.7,0.2-0.3c0.1-0.2,0.1-0.6,0.2-0.6c0.1-0.1,0.1-0.1,0.2,0.4c0.1-0.2,0.2,0,0.3,0.1c0.2,0,0.4,0.4,0.6,0
								c0.2,0.4,0.3,0,0.5,0c0.1,0.2,0.3,0.1,0.4,0c0.1-0.1,0.2,0.1,0.3,0C33.8,18.8,33.8,18.9,33.9,19c0,0,0-0.1,0-0.4
								C33.9,18.9,33.9,19.2,33.9,19z"/>
							<path fill="#676767" d="M33.9,19.4c0,0-0.2,0.2-0.5,0c-0.2,0.1-0.4,0-0.6,0c-0.1,0.1-0.2,0.1-0.4,0.1
								c-0.1-0.1-0.3-0.3-0.4-0.1c-0.1-0.6-0.2-0.2-0.3-0.2c-0.1-0.1-0.2,0.7-0.3,0.2c-0.1,0.2-0.2-0.7-0.3,0.1
								c-0.1,0-0.2,0.4-0.3-0.1c-0.1-0.7-0.2-0.4-0.4,0c-0.1,0.1-0.2,0.2-0.4-0.1c-0.1-0.2-0.2-1.1-0.4-0.1
								c-0.1,0.5-0.3,0.4-0.4,0.2c-0.3-0.5-0.5,0.6-0.8,0.1c-0.3,0.1-0.5,0.4-0.8-0.1c-0.2-0.6-0.3-0.6-0.5,0
								c-0.2,0.2-0.3,0.7-0.5,0.1c-0.2,0.3-0.3-0.4-0.5-0.1c-0.1-0.5-0.2-0.2-0.2-0.3c-0.1,0-0.2,0.2-0.2,0.3
								c-0.2,0.2-0.3-0.4-0.4-0.1c-0.1-0.7-0.3-0.4-0.4,0c-0.1-0.2-0.3,0.2-0.4,0.1c-0.1-1.1-0.3-0.2-0.4,0
								c-0.3-0.1-0.5-0.2-0.8,0.1c-0.2,0-0.5,0.2-0.7-0.1c-0.2,0.2-0.4,0.3-0.5,0.3c-0.2,0-0.3-0.1-0.4-0.3c-0.2,0.1-0.4,0.5-0.4,0
								c0,0,0,0.3,0-0.4c0,0.4,0.1,0,0.4,0c0.1,0,0.3-0.1,0.4-0.1c0.2-0.1,0.3,0,0.5,0.1c0.2,0,0.4,0.1,0.7,0.2
								c0.2,0.3,0.5-0.8,0.8-0.2c0.1,0,0.3,0.3,0.4,0c0.1-0.1,0.3,0.6,0.4,0c0.1-0.1,0.3-0.3,0.4,0c0.1-0.3,0.3,0.3,0.4,0.1
								c0.2-0.4,0.3,0.2,0.5,0.1c0.1-0.7,0.2-0.3,0.2-0.2c0.1-0.2,0.2,0.2,0.2,0.1c0.2-0.2,0.3,0.8,0.5,0.2c0.2-0.5,0.3,0.2,0.5-0.3
								c0.1-0.2,0.3,0.3,0.4,0c0.1,0.2,0.3,0.3,0.4,0.1c0.1-0.3,0.3,1.1,0.4,0.1c0.1,0,0.3-0.1,0.4-0.2c0.1,0.3,0.3-0.2,0.4,0.2
								c0.1,0.1,0.3,0.6,0.4,0c0.1-0.2,0.2,0.1,0.4,0c0.1-0.4,0.1,0.8,0.2,0c0.1-0.2,0.1,0.6,0.2-0.2c0.1-0.4,0.2,0.1,0.3-0.3
								c0.1,0.4,0.2-0.1,0.3,0.2c0.1-0.2,0.2-0.1,0.3,0.2c0.1,0.1,0.2,0,0.3-0.1c0.1-0.1,0.2-0.1,0.3,0.2c0.1,0.1,0.2,0.1,0.3-0.2
								c0.2-0.5,0.3-0.1,0.5,0c0.1,0,0.3,0,0.4-0.1c0.1,0,0.2,0.1,0.3,0.1c0.2-0.1,0.2,0.4,0.2,0C33.9,18.8,33.9,19.4,33.9,19.4z"/>
						</g>
					</g>
				</g>
			</g>
			<path fill="#676767" d="M30.3,26.8h-4.5c-0.4,0-0.7-0.3-0.7-0.7c0-0.4,0.3-0.7,0.7-0.7h4.5c0.4,0,0.7,0.3,0.7,0.7
				C31,26.5,30.7,26.8,30.3,26.8z M25.8,25.6c-0.3,0-0.6,0.3-0.6,0.6c0,0.3,0.3,0.6,0.6,0.6h4.5c0.3,0,0.6-0.3,0.6-0.6
				c0-0.3-0.3-0.6-0.6-0.6H25.8z"/>
		</g>
	</g>
	<g>
		<line fill="#CACACA" stroke="#345178" stroke-width="0.6098" stroke-miterlimit="10" x1="21.4" y1="39.7" x2="18.8" y2="41"/>
		<path fill="#345178" d="M20.2,40.3L20.2,40.3c0.1,0.3-0.1,0.6-0.4,0.7l-2,0.6c-0.3,0.1-0.6-0.1-0.7-0.4l0,0
			c-0.1-0.3,0.1-0.6,0.4-0.7l2-0.6C19.8,39.8,20.1,40,20.2,40.3z"/>
	</g>
	<path fill="#676767" d="M17.7,26.1h-2.9c-0.2,0-0.3-0.1-0.3-0.3v-0.9c0-0.2,0.1-0.3,0.3-0.3h2.9c0.4,0,0.7,0.3,0.7,0.7v0.2
		C18.4,25.8,18.1,26.1,17.7,26.1z"/>
	<g>
		<g>
			<g>
				<path fill="#E1BCB2" d="M20.9,38.1l-0.1-0.3l0,0l0-2.3L19,35.9l0.2,2.2c0.1,0.3-0.3,0.7-0.6,0.8l-1.3,0.6l0.3,0.6l3.6-1.3
					L20.9,38.1z"/>
				<path fill="#263B54" d="M17.7,39.2l0.2,0.7l3.2-1.5c0.2,0.2,0.2,0.6,0.2,0.9l-4,1.3c-0.5,0.2-1,0-1.2-0.4l0,0
					c-0.1-0.1,0-0.3,0.1-0.4L17.7,39.2z"/>
				<polygon fill="#E1BCB2" points="19.1,37.2 18.1,28.4 20.6,28.4 20.8,35.9 				"/>
			</g>
			<path fill="#6AACB5" d="M28.9,22.1l-4.5,0.3c0.1,0.8,0,1.5-0.2,2.2c0.2,0.8,0.9,1.3,1.7,1.1l2.5-0.5c0.8-0.2,1.4,0,1.1-1.7
				C29.5,23.1,29.2,22.7,28.9,22.1z"/>
			<ellipse fill="#6AACB5" cx="27.1" cy="24.5" rx="2.5" ry="1.7"/>
			<polygon fill="#E1BCB2" points="17.8,28.3 26.7,22.4 27.7,25.7 19.2,30.3 			"/>
			<path fill="#6AACB5" stroke="#6AACB5" stroke-width="0.1097" stroke-miterlimit="10" d="M28.1,25.7l-6.6,3.7
				c-1.2,0.1-2.3-0.3-3.5-1c-0.2-0.1-0.2-0.4,0-0.6l8.8-5.8L28.1,25.7z"/>
			<g>
				<g>
					<g>
						<path fill="#E1BCB2" d="M25.5,12.6c-0.4,0.3-0.7,1-1.4,1.3c-1.2,0.6-1.4,0.2-1.4-0.5l0-0.6l-0.4-2.3l2.6-0.4
							C24.8,11.2,24.7,12.4,25.5,12.6z"/>
						<g>
							<path fill="#E1BCB2" d="M25.6,7.7c0.3,1.6-0.6,3.6-1.9,3.8c-0.5,0.1-2,0.4-2.4,0.2c-0.8-0.6-0.4-2.1-0.6-3.2
								c-0.3-1.6,0.7-2.5,2.1-2.7C24.1,5.5,25.3,6.1,25.6,7.7z"/>
							<path fill="#E1BCB2" d="M21.1,10.5l-0.8-0.6c-0.1-0.1-0.1-0.2-0.1-0.3l0.4-1.4l1,0.2L21.1,10.5z"/>
							<path fill="#6C4E2B" d="M20.2,6.6c1.1-1.6,3.1-2.5,5-0.8c1.1,1.3,1.3,2.6,0.6,3.9c-0.6,0.6-1.7,0.2-2.1-0.6
								C20.9,8.1,20.1,7.9,20.2,6.6z"/>
						</g>
						<path fill="#6C4E2B" d="M25.3,9.2c0.6,0.4,0,0.4,0.2,1c0.3,1,1,2.8,0.4,4.1c0.8-0.4,1.6-0.7,2.4-1.1c0.4-0.2,0.7-0.7,0.7-1.1
							c-0.1-1.8-1.3-3-3.3-3.2C25.5,8.9,25.4,9.1,25.3,9.2z"/>
					</g>
				</g>
				<g>
					<path fill="#6EBECC" d="M26.5,13.8c-0.2-0.8-1-1.6-1.8-1.3l0,0c-2.1,0.7-3.3,2.9-2.6,5c1.2,2,2.1,3.9,2.5,5.6l4.5-0.8
						C28.1,20.9,26.5,18.7,26.5,13.8z"/>
					<path fill="#6EBECC" d="M24.2,16.6c0.1,1.2-0.4,2.3-1.1,2.4c-0.8,0.1-1.5-0.9-1.6-2.1c-0.1-1.2,0.8-2.3,1.2-2.6
						C23.3,13.8,24,15.3,24.2,16.6z"/>
					<g>
						<path fill="#E1BCB2" d="M17.2,24.4c-0.7,0-1.2,0.3-1.2,0.7c0,0,0,0.4,0,0.6c0.1,0.3,0.2,0.4,0.5,0.5c0.1,0,0.3-1,1.9-1.2
							C18.4,24.7,17.9,24.4,17.2,24.4z"/>
					</g>
					<g>
						<path fill="#E1BCB2" d="M23.9,15l-3.1,6.3c-0.1,0.2,1.2,1.1,1.3,0.9l3.6-6c0.1-0.2,0.1-0.4-0.1-0.5l-1.2-0.9
							C24.2,14.8,24,14.8,23.9,15z"/>
						<path fill="#599DAB" d="M24.7,18.1l-2-1.2l0.8-1.7c0.3-0.6,1.1-0.9,1.7-0.6c0,0,0,0,0,0c0.7,0.3,0.9,1.2,0.5,1.8L24.7,18.1z"
							/>
						<polygon fill="#6AACB5" points="23,16.4 25,17.6 24.7,18.1 22.7,16.8 						"/>
					</g>
					<polygon fill="#E1BCB2" points="22.1,22.3 18.4,25.1 17.6,24.5 21,21.1 					"/>
				</g>
			</g>
		</g>
	</g>
	<path fill="#E4E4E4" d="M38.3,47H0.8C0.4,47,0,46.6,0,46.2l0,0c0-0.5,0.4-0.8,0.8-0.8h37.5c0.5,0,0.8,0.4,0.8,0.8l0,0
		C39.2,46.6,38.8,47,38.3,47z"/>
</g>
</svg>
