<?xml version="1.0" encoding="utf-8"?>
<!-- Generator: Adobe Illustrator 19.0.0, SVG Export Plug-In . SVG Version: 6.00 Build 0)  -->
<svg version="1.1" id="Layer_1" xmlns="http://www.w3.org/2000/svg" xmlns:xlink="http://www.w3.org/1999/xlink" x="0px" y="0px"
	 viewBox="-606 334 451 328" style="enable-background:new -606 334 451 328;" xml:space="preserve">
<g>
	<path d="M-163,506.8l-161.3,8.3c-2-33.5-19-60.9-41.5-68.7c3-4.8,4.7-11.3,4.4-18.2c-0.5-10.8-5.9-19.5-12.9-22.1l-0.8-35.9
		l50.7-3.7c2.3-0.4,2.8-1.7,2.7-3.1c-0.1-1.4-0.7-2.7-3-2.6l-50.9,0.1c-0.7-2.9-2-3.6-3.4-3.6c-1.4,0-2.7,0.8-3.4,3.6l-50.5-0.1
		c-2.3-0.1-2.9,1.1-3,2.6c-0.1,1.4,0.4,2.8,2.7,3.1l50.2,3.7l-0.9,36.1c-7.7,3.2-13.1,13.6-12.5,25.4c0.3,5.6,1.9,10.7,4.3,14.6
		c-22.6,7.7-39.8,35.2-41.8,68.8l-161.3-8.3c-6.2-0.3-7.9,3.1-8,6.9c-0.2,3.8,1.1,7.5,7.3,8.4l94.6,13.9c-2.4,5-4,10.9-4.3,17.4
		c-0.9,19.2,9.3,35.8,22.9,37.2c13.6,1.3,25.4-13.1,26.3-32.3c0.3-5.6-0.4-11.1-1.9-15.9l26.3,3.8c0.2,0,0.4,0,0.8,0
		c7.2,30.9,27.9,53.2,52.2,53.2c24.3,0,44.9-22.3,52.2-53.2c0.3,0,0.6,0,0.8,0l26.3-3.8c-1.5,4.9-2.2,10.3-1.9,15.9
		c0.9,19.2,12.7,33.7,26.3,32.3c13.6-1.3,23.8-18,22.9-37.2c-0.3-6.5-1.9-12.4-4.3-17.4l94.6-13.9c6.2-0.9,7.5-4.6,7.3-8.4
		C-155.2,509.9-156.8,506.5-163,506.8z M-482.1,577.5c-8.5-0.8-14.9-11.2-14.3-23.2c0.6-12,8-21,16.4-20.2
		c8.5,0.8,14.9,11.2,14.3,23.2C-466.3,569.3-473.6,578.4-482.1,577.5z M-379.6,415.7c5.5-0.6,10.4,5.4,10.8,13.2
		c0.4,7.8-3.8,14.6-9.4,15.2c-5.5,0.6-10.4-5.4-10.7-13.2C-389.3,423-385.2,416.2-379.6,415.7z M-379.1,583.4
		c-24.1,0-43.7-27.6-43.7-61.7c0-34.1,19.5-61.7,43.7-61.7c24.1,0,43.7,27.6,43.7,61.7C-335.4,555.8-355,583.4-379.1,583.4z
		 M-276.1,577.5c-8.5,0.8-15.8-8.2-16.4-20.2c-0.6-12,5.8-22.4,14.3-23.2c8.5-0.8,15.9,8.2,16.4,20.2
		C-261.2,566.3-267.6,576.7-276.1,577.5z M-363.5,557.3c-0.6,12-7.9,21-16.4,20.2c-8.5-0.8-14.9-11.2-14.3-23.2
		c0.6-12,8-21,16.4-20.2C-369.3,534.9-362.9,545.3-363.5,557.3z M-348.9,489.5c2.4,4.5,4.4,9.6,5.7,15.2l-32.5,4.8
		c-0.7,0.1-1.2-0.6-1.2-1.5v-16.6c0-0.9,0.5-1.7,1.2-1.7L-348.9,489.5z M-382.5,509.4l-32.5-4.8c1.3-5.5,3.2-10.6,5.7-15.2l26.8,0.1
		c0.7,0,1.2,0.8,1.2,1.7v16.6C-381.3,508.8-381.9,509.5-382.5,509.4z"/>
</g>
<g>
	<image style="overflow:visible;" width="42" height="121" xlink:href="49C9C33E.png"  transform="matrix(1 0 0 1 -400 534)">
	</image>
	<image style="overflow:visible;" width="78" height="25" xlink:href="49C9C342.png"  transform="matrix(1 0 0 1 -358 541)">
	</image>
	<image style="overflow:visible;" width="77" height="25" xlink:href="49C9C345.png"  transform="matrix(1 0 0 1 -478 541)">
	</image>
	<image style="overflow:visible;" width="25" height="78" xlink:href="49C9C346.png"  transform="matrix(1 0 0 1 -392 455)">
	</image>
</g>
</svg>
