<?xml version="1.0" encoding="utf-8"?>
<!-- Generator: Adobe Illustrator 19.0.0, SVG Export Plug-In . SVG Version: 6.00 Build 0)  -->
<svg version="1.1" id="Layer_1" xmlns="http://www.w3.org/2000/svg" xmlns:xlink="http://www.w3.org/1999/xlink" x="0px" y="0px"
	 viewBox="978.1 137.1 971 334.5" style="enable-background:new 978.1 137.1 971 334.5;" xml:space="preserve">
<style type="text/css">
	.st0{display:none;}
	.st1{display:inline;}
	.st2{fill:#FF0000;stroke:#FB1010;}
	.st3{fill:url(#path2767_1_);}
	.st4{fill:#FF0000;stroke:#000000;stroke-width:5;}
	.st5{fill:#FF0000;stroke:#000000;stroke-width:5.757;}
	.st6{fill:#FF2C00;stroke:#FFFFFF;stroke-width:6;}
	.st7{fill:#FF2C00;stroke:#FFFFFF;stroke-width:6.736;}
	.st8{fill:url(#path11695_1_);}
	.st9{fill:url(#path12584_1_);}
	.st10{fill:#FFD275;}
	.st11{fill:url(#path9894_1_);}
	.st12{stroke:#000000;stroke-width:6;}
	.st13{fill:url(#path19855_1_);}
	.st14{fill:#FFC800;}
	.st15{fill:url(#path18962_1_);}
	.st16{fill:url(#path1971_1_);}
	.st17{fill:url(#path3794_1_);}
	.st18{fill:#FFD500;stroke:#FF8A00;stroke-width:3.506;}
	.st19{fill:#FFD500;stroke:#FF8A00;stroke-width:2.726;}
	.st20{fill:#FFD500;stroke:#FF8A00;stroke-width:3.247;}
	.st21{fill:#FFFFFF;}
	.st22{fill:#FF0000;}
	.st23{fill:url(#path7228_1_);}
	.st24{fill:url(#path10783_1_);}
	.st25{fill:url(#path10792_1_);}
	.st26{opacity:9.100000e-002;fill:url(#path16183_1_);enable-background:new    ;}
	.st27{opacity:9.100000e-002;fill:url(#path16192_1_);enable-background:new    ;}
	.st28{opacity:9.100000e-002;fill:url(#path16201_1_);enable-background:new    ;}
	.st29{opacity:9.100000e-002;fill:url(#path16210_1_);enable-background:new    ;}
	.st30{opacity:9.100000e-002;fill:url(#path16219_1_);enable-background:new    ;}
	.st31{opacity:9.100000e-002;fill:url(#path16228_1_);enable-background:new    ;}
	.st32{opacity:9.100000e-002;fill:url(#path16237_1_);enable-background:new    ;}
	.st33{opacity:9.100000e-002;fill:url(#path16246_1_);enable-background:new    ;}
	.st34{opacity:9.100000e-002;fill:url(#path16255_1_);enable-background:new    ;}
	.st35{opacity:9.100000e-002;fill:url(#path16264_1_);enable-background:new    ;}
	.st36{opacity:9.100000e-002;fill:url(#path16273_1_);enable-background:new    ;}
</style>
<g id="layer1" class="st0">
	<g id="g1499" transform="matrix(2.0931 0 0 2.0573 2.0821 -465.49)" class="st1">
		<path id="path1552" class="st2" d="M936.6,613.4c-4.8-2-7.3-2.1-55.5-2.5c-54.7-0.5-53.5-0.5-78.5-2.7c-9.3-0.9-25.3-1.8-35.5-2.1
			c-10.2-0.3-21.2-0.8-24.5-1c-3.3-0.3-15.9-0.7-28-1c-20.7-0.5-31-1-41.5-2.1c-2.5-0.3-19.4-0.7-37.5-0.9
			c-34.5-0.4-61.5-1.8-72.5-3.6c-4.2-0.7-15.2-0.9-31-0.5c-54.5,1.4-117.4,0.6-141.5-1.9c-2.8-0.3-28.6-0.5-57.5-0.6
			c-54.8-0.1-77.5-1.1-78.5-3.7c-0.9-2.3,0.5-3.4,3.5-2.7c2.5,0.5,3.1,0.2,4.7-2.4c1.6-2.7,1.8-5.2,1.7-20.8
			c-0.1-15.3-1.6-38.7-3.1-48.8c-3-20.2-3-35.3,0.1-52c1.3-7.2,1.5-12.2,1-25.5c-0.8-20.4-0.7-37.2,0.5-42.5c1.2-5.9,1.2-45.2,0-74
			c-0.6-13.8-0.9-32.2-0.8-41c0.6-29.4,0-48.1-1.6-51.9c-1.2-2.9-1.2-3.7-0.1-4.6c3.9-3.2,112.7-4.9,140-2.2
			c14.4,1.4,29.4,2.6,52,4.1c8.3,0.5,21.5,1.6,29.5,2.3c18.7,1.7,67.7,1.5,98.5-0.3c28.1-1.6,50.4-1.6,74,0.2
			c11.3,0.9,38.8,1.3,82,1.4c35.8,0.1,75.5,0.6,88.2,1.3c12.8,0.7,24.9,0.9,27,0.6c3.8-0.6,40.6,0.8,69.3,2.6
			c8.5,0.5,17.1,0.9,19,0.7s6-0.2,9-0.1c16.8,0.4,19.6,0.2,22.7-1.4c2.9-1.5,3.3-1.5,5.8,0c3.1,2,3.5,6.2,0.7,7.1
			c-2.5,0.8-3.5,7.7-3.3,24.5c0.5,47.5,0.4,57.7-0.9,70.5c-1.6,15.7-1.7,25.4-0.5,40c0.7,8.2,0.4,12.6-1.3,24
			c-2.7,17.8-5.2,48.3-5.8,69.3c-0.4,14-0.2,16.3,1.1,16.9c2.2,0.8,1.9,4.7-0.4,6.1c-1.9,1.2-2,2.3-1.6,36
			c0.2,19.1,0.8,36.8,1.4,39.3c2.9,13.1,1.8,32-2.2,39.7c-2.4,4.5-5.9,7.3-9.2,7.1c-1.6-0.1-5.4,0.1-8.5,0.5
			C942.7,615.3,940.6,615,936.6,613.4L936.6,613.4z M953.3,608.8c7.9-1.5,10.8-13.7,8.9-37.3c-0.6-8-1.6-18.9-2.2-24.1
			c-0.7-6.5-0.7-13.3,0-21.3c0.7-8.5,0.7-13-0.1-16c-0.7-2.5-0.9-6.9-0.5-10.8c0.7-7.3,1.1-6.9-6.3-8.4c-6.3-1.3-8.7-1.5-17.4-2
			c-4.8-0.2-9.2-0.7-9.9-1.1c-0.6-0.4-7.1-0.8-14.4-1c-7.3-0.2-14.2-0.8-15.3-1.4c-1.5-0.8-3.2-0.8-6.5,0.1
			c-3.5,0.9-5.4,0.9-9.3-0.2c-2.7-0.8-5.3-1.2-5.9-1c-7.4,2.8-11.2,3.1-18.6,1.6c-5.4-1.1-9-1.3-12.3-0.7
			c-5.1,0.9-12.7-0.1-15.6-2.1c-1.3-0.9-5.1-1.2-13.2-0.9c-6.3,0.2-13.4,0.3-15.9,0.2c-2.5-0.1-9.7-0.2-16-0.4
			c-9.4-0.2-12-0.6-14.3-2.1c-2.7-1.8-3-1.8-7.9-0.3c-6.5,2.1-10.9,2.1-15.3,0c-2.9-1.4-4.1-1.5-7.4-0.5c-4.4,1.3-9.7,1.4-12.7,0.2
			c-1.1-0.4-3.1-0.4-4.5,0.1c-1.4,0.5-4.5,1-7,1.2c-4.1,0.2-4.5,0.5-4.3,2.7c1.4,17.3,2,18.9,7.4,18.9c1.6,0,4.9,0.4,7.2,0.9
			c2.3,0.5,8,1.4,12.7,2.1c4.7,0.6,9.8,1.6,11.5,2c1.7,0.5,5.4,1.4,8.2,2c6,1.3,15.8,6.3,16.6,8.5c0.9,2.5-0.4,4.5-3,4.5
			c-1.4,0-3.3,0.5-4.4,1c-2.5,1.3-25.3,1.3-32.8,0c-3.1-0.6-10.1-1.2-15.5-1.3l-9.8-0.3l0.7,4.4c1,6.5-0.7,7.9-13,10.9
			c-3.9,1-10.8,1.4-20,1.4c-16-0.1-22.6-0.9-34.4-4c-5.1-1.3-8.7-1.9-9.3-1.3s-0.3,2.6,0.6,5.2c1.7,4.8,2,16.2,0.6,18.9
			c-0.5,0.9-3.4,3.5-6.5,5.7c-3.1,2.2-5.8,4.7-6.1,5.5c-0.3,0.8-2.9,3-5.9,4.8c-6.6,3.9-12.4,4.3-19.1,1.1c-6.2-2.9-9.1-6.6-9.9-13
			c-0.6-4.5-1.3-5.8-4.8-8.9c-4-3.6-4.2-3.9-4.6-10.9c-0.4-6.5-0.8-7.9-4.5-13.4c-3.8-5.7-4.6-6.3-10.1-8c-21.7-6.7-32-10.3-39-13.8
			l-8-4l-4.5,2.7c-2.5,1.5-6.4,3.9-8.6,5.4c-2.3,1.5-8.5,5.4-13.8,8.7c-5.3,3.3-12.5,7.8-15.9,10c-3.4,2.2-7.3,4.6-8.8,5.3
			c-5.7,2.9-8,5.6-8.6,9.9c-1.1,8.4-13.6,17-23.3,16c-6.8-0.7-12.4-4.6-14.6-10.4c-0.9-2.4-2.9-5.3-4.4-6.4c-3.6-2.5-4.5-9-2.5-18.1
			c3.5-16.4,9.7-21.5,27.3-22.6c5.1-0.3,9.7-1.1,10.1-1.7c0.8-1.2,4.5-13.7,6.7-22.4l1.3-5.3l-2.6-1c-2-0.7-3.5-0.6-5.9,0.6
			c-4.3,2-5.4,2-8.6-0.5c-2-1.6-3-1.8-4.6-1c-3,1.6-7.3,1.2-10.9-1c-4-2.4-8.7-2.5-13.9-0.4c-2.1,0.9-7.5,1.8-11.9,2
			c-4.4,0.2-10.3,0.9-13.1,1.5c-4.8,1.1-11.3,0.8-19.2-0.7c-2-0.4-4.3-0.1-5.7,0.6c-1.6,0.9-4.6,1.1-9.3,0.7
			c-4.7-0.4-8.5-0.1-11.7,0.9c-6.3,1.9-10.6,1.8-14.2-0.3c-2.6-1.5-3.5-1.5-6.9-0.4c-2.5,0.8-5.8,1.1-8.9,0.7
			c-5.8-0.8-8.6-0.8-17.4,0.1c-8.5,0.8-15.5,0.9-20.9,0.3l-4.4-0.5l-1.3,5c-1.7,6.5-1.7,16.1,0.2,25.5c3.8,19.6,5.1,43.4,3.5,65
			c-0.6,8.4-0.1,15.3,1.2,16.6c0.9,0.9,40,2.5,81.2,3.4c23.1,0.5,50.8,1.5,61.5,2.2c19.2,1.3,68.8,1.6,121.5,0.8
			c16.9-0.3,31.1,0,38,0.8c6,0.7,24.3,1.6,40.5,2.2c16.2,0.6,39.4,1.5,51.5,2.2c12.1,0.6,25.6,1.3,30,1.5c4.4,0.2,14.9,0.9,23.4,1.5
			c8.5,0.6,23.1,1.3,32.5,1.4c9.4,0.2,27.4,0.8,40.1,1.5c43.3,2.2,60,2.7,88,2.4c28.5-0.3,59.8,1,62.5,2.7
			C940.5,610.4,946.8,610,953.3,608.8L953.3,608.8z M613.2,568c2.2-1.4,3.9-3,3.9-3.5s-2.6-1.2-5.8-1.6c-3.2-0.4-8.5-1.3-11.8-2.1
			c-8.2-1.9-8.4-1.9-8.4,1.6c0,2.4,0.8,3.5,3.8,5.3c2.1,1.3,4.4,2.6,5.3,3C602.9,571.9,609.2,570.6,613.2,568L613.2,568z
			 M624.9,557.3c3-1.1,3.4-1.6,4.6-6.9c0.7-3.3-3.3-14.7-7.4-21.1c-4.1-6.4-12-11.9-17.1-11.9c-6.8,0-6.5,1-6-21
			c0.4-19.3,0-22.6-2.5-18.7c-0.4,0.7-0.8,10.7-0.9,22.3c0,22.8-0.4,24.4-5.4,27c-2,1-3.9,3.6-6,7.9c-3.7,7.8-3.8,10-0.5,13.2
			C590.7,555.1,615.3,560.7,624.9,557.3L624.9,557.3z M438.8,554.3c8.3-4.6,8.3-5.9,0-5.7c-3.4,0.1-8.6-0.2-11.6-0.6
			c-5.2-0.7-5.3-0.7-5,1.6c0.4,2.6,6.9,6.8,10.6,6.9C434,556.4,436.7,555.5,438.8,554.3L438.8,554.3z M437.7,542.2
			c0.3-0.3-0.3-1.9-1.3-3.6c-1.7-3-1.7-3.2,0.4-7.4c2.7-5.3,7.3-18.9,7.3-21.6c0-2.6-2.9-3.5-8.3-2.6c-14.6,2.3-17.8,5.2-21.8,19.7
			c-1.9,7-1.7,10.9,0.6,12.8C417.8,542.1,435.6,544.2,437.7,542.2L437.7,542.2z M446.2,535.8c0.9-1.1,2.2-1.4,4.2-1
			c3.2,0.6,8.2-1.8,18.2-8.9c3.3-2.3,7.2-4.9,8.7-5.6c1.5-0.8,9.3-5.9,17.3-11.3c11.7-8,14.3-10.1,13.3-11.1
			c-0.7-0.7-3.9-3.3-7.1-5.8c-5.7-4.5-8.7-5.8-8.7-3.5c0,2.8-35.4,36.2-42.1,39.8c-7.6,4-9.9,5.7-9.9,7.4
			C440.1,537.9,444.3,538,446.2,535.8L446.2,535.8z M684.9,532.2c0.6-0.7,1.6-3.5,2.3-6.3c0.7-2.7,1.6-5.7,2.1-6.7
			c0.7-1.4-0.6-2.4-7.6-5.8c-9.3-4.6-9.9-5.1-10.2-9.5c-0.5-7.7-1.5-9.4-9.7-16.7c-4.5-4-12.5-11.4-17.9-16.4
			c-10.5-9.8-12.9-11.1-15.4-8.6c-1.3,1.3-1.5,2.9-0.9,8.2c0.4,3.7,0.7,11.6,0.7,17.7c0,10.8,0,11.2-4,19.8
			c-2.2,4.8-4.1,9.2-4.1,9.7c0,0.5,1.5,2.4,3.3,4.3c3,3,4.8,3.7,17.3,6.5c7.6,1.7,15.5,3.6,17.4,4
			C663.9,533.8,683.7,533.6,684.9,532.2L684.9,532.2z M695,528.3c1.6-4.5,1.4-9.9-0.2-9.3c-1.2,0.5-3.7,7.8-3.7,11
			C691.1,532.7,693.9,531.5,695,528.3L695,528.3z M703.6,528.4c0.7-1.1-1.5-8-2.6-8c-1,0-1.9,2.8-1.9,6.1c0,2.2,0.5,2.9,1.9,2.9
			C702.1,529.4,703.2,529,703.6,528.4z M583.1,525.7c1.8-2.3,2.1-3.6,1.6-8.3c-0.8-7.9-5.3-21.1-8.1-23.6c-2.3-2-17.4-7.8-18.3-6.9
			c-0.9,0.9,5.1,15.2,11.9,27.8C578.1,529.5,579.3,530.5,583.1,525.7L583.1,525.7z M452.9,512.7c1.7-4.8,3.2-9.8,3.2-11.1
			c0-1.3,0.6-3.5,1.3-5c1.6-3.3,0.8-12.4-0.8-10.1c-0.6,0.8-2.1,5.2-3.3,9.9c-2.5,9.4-4.9,17.3-6.2,20.8c-0.5,1.3-0.9,3.2-0.9,4.3
			c0,1.6,0.3,1.8,1.8,1C449,521.9,451.1,517.8,452.9,512.7L452.9,512.7z M762.8,517.8c0.6-1.8-3.3-3-20.7-6.2c-3-0.6-8-1.5-11-2.1
			c-12.4-2.4-47-3.8-47-2c0,1.4,4.2,3.8,9.4,5.3c8.1,2.3,16.1,3.4,42.6,6C744.1,519.6,762.4,518.9,762.8,517.8L762.8,517.8z
			 M463.4,511.3c2.6-2.2,4.6-4.5,4.6-5c0-0.5-1.6-0.9-3.5-0.9c-3.2,0-3.7,0.4-5.5,4.6c-1.1,2.5-2,4.8-2,5
			C457.1,516.3,459.3,515,463.4,511.3L463.4,511.3z M562.4,513.8c0.4-0.4-0.2-2.3-1.3-4.3c-5.3-9.9-15.1-32.5-14.6-33.7
			c0.3-0.8,1.1-1.4,1.8-1.4c0.7,0,2.8-1.4,4.7-3.1c2.8-2.6,3.8-4.6,5.8-12.6c2.6-10.2,3.3-21.1,1.9-28.1c-0.8-4-0.7-4.3,1-4
			c2.2,0.4,4.2,6.4,4.3,12.8c0.2,10.6-6.5,33-10.6,35.3c-3.2,1.9,3.6,6.2,17.7,11.2l8.5,3l2.7,7c1.5,3.8,2.8,7.9,2.8,9
			c0.1,3.2,1.8,5.2,3.1,3.8c0.8-0.8,0.9-4.7,0.4-13.2c-0.7-11.8-0.8-12.1-3-12.1c-3.9,0-3.8-2,0.1-5.6l3.7-3.4l-0.3-9.9
			c-0.2-5.5-0.7-10.3-1.1-10.7c-0.4-0.4-4.4,1.6-8.8,4.4c-9.5,6.1-12.6,7.1-13.6,4.6c-0.4-1,0.1-2.9,0.9-4.4
			c1.6-2.6,4.9-4.7,21.7-13.6c4.7-2.5,9.6-5.4,11-6.5l2.5-2l-2.4-2c-1.3-1.1-8.5-5.5-16-9.7s-17.2-10-21.7-12.9
			c-4.4-2.9-10.4-6.4-13.3-7.9l-5.2-2.6l-7.7,1.9l-7.7,1.9l0.4,10.5c0.7,21.4-3.7,34.7-17.4,51.5c-1.5,1.8-3.1,3.3-3.6,3.3
			c-0.5,0-2.6,1.1-4.7,2.5c-2,1.4-5.4,3-7.4,3.5c-4.7,1.3-4.8,3.1-0.4,5.9c1.9,1.2,7.4,5.1,12.3,8.7c11.6,8.7,30.8,17.8,45.9,21.8
			C560.7,514.5,561.6,514.6,562.4,513.8L562.4,513.8z M617.8,509.7c4.1-6.3,6.1-12.7,6.2-19.3c0.1-5-1.9-23.9-2.6-24.8
			c-0.2-0.2-4.1,1.5-8.8,3.9l-8.5,4.2l0.1,17.2c0,9.4,0.4,17.8,0.9,18.5c0.7,1.1,7.3,4.8,9.1,5C614.5,514.4,616.1,512.3,617.8,509.7
			L617.8,509.7z M489.1,484.4c0-0.8-10.3-9-11.3-9c-0.9,0-6.7,23.5-6.7,27.5c0,0.6,4-3.2,9-8.4C485,489.3,489.1,484.8,489.1,484.4
			L489.1,484.4z M688.5,499.9c2.1-2.1,2.9-6,4.5-22.9c0.5-5,1.4-11.9,2-15.5c1.6-10,1.4-18.7-0.5-19.4c-5-1.9-11.5,1.7-14.9,8.3
			c-2.5,5-6.1,15.1-9.6,27.4l-2.2,7.8l3.4,3.5c1.9,1.9,5.3,4.6,7.5,6s4.4,3.3,4.7,4.4C684,501.8,686.4,502,688.5,499.9L688.5,499.9z
			 M699.9,490.2c1.4-8.8,2-29.3,0.9-30.4c-0.4-0.4-1-0.5-1.3-0.3c-1,1-2.5,11-5.1,34.1C693.1,505.5,698,502.4,699.9,490.2
			L699.9,490.2z M705.6,496.2c-0.8-5-1.1-5.5-2.6-4c-1.6,1.6-0.2,8.3,1.8,8.3C706,500.4,706.1,499.6,705.6,496.2L705.6,496.2z
			 M468.6,489.9c8-33.1,8.6-58,1.9-69.7c-2.2-3.7-6.6-5.1-7.7-2.4c-0.3,0.9-0.5,18.1-0.4,38.3c0.2,27.1,0.6,37.5,1.5,39.6
			C465.6,499.7,466.5,498.5,468.6,489.9L468.6,489.9z M960.2,482.4c0.4-1.4,0.7-8.6,0.8-16c0.1-17.3,3.4-55.8,6.2-71.9
			c1.9-11.1,2-13.6,1-23c-1.3-11.9-1-25.2,0.8-42.1c0.7-6.3,1.2-19.8,1.1-30c-0.2-34.1-0.1-43.5,0.5-50.4c0.4-4,0.3-7.3-0.3-7.8
			c-0.5-0.5-9-1.1-18.8-1.3c-9.8-0.2-19.5-0.6-21.4-1c-5.5-1-28-1.7-78-2.5c-27.9-0.5-49.3-1.2-53.5-2c-7.3-1.2-22.2-1.4-91.3-1.2
			c-22.7,0.1-41.6,0-42-0.3c-4-2.5-80.1-2.6-105.1-0.2c-17.6,1.7-52.5,2-65.1,0.6c-4.1-0.5-11.3-1.3-16-1.9
			c-4.7-0.6-15.3-1.2-23.5-1.5c-8.3-0.3-16.8-0.7-19-1.1c-2.2-0.3-6.9-0.8-10.5-1c-3.6-0.2-12.6-0.9-20-1.6
			c-16.6-1.5-84.4-1.4-106,0.1c-8.5,0.6-18.9,1-23.1,0.9c-5.5-0.1-8,0.2-9.1,1.3c-1.2,1.2-1.5,5.7-1.7,24.3
			c-0.1,12.6-0.7,25.1-1.3,27.9c-0.9,4.1-0.7,6.7,0.9,14.5c1.7,8.1,2,13.6,2.1,38c0,15.7-0.3,31.4-0.9,35
			c-0.5,3.6-1.5,15.3-2.1,26.1c-0.9,15.2-0.9,20.4,0.1,23.3c0.7,2.2,1.3,11.8,1.5,24.8l0.3,21.1l4.4,3.2c6.6,4.7,7.6,4.9,10.5,1.8
			c2.4-2.6,2.5-2.6,5.3-1c3.5,2.1,6.1,2.1,8.6,0.2c2.6-2,4.8-1.9,9.2,0.5c4.9,2.6,9.9,2.6,11.3,0c1.4-2.5,2.6-2.5,7.5,0.2
			c5,2.7,13.8,2.8,16.6,0.2c1.6-1.5,2.5-1.5,6.9-0.5c6.6,1.5,8.5,1.5,12.3-0.4c2.9-1.4,3.8-1.4,9.2,0.1c9.1,2.6,15.2,2.9,17.4,0.9
			c1.5-1.3,3-1.5,8.2-1c5.2,0.5,7.4,0.2,11.9-1.5c6.6-2.5,12-2.7,17.8-0.4c3.7,1.4,4.9,1.5,7.9,0.4c3-1.1,4.1-1,7.4,0.5
			c3.6,1.6,4,1.6,5.7,0.1c1.3-1.1,3.6-1.7,7.6-1.7c5.4,0,5.7-0.1,5.4-2.2c-0.2-1.4-1.2-2.4-2.8-2.8c-1.7-0.4-3.4-2.2-5.2-5.5
			c-2.5-4.5-2.7-5.9-2.7-15c0-8.9,1.3-17.6,3.4-22.8c0.4-1,0.6-1.7,0.4-1.7s-4.6,1.1-9.9,2.5c-5.2,1.4-14.8,3.6-21.3,5
			c-6.5,1.4-12.2,2.7-12.7,3c-0.5,0.3-4.6,0.5-9.2,0.6c-8.8,0.1-15.4-1.8-16.5-4.7c-0.7-1.9,3.1-6,7.9-8.5c2.1-1.1,3.8-2.4,3.8-2.9
			s-2.4-1-5.3-1.1c-2.9,0-7.7-0.5-10.8-1c-3-0.5-9.1-1.4-13.5-1.9c-4.4-0.6-10.3-1.7-13.2-2.5c-2.8-0.8-6.2-1.5-7.4-1.5
			c-1.2,0-5-0.9-8.3-1.9c-3.4-1.1-8.2-2.5-10.6-3.2c-2.5-0.7-4.9-1.6-5.5-1.9c-0.5-0.4-4.1-1.5-7.9-2.6c-8.5-2.4-13.5-7.1-13.3-12.5
			c0.1-2.9,0.8-3.7,5.6-6.4c12.4-6.9,19.4-7.9,85-11.5c9.1-0.5,18.5-1.1,21-1.4s11.5-1,20-1.6c14.8-1,30-3,36.5-4.8l3-0.8l0.2-19.9
			c0.2-23.2,1.3-29.2,5.6-31.2c3.6-1.7,5.3-0.4,6.8,5.2c1.2,4.6,1.3,20.7,0,33.1c-1.2,12.4-1.3,12.3,7.6,13.1
			c6.9,0.6,39-0.4,69.7-2.3c22.2-1.4,238.4-0.1,240.7,1.4c0.7,0.4,16.8,0.8,35.8,0.8c30.4,0,34.8,0.2,37,1.7c1.4,0.9,4.1,1.9,6,2.3
			c1.9,0.4,6.4,1.5,10,2.6c3.6,1.1,10.5,3.1,15.5,4.6c10.4,3.1,19.1,7.2,22.1,10.5c1.2,1.3,2.8,4.2,3.7,6.5c2.1,5.3,0.8,10.5-3.7,15
			c-6.8,6.8-16.3,7.7-79.6,7.5c-28.9-0.1-64.9-0.3-80-0.6l-27.5-0.4l-12,5.8c-6.6,3.2-15.8,8.1-20.4,11c-10,6.3-23.1,13.5-44.1,24.3
			c-8.5,4.4-17.5,9.1-20,10.5l-4.5,2.5l7.9,7.4c8.2,7.7,11.5,9.4,14,7.3c0.8-0.7,2.4-1,3.5-0.7c2.6,0.7,2.7,0.3,7.1-13.1
			c4.4-13.3,5.4-15.1,11.3-19.2c5.4-3.7,12.2-4.2,16.5-1.1c4.8,3.4,8.8,15.8,10.5,32.3c0.6,5.7,1,6.7,2.4,6.3c0.9-0.3,3.5-1,5.7-1.5
			c2.2-0.6,4.6-1.5,5.4-1.9c0.8-0.5,3.2-0.3,5.9,0.5c4.7,1.4,7.8,1.1,12.7-1.3c2.7-1.3,3.1-1.3,6,0.9c4.1,3.1,12.5,3.1,16.7,0
			c1.6-1.2,3.2-2.1,3.5-2.1s2.3,1.4,4.2,3.1c3.4,3,3.8,3.1,9.1,2.4c3.1-0.4,6.9-0.7,8.6-0.6c26.2,0.9,32.4,0.9,35,0
			c2.6-0.9,3.6-0.7,6.9,1.6c4.3,2.9,12.3,3.6,17,1.5c2-0.9,3.4-0.8,6.8,0.6c2.4,1,6.9,1.8,10.1,1.8c4.7,0.1,6.2-0.4,8.3-2.3
			c2.4-2.3,2.6-2.3,5.4-0.7c3.3,2,13.1,2.3,14.8,0.5c0.9-0.9,2.3-0.6,6.2,1.2c4.6,2.1,5.4,2.2,8.9,1c2.2-0.7,4.8-1,5.8-0.6
			c3.1,1.3,17.5,2.8,25.2,2.6c4-0.1,8.1,0.3,9,0.9c0.9,0.5,3.9,0.9,6.6,0.8C958.9,485,959.6,484.6,960.2,482.4L960.2,482.4z
			 M664.1,479.5c0-0.5-0.7-1.2-1.5-1.5c-0.9-0.4-1.5,0-1.5,0.9c0,0.8,0.7,1.5,1.5,1.5C663.4,480.4,664.1,480,664.1,479.5
			L664.1,479.5z M501.6,469c8.9-5,16.1-14.3,21.4-27.7c1.9-4.8,2.3-7.6,2.3-17.5c0-6.5-0.4-13.2-0.9-14.8c-0.9-2.8-1.2-3-5.1-2.7
			c-2.3,0.2-5.4,0.7-6.9,1.1c-2.7,0.7-2.8,0.8-2.9,9.7c-0.2,21.2-14.1,42.1-28.1,42.4c-1.7,0-2.4,0.8-2.8,3.5
			c-0.4,1.9-0.3,4.3,0,5.5C480.4,474.3,491.5,474.6,501.6,469L501.6,469z M599.7,463.2c0.4-3.7,0.4-7.5,0-8.5
			c-0.7-1.7-0.8-1.7-2.1,0.1c-1.5,2-2.1,14.6-0.7,15.9C598.1,472.1,599,469.8,599.7,463.2L599.7,463.2z M614.1,456.8
			c2.7-2.6,5-5.2,5-5.8c0-0.6-2-3.1-4.4-5.5c-4.3-4.2-4.4-4.3-7.3-2.8c-4.4,2.3-5.7,4.1-3.8,5.6c1,0.9,1.5,3.1,1.5,7.1
			c0,5.3,0.2,5.9,2,5.9C608.3,461.4,611.4,459.3,614.1,456.8L614.1,456.8z M485.9,453.5c7.5-3.9,13.1-11.8,17.2-24.4
			c2.3-7.2,2.5-16.6,0.3-18.8c-0.9-0.9-11.3,0.2-25.1,2.8c-3.2,0.6-3.7,2.8-1.8,7.3c2,4.3,2.9,12.6,2.9,25.9
			C479.4,456.5,479.6,456.7,485.9,453.5L485.9,453.5z M457.6,436.4c0.4-9.4,0.4-17.3,0.1-17.7c-4-4-7.8,27.1-4,32.5
			c0.9,1.2,1.9,2.2,2.4,2.2S457.2,445.7,457.6,436.4L457.6,436.4z M648.1,440.9c7.4-3.7,15.5-7.8,18-9.1c2.5-1.4,11.3-5.9,19.5-10
			c8.3-4.2,16.4-8.6,18-9.8c1.7-1.2,5.1-3.5,7.8-5c2.6-1.5,4.5-3.1,4.3-3.5c-0.8-1.3-21.8-2-24-0.8c-1.1,0.6-4.1,3-6.7,5.3
			s-9.8,7.7-16.1,11.8c-6.2,4.2-15.3,10.8-20,14.6c-4.8,3.8-9.9,7.6-11.4,8.4c-1.5,0.8-3.8,2.6-5.2,4.1l-2.5,2.7l2.5-1
			C633.5,448,640.7,444.6,648.1,440.9L648.1,440.9z M630.7,442.6c1.6-1.3,5-3.7,7.5-5.5c2.5-1.8,7.3-5.4,10.5-8
			c6.5-5.3,19.3-14,26.6-18.1c4.8-2.7,8.6-6.8,6.9-7.4c-0.8-0.3-16.9,7.4-33.6,16c-2.2,1.1-8.7,4.5-14.5,7.5
			c-11.2,5.8-18,10.1-18,11.3c0,1.4,9.5,7.7,10.6,7.1C627.3,445.2,629.1,443.9,630.7,442.6L630.7,442.6z M617,428.4
			c3.4-2.2,6.4-4,6.6-4c0.2,0,3.3-1.7,6.7-3.8s12.9-7.1,21-11.1c8.1-4,14.8-7.7,14.8-8.1s-8-0.8-17.7-0.9c-9.7-0.1-18-0.4-18.3-0.6
			c-1.2-0.7-25.6-4.5-29.2-4.5c-3.7,0-3.7,0-4.9,5.7c-1.9,9.2-4.1,16.6-5.3,18.1c-0.9,1.1-0.8,1.6,0.3,2.3c0.8,0.5,5.1,3.1,9.5,5.7
			c4.4,2.7,8.5,4.9,9.1,5C610.3,432.4,613.6,430.6,617,428.4L617,428.4z M416.1,418.8c12-2.6,36.4-9.5,37.8-10.6
			c4.8-4-8.2-3.7-29.1,0.6c-7.1,1.5-14,2.7-15.5,2.7c-3.3,0.1-20.4,7.2-20.9,8.7C387.5,422.7,401.7,422,416.1,418.8L416.1,418.8z
			 M587,413.9c1.1-2.5,2.8-7.5,3.7-11.1c2.3-9.3,0.9-10.2-5.6-3.9c-3.8,3.8-5,5.6-5,8c0,5.5,2.4,11.3,4.7,11.5
			C584.9,418.4,585.9,416.4,587,413.9L587,413.9z M576.9,410.1c0.4-2-2.5-3.4-4-1.8c-0.8,0.8-0.7,1.5,0.2,2.7
			C574.6,412.8,576.5,412.4,576.9,410.1z M469,409.8c3.4-2.4,4.9-6.7,4.1-12c-0.9-6-1.9-6.9-6.4-5.4c-5,1.6-7.6,5.3-7.6,10.7
			c0,3.9,0.4,4.6,3.3,6.4C466.3,411.8,466.1,411.8,469,409.8L469,409.8z M463.5,404c-0.7-1.8,0.3-3.5,2.1-3.5c2.1,0,2.8,1.9,1.5,3.5
			C465.5,405.8,464.2,405.8,463.5,404L463.5,404z M496.1,404.8c4.7-0.8,10.4-1.9,12.6-2.4c2.3-0.5,7.4-1.2,11.5-1.6
			c7.5-0.6,21-3.6,26.3-5.7c7.5-3,13.1-6.3,13.1-7.7c0-2.7-11-1.3-24.5,3c-3,1-7.3,2.3-9.5,2.9c-2.2,0.6-8.9,2.5-15,4.2
			c-11,3.1-16.3,3.6-26.1,2.4c-6-0.7-7.2,0.3-6,5.1C479.2,407.7,479.2,407.7,496.1,404.8L496.1,404.8z M570.7,404.3
			c3.7-2.3,4.4-5.2,1.7-8.1c-2.2-2.5-5.3-2.4-5.3,0.1c0,1.1-0.5,3.1-1.1,4.4c-1.1,2.4-0.7,5.6,0.7,5.6
			C567.1,406.4,568.9,405.5,570.7,404.3L570.7,404.3z M432.8,402.4c5.1-1.1,11.5-2,14.2-2c2.8,0,5.4-0.6,6-1.3
			c5.1-6.3,7.7-8.9,9.9-10c2.4-1.1,2.7-2,3.3-8.3c0.4-3.8,1.1-9.9,1.6-13.5c0.5-3.6,0.6-6.9,0.1-7.4c-0.5-0.5-4.3-0.2-9.1,0.8
			c-4.6,0.9-11.9,1.7-16.3,1.7c-4.4,0-9.6,0.4-11.5,1c-1.9,0.5-9.1,1.2-16,1.4c-6.9,0.2-15.6,0.7-19.5,1s-10.1,0.8-14,1.1
			c-3.9,0.3-8.1,0.7-9.5,1s-8.8,0.7-16.5,1c-21.2,0.7-26.9,1.1-31.6,2.3c-2.4,0.6-6.8,1.6-9.9,2.3c-6.2,1.4-13,5.3-13,7.5
			c0,2.4,3.2,4.9,8,6.4c2.5,0.7,5.4,1.7,6.5,2.1c10.3,3.9,34.7,10,40.5,10l2.5,0l-3-2.8c-5-4.6-7.4-7.8-8.4-11.2
			c-0.8-2.9-0.6-3.6,2.4-6.8c3-3.3,4.1-3.7,11.3-4.8c9.4-1.4,17.4-0.4,27.9,3.2c15.8,5.5,21.3,19.1,9.7,24c-5.9,2.5-3.9,3.6,5,2.9
			c4.5-0.4,8.9-0.9,9.8-1.1c0.8-0.2,2.6,0.2,4,0.9C419.8,405.3,419.5,405.3,432.8,402.4L432.8,402.4z M561.5,398.6
			c0.5-1.8,0.7-3.4,0.4-3.7c-0.9-0.9-8.9,3.6-8.2,4.7c0.8,1.3,4.6,2.9,5.9,2.5C560.1,401.9,561,400.3,561.5,398.6L561.5,398.6z
			 M389.6,398.1c6.7-1.5,10.5-3.2,10.5-4.8c0-0.6-0.9-2.5-2-4.3c-3.9-6.3-17.8-10.9-32.4-10.7c-8.8,0.1-12.6,1.8-12.6,5.4
			c0,4.8,5.6,9.7,15.4,13.3C375.5,399.6,381,399.9,389.6,398.1L389.6,398.1z M374.1,394.9c-0.8-0.2-3.2-0.6-5.3-0.9
			c-7.3-1.2-10.6-8.4-4.9-10.6c4.4-1.7,15.7-0.7,19,1.7c3.6,2.7,5.1,6.7,3.3,8.8C385,395.3,378.6,395.8,374.1,394.9L374.1,394.9z
			 M377.1,388.4c-2-1.3-5-1.3-5,0c0,0.5,1.5,1,3.3,1C377.8,389.4,378.2,389.2,377.1,388.4z M845,398c1.1-0.7,0-1.6-4.1-3.7
			c-13.9-7-17.5-16.4-9.7-25.3c4.2-4.8,8.2-5.8,20.2-5.3c9.1,0.4,11.2,0.9,20.1,4.6c17.8,7.4,22.6,11.3,22.6,18.2
			c0,3-0.7,4.3-3.4,6.8c-1.9,1.7-4.4,3.3-5.6,3.7c-9.5,3,18.2,2.1,29.8-1c7-1.8,9.9-3.8,10.6-7.3c1.9-8.8-5.3-13.2-37-22.1
			c-3.8-1.1-12.5-2.9-19.1-3.9c-6.7-1.1-13.1-2.4-14.2-3c-2.5-1.3-12.9-1.4-28.6-0.1c-7.7,0.6-14.9,0.6-20.5,0
			c-10.2-1.1-36.5-1.8-106.1-2.6c-28.3-0.3-58.3-0.8-66.5-0.9c-24.7-0.5-57.5-0.6-58.3-0.1c-1.1,0.7-55.4,2.7-73.7,2.7
			c-22.3,0-21.2-0.3-21.9,7.2c-0.3,3.4-0.8,8-1.2,10.3c-0.4,2.3-0.3,4.3,0.2,4.6c0.5,0.2,4.9,0.1,9.8-0.2c7.4-0.5,10-0.3,14.4,1.2
			c7.1,2.4,10.1,4.4,10.1,6.9c0,2.6,1.8,2.5,12.1-0.6c7.5-2.3,12.9-3.7,25.1-6.3c2-0.4,6.7-0.4,10.3,0.2c6,0.9,6.8,1.2,7.7,3.8
			l1,2.8l12.7,0.6c24.7,1.1,26.6,1.3,46,5.3c5.2,1.1,16.4,1.6,38.5,1.9c33.3,0.5,87.8,2.1,88.4,2.7C755.6,399.6,843.7,398.8,845,398
			L845,398z M581.5,395.9c0.3-0.9,0-1.5-0.8-1.5c-1.6,0-2.8,1.4-1.8,2.4C579.9,397.8,580.9,397.5,581.5,395.9L581.5,395.9z
			 M495,395.5c2.2-1.4-3.3-4.9-8.7-5.6c-2.6-0.3-5.4-0.8-6.4-0.9c-1.9-0.4-3,1.7-2.2,4c0.6,1.6,2.6,2.3,8.9,2.8
			c2.2,0.2,4.7,0.4,5.5,0.5C492.9,396.3,494.2,396,495,395.5z M508.1,392.5c1.2-0.8,1.2-1.1,0-2.6c-3.1-3.7-13.9-6.9-15.3-4.6
			c-0.3,0.5,1.2,1.8,3.3,3c2.1,1.2,4.4,2.8,5.1,3.7C502.5,393.6,505.9,393.9,508.1,392.5L508.1,392.5z M884.7,390.8
			c8.3-4.1,5.1-8.1-13.2-16.5l-11.9-5.4l-10,0.1c-9.5,0.1-10.1,0.3-12,2.8c-1.1,1.4-2.6,2.6-3.3,2.6c-0.7,0-1.2,1.4-1.2,3.3
			c0,5.2,5.4,9.8,16.5,13.9C856.6,394.2,878.8,393.7,884.7,390.8L884.7,390.8z M855.2,390.7c-3.6-0.7-9.7-5-10.9-7.8
			c-1-2.1-0.8-2.9,1.7-5.7c2.4-2.7,3.5-3.2,6.9-3.1c6.1,0.2,13.1,4,15,8c1.6,3.3,1.5,3.4-0.8,5.7
			C864.6,390.3,859.5,391.5,855.2,390.7L855.2,390.7z M862.1,383.9c0-1.8-5.7-4.4-9.5-4.4c-3.2,0-3.2,1.3,0.1,3.9
			C855.9,385.9,862.1,386.2,862.1,383.9L862.1,383.9z M473.8,380.3c0.7-2.4,1.7-10.5,2.3-17.9c0.6-7.4,1.4-16.2,1.7-19.5
			c1-10.2,0.6-29.9-0.6-32.8c-3.2-8-5.6,6.3-4.8,28.8c0.5,15.4,0,27.5-1.9,41.8C469.6,387.2,472,386.8,473.8,380.3L473.8,380.3z"/>
	</g>
</g>
<g id="layer2">
	
		<linearGradient id="path2767_1_" gradientUnits="userSpaceOnUse" x1="988.2617" y1="793.7362" x2="988.2603" y2="794.4463" gradientTransform="matrix(1315.543 0 0 -110.4526 -1298628.875 87946.2188)">
		<stop  offset="0" style="stop-color:#844100"/>
		<stop  offset="0" style="stop-color:#CC8511;stop-opacity:0.937"/>
		<stop  offset="0.75" style="stop-color:#FFD000;stop-opacity:0.866"/>
		<stop  offset="0.75" style="stop-color:#E4CE08;stop-opacity:0.933"/>
		<stop  offset="1" style="stop-color:#C9CC11"/>
	</linearGradient>
	<path id="path2767" class="st3" d="M1949,245.7c7.8,42-437,17-482.9,16.2c-42.7,0.5-463.5,29.3-473-19.3
		c-5-25.8,199.7-30.9,463.1-30.9S1941.5,204.8,1949,245.7L1949,245.7z"/>
</g>
<g id="layer3">
	<g>
		<path id="path4548" class="st4" d="M1146.4,251.5c2.9,8.9-17.7,15.3-41.4,12.4c-23.7-2.9-31.9-6.8-39.7-16.1
			c-7.8-9.4,18.4-16.8,40.1-13.7C1127.2,237.3,1143.5,242.6,1146.4,251.5L1146.4,251.5z"/>
		<path id="path4551" class="st5" d="M1892.3,245.4c3.4,10.2-20.4,17.6-47.8,14.2c-27.4-3.4-36.9-7.8-45.9-18.5
			c-9-10.7,21.2-19.3,46.4-15.7C1870.1,229.1,1888.9,235.2,1892.3,245.4L1892.3,245.4z"/>
	</g>
	<g>
		<path id="path7226" class="st6" d="M1126.7,251.3c1.6,5-9.8,8.6-23,6.9c-13.2-1.6-17.8-3.8-22.1-9c-4.3-5.2,10.2-9.4,22.3-7.6
			C1116.1,243.4,1125.1,246.4,1126.7,251.3L1126.7,251.3z"/>
		<path id="path8998" class="st7" d="M1869.9,244.1c1.8,5.6-11.1,9.6-25.9,7.8c-14.9-1.8-20-4.2-24.9-10.1
			c-4.9-5.9,11.5-10.5,25.1-8.5C1857.9,235.2,1868.1,238.6,1869.9,244.1L1869.9,244.1z"/>
	</g>
</g>
<g id="layer8">
	
		<radialGradient id="path11695_1_" cx="1352.4232" cy="236.255" r="65.6514" gradientTransform="matrix(2.626 0.3934 0.2662 -0.9774 -2354.4709 -12.6425)" gradientUnits="userSpaceOnUse">
		<stop  offset="0" style="stop-color:#000000"/>
		<stop  offset="0.5" style="stop-color:#484848;stop-opacity:0.701"/>
		<stop  offset="0.75" style="stop-color:#A7A7A7"/>
		<stop  offset="0.875" style="stop-color:#B3B3B3;stop-opacity:0.498"/>
		<stop  offset="0.9375" style="stop-color:#948B8B;stop-opacity:0.247"/>
		<stop  offset="1" style="stop-color:#000000;stop-opacity:0"/>
	</radialGradient>
	<path id="path11695" class="st8" d="M1304.6,285.4c0,19.8-23.9,51-57.5,45.9c-34.4-5.3-34.5-21-31.5-44.7
		c2.6-20.7,24.8-43.5,53.6-41.2C1298.8,247.7,1308.6,266.1,1304.6,285.4L1304.6,285.4z"/>
</g>
<g id="layer9">
	
		<linearGradient id="path12584_1_" gradientUnits="userSpaceOnUse" x1="987.6838" y1="792.9244" x2="986.7621" y2="793.2857" gradientTransform="matrix(180.3331 0 0 -203.9431 -176743.4219 162043.8594)">
		<stop  offset="0" style="stop-color:#FF9900"/>
		<stop  offset="0.5" style="stop-color:#FFDB1B;stop-opacity:0.732"/>
		<stop  offset="1" style="stop-color:#FF9D36;stop-opacity:0"/>
	</linearGradient>
	<path id="path12584" class="st9" d="M1281.2,240c21.2-1.4,49.9,16.8,56.8,26.8c6.7,12.4,1.8,55.1-25.7,72.9
		c-25.8,16.8-35.4,10.6-68.4-2.9c-33.5-13.8-30.6-16.9-34.3-33.1c0.1-31.3,10.7-42.3,21.7-51.1C1242.7,243.6,1260,241.4,1281.2,240
		L1281.2,240z"/>
</g>
<g id="layer15">
	<path id="path2003" class="st10" d="M1335.7,285.4c2.2,14.3-13,38.6-22.5,46.5c-10.3,8.5-27.9,12.1-41.1,15.7
		c16.4,10.1,31.2,19.7,55.4,28.7c23.8,8.8,152.3,35.1,234.2,38.1c16.9-5.3,45.5,7.9,49.6-13.1c3.3-16.8,5.2-29.5,1-57.1
		c-4-26.8-5.6-43.5-26.5-41.6c-25.4,2.3-28.7,30.1-36.9,47.7c-6.9,14.8-24.9-8.6-37.7-15.2c-37.9-28.7-94.3-54.8-130.2-67.8
		c-35.8-13-59.8-22.9-84.5-25.4C1329,252.6,1333.6,271.7,1335.7,285.4L1335.7,285.4z"/>
</g>
<g id="layer6">
	
		<linearGradient id="path9894_1_" gradientUnits="userSpaceOnUse" x1="987.7577" y1="792.3096" x2="987.8924" y2="792.6699" gradientTransform="matrix(471.4378 0 0 -320.0899 -464268.9688 254035.6406)">
		<stop  offset="0" style="stop-color:#844100"/>
		<stop  offset="0" style="stop-color:#CC8511;stop-opacity:0.937"/>
		<stop  offset="0.75" style="stop-color:#FFD000;stop-opacity:0.866"/>
		<stop  offset="0.75" style="stop-color:#E4CE08;stop-opacity:0.933"/>
		<stop  offset="1" style="stop-color:#C9CC11"/>
	</linearGradient>
	<path id="path9894" class="st11" d="M1335.7,285.4c2.2,14.3-13,38.6-22.5,46.5c-10.3,8.5-27.9,12.1-41.1,15.7
		c16.4,10.1,31.2,19.7,55.4,28.7c23.8,8.8,152.3,35.1,234.2,38.1c16.9-5.3,45.5,7.9,49.6-13.1c3.3-16.8,5.2-29.5,1-57.1
		c-4-26.8-5.6-43.5-26.5-41.6c-25.4,2.3-28.7,30.1-36.9,47.7c-6.9,14.8-24.9-8.6-37.7-15.2c-37.9-28.7-94.3-54.8-130.2-67.8
		c-35.8-13-59.8-22.9-84.5-25.4C1329,252.6,1333.6,271.7,1335.7,285.4L1335.7,285.4z"/>
</g>
<g id="layer10">
	<path id="path18072" class="st12" d="M1221.9,422.1c0.1,8.9-12.2,16.1-27.4,16.2c-15.2,0-27.6-7.1-27.7-16c0-0.1,0-0.1,0-0.2
		c-0.1-8.9,12.2-16.1,27.4-16.2c15.2,0,27.6,7.1,27.7,16C1221.9,422,1221.9,422.1,1221.9,422.1z"/>
	<path id="path18959" class="st12" d="M1482.7,436.7c0,10.5-13.4,19-29.9,19s-29.9-8.5-29.9-19c0-10.5,13.4-19,29.9-19
		C1469.3,417.7,1482.7,426.2,1482.7,436.7C1482.7,436.7,1482.7,436.7,1482.7,436.7L1482.7,436.7z"/>
</g>
<g id="layer12">
	
		<linearGradient id="path19855_1_" gradientUnits="userSpaceOnUse" x1="985.3592" y1="794.1036" x2="985.6088" y2="794.6138" gradientTransform="matrix(98.696 0 0 -136.072 -95868.6953 108486.4609)">
		<stop  offset="0" style="stop-color:#844100"/>
		<stop  offset="0" style="stop-color:#CC8511;stop-opacity:0.937"/>
		<stop  offset="0.75" style="stop-color:#FFD000;stop-opacity:0.866"/>
		<stop  offset="0.75" style="stop-color:#E4CE08;stop-opacity:0.933"/>
		<stop  offset="1" style="stop-color:#C9CC11"/>
	</linearGradient>
	<path id="path19855" class="st13" d="M1367.7,345.9c8.8,20.5,38,55.6,49,73.3c-3.8-5.8,15.3-20.3,22.8-22
		c-10.3-9.6-14.8-26.8-21.3-37.9C1400.2,357.1,1381.4,348,1367.7,345.9L1367.7,345.9z"/>
</g>
<g id="layer16">
	<path id="path2900" class="st14" d="M1496.1,425.4c3.3,18.8-30.2,13.1-43.3,11.1c-11.9-1.8-40.2-1.8-38.6-15.2
		c0.6-5.6,0.1-11.6,16.6-23.5c10.7-4.2-1.4-81.3,2.4-83.6c9.2-5.7,15-8.4,15-3.1c0.3,20.8,1.3,69.8,2.2,76
		c2.1,13.9,6.6,7.8,24.8,15.2C1489.4,408,1494.7,417.4,1496.1,425.4L1496.1,425.4z"/>
	<path id="path2902" class="st14" d="M1159.1,402.1c-5.6,16.7,6.7,19.6,32.3,19.3c22.7-0.2,36.4,4.9,40.4-8.2
		c1.7-5.5,5.8-9.2-4.6-24.1c-8.2-6.3,20.5-48,18-51c-6.2-7.4-10.4-11.2-12.6-6.2c-8.6,19.8-12,38.3-17.8,42.8
		c-5.5,4.3-13.7-1.4-30.2,4.5C1168,385.2,1163.9,387.6,1159.1,402.1L1159.1,402.1z"/>
</g>
<g id="layer11">
	
		<linearGradient id="path18962_1_" gradientUnits="userSpaceOnUse" x1="985.7736" y1="792.9474" x2="985.7549" y2="793.147" gradientTransform="matrix(113.185 0 0 -242.4392 -110119.875 192659.3906)">
		<stop  offset="0" style="stop-color:#844100"/>
		<stop  offset="0" style="stop-color:#CC8511;stop-opacity:0.937"/>
		<stop  offset="0.75" style="stop-color:#FFD000;stop-opacity:0.866"/>
		<stop  offset="0.75" style="stop-color:#E4CE08;stop-opacity:0.933"/>
		<stop  offset="1" style="stop-color:#C9CC11"/>
	</linearGradient>
	<path id="path18962" class="st15" d="M1496.1,425.4c3.3,18.8-30.2,13.1-43.3,11.1c-11.9-1.8-40.2-1.8-38.6-15.2
		c0.6-5.6,0.1-11.6,16.6-23.5c10.7-4.2-1.4-81.3,2.4-83.6c9.2-5.7,15-8.4,15-3.1c0.3,20.8,1.3,69.8,2.2,76
		c2.1,13.9,6.6,7.8,24.8,15.2C1489.4,408,1494.7,417.4,1496.1,425.4L1496.1,425.4z"/>
	
		<linearGradient id="path1971_1_" gradientUnits="userSpaceOnUse" x1="986.755" y1="793.455" x2="986.7377" y2="793.7313" gradientTransform="matrix(120.3762 0 0 -171.7747 -117577.5391 136732.8594)">
		<stop  offset="0" style="stop-color:#844100"/>
		<stop  offset="0" style="stop-color:#CC8511;stop-opacity:0.937"/>
		<stop  offset="0.75" style="stop-color:#FFD000;stop-opacity:0.866"/>
		<stop  offset="0.75" style="stop-color:#E4CE08;stop-opacity:0.933"/>
		<stop  offset="1" style="stop-color:#C9CC11"/>
	</linearGradient>
	<path id="path1971" class="st16" d="M1159.1,402.1c-5.6,16.7,6.7,19.6,32.3,19.3c22.7-0.2,36.4,4.9,40.4-8.2
		c1.7-5.5,5.8-9.2-4.6-24.1c-8.2-6.3,20.5-48,18-51c-6.2-7.4-10.4-11.2-12.6-6.2c-8.6,19.8-12,38.3-17.8,42.8
		c-5.5,4.3-13.7-1.4-30.2,4.5C1168,385.2,1163.9,387.6,1159.1,402.1L1159.1,402.1z"/>
</g>
<g id="layer17">
	
		<linearGradient id="path3794_1_" gradientUnits="userSpaceOnUse" x1="987.2215" y1="794.8508" x2="987.36" y2="795.4799" gradientTransform="matrix(185.026 0 0 -114.799 -181413.0469 91650.0547)">
		<stop  offset="0" style="stop-color:#844100"/>
		<stop  offset="0" style="stop-color:#CC8511;stop-opacity:0.937"/>
		<stop  offset="0.75" style="stop-color:#FFD000;stop-opacity:0.866"/>
		<stop  offset="0.75" style="stop-color:#E4CE08;stop-opacity:0.933"/>
		<stop  offset="1" style="stop-color:#C9CC11"/>
	</linearGradient>
	<path id="path3794" class="st17" d="M1280.4,352.2c-13.8,11.4-89.7,53.3-94.7,54.6c5.5,11,49.3-2,44.7,7.3
		c18.8-7.6,76-34.8,89.8-41.5C1315.7,371.3,1293.5,362.5,1280.4,352.2L1280.4,352.2z"/>
</g>
<g id="layer14">
	<g>
		<path id="rect1973" class="st18" d="M1397.9,327.3l152.4-64.6l2.6,3.7L1400.5,331L1397.9,327.3L1397.9,327.3z"/>
		<path id="path1979" class="st18" d="M1427.2,347.1l217.4-86.4l2.6,3.7l-217.4,86.4L1427.2,347.1L1427.2,347.1z"/>
		<path id="path1981" class="st18" d="M1449.4,329.9l130.5-66.8l3.1,3.5l-130.5,66.8L1449.4,329.9z"/>
	</g>
	<path id="path1983" class="st19" d="M1385.3,270.8l8.6-29.9l5.9,0.6l-8.6,29.9L1385.3,270.8z"/>
	<g>
		<path id="path1985" class="st20" d="M1420.8,291.7l19.6-41.4l5.4,1.7l-19.6,41.4L1420.8,291.7L1420.8,291.7z"/>
		<path id="path1987" class="st20" d="M1390.2,277.7l41.7-31.2l3.9,3.3l-41.7,31.2L1390.2,277.7z"/>
		<path id="path1989" class="st20" d="M1419.2,287.1l-18.1-41.8l5.7-1.1l18.1,41.8L1419.2,287.1L1419.2,287.1z"/>
	</g>
</g>
<g id="layer13">
	<g>
		<path id="rect4565" class="st21" d="M1591.2,303c0.3-2.3,14.5,6.8,14.8,17.2c0.7,27.1-3.1,29.7-5.6,55.3c-6.8,1.9-7.3,2.7-21,3.3
			C1583.4,354,1595.2,330.2,1591.2,303L1591.2,303z"/>
		<g>
			<path id="path5453" class="st22" d="M1592.2,303.5c1-2.3-20.5-4.2-27.8,4.7c-18.9,23.2-11.5,20.8-23.9,45
				c10.7,6.5,16.9,12.6,38.2,24.8C1587.8,353.4,1593.7,344.6,1592.2,303.5L1592.2,303.5z"/>
			<path id="path6340" class="st22" d="M1605.2,316.7c0.2-1.5,8.3,22,8.5,28.6c0.5,17,1.4,13,4.3,30.1c-5.2,1.2-8.5-0.1-19,0.3
				C1602.1,360.1,1608.2,333.8,1605.2,316.7L1605.2,316.7z"/>
		</g>
	</g>
	
		<linearGradient id="path7228_1_" gradientUnits="userSpaceOnUse" x1="986.4972" y1="800.3889" x2="987.1855" y2="801.0364" gradientTransform="matrix(211.9877 0 0 -44.6644 -207541.75 36146.0313)">
		<stop  offset="0" style="stop-color:#844100"/>
		<stop  offset="0" style="stop-color:#CC8511;stop-opacity:0.937"/>
		<stop  offset="0.75" style="stop-color:#FFD000;stop-opacity:0.866"/>
		<stop  offset="0.75" style="stop-color:#E4CE08;stop-opacity:0.933"/>
		<stop  offset="1" style="stop-color:#C9CC11"/>
	</linearGradient>
	<path id="path7228" class="st23" d="M1709.9,394.4c-0.6,3.9-10.9,6.7-72.8,3.2c-38.8-2.2-50.2,1-81.1-19
		c-3.5-2.3,43.7-5.5,82.3-1.8C1695.5,382.3,1710.9,388,1709.9,394.4L1709.9,394.4z"/>
</g>
<g id="prop">
	<g>
		
			<radialGradient id="path10783_1_" cx="990.2742" cy="415.3896" r="196.3861" gradientTransform="matrix(0.7267 0 0 -0.5814 532.6584 505.6024)" gradientUnits="userSpaceOnUse">
			<stop  offset="0" style="stop-color:#FFAD00"/>
			<stop  offset="0.5" style="stop-color:#FFF7E7;stop-opacity:0.871"/>
			<stop  offset="0.75" style="stop-color:#FFA400"/>
			<stop  offset="1" style="stop-color:#FFA300;stop-opacity:0.804"/>
		</radialGradient>
		<path id="path10783" class="st24" d="M1257.9,149.9c-15.8,0-11,27.6-14.4,61.1c-2,20.1-2.5,37.9-1.5,49.3
			c-14.4,1.4-32.9,3.9-52.8,7.2c-44.8,7.5-83.3,6.8-79.3,20.1c3.7,12.1,38.4,0.4,83.2-7.1c17.8-3,34.1-6.2,47.3-9.2
			c0.2,0,0.5,0,0.7,0c-2.3,11.2-4.2,27.2-5.1,45c-1.7,34.1-12.4,61.5,5.9,62c16.7,0.5,10.3-27.4,11.9-61.5
			c0.9-18.2,0.6-34.5-0.7-45.9c15.3-0.8,37.3-3.2,61.6-6.7c45.1-6.6,83.5-5.1,80-18.4c-3.2-12.2-38.3-1.1-83.4,5.4
			c-17,2.5-32.6,5.2-45.5,7.8c-3.2-0.1-7.5,0-12.7,0.4c3.1-11.2,6.1-28.2,8.1-47.4c3.5-34,15.6-61.1-2.6-62.1
			C1258.4,149.9,1258.1,149.9,1257.9,149.9L1257.9,149.9z"/>
		
			<radialGradient id="path10792_1_" cx="984.71" cy="416.1968" r="24.4002" gradientTransform="matrix(0.7267 0 0 -0.551 532.6584 498.5934)" gradientUnits="userSpaceOnUse">
			<stop  offset="0" style="stop-color:#FFFFE2"/>
			<stop  offset="0.5" style="stop-color:#FFE871"/>
			<stop  offset="0.75" style="stop-color:#FFDD38"/>
			<stop  offset="0.875" style="stop-color:#FFD71C"/>
			<stop  offset="0.9375" style="stop-color:#FFBC0E"/>
			<stop  offset="1" style="stop-color:#FFD200"/>
		</radialGradient>
		<path id="path10792" class="st25" d="M1266,269.3c0,7.4-7.9,13.4-17.7,13.4s-17.7-6-17.7-13.4c0-7.4,7.9-13.4,17.7-13.4
			S1266,261.9,1266,269.3z"/>
		<g id="g16181">
			
				<radialGradient id="path16183_1_" cx="984.7142" cy="416.1928" r="24.4064" gradientTransform="matrix(0.7267 0 0 -0.551 532.6584 498.5934)" gradientUnits="userSpaceOnUse">
				<stop  offset="0" style="stop-color:#FFFFE2"/>
				<stop  offset="0.5" style="stop-color:#FFE871"/>
				<stop  offset="0.75" style="stop-color:#FFDD38"/>
				<stop  offset="0.875" style="stop-color:#FFD71C"/>
				<stop  offset="0.9375" style="stop-color:#FFBC0E"/>
				<stop  offset="1" style="stop-color:#FFD200"/>
			</radialGradient>
			<path id="path16183" class="st26" d="M1247.8,256.1c-9.3,0-17.2,6.4-16.9,13.2c-0.2,6.8,7.6,13.1,16.9,13.2
				c9.1,0.3,17.3-5.5,17.7-12.2C1266.5,262.8,1258.1,255.8,1247.8,256.1L1247.8,256.1z"/>
			
				<radialGradient id="path16192_1_" cx="984.6903" cy="416.1822" r="24.424" gradientTransform="matrix(0.7267 0 0 -0.551 532.6584 498.5934)" gradientUnits="userSpaceOnUse">
				<stop  offset="0" style="stop-color:#FFFFE2"/>
				<stop  offset="0.5" style="stop-color:#FFE871"/>
				<stop  offset="0.75" style="stop-color:#FFDD38"/>
				<stop  offset="0.875" style="stop-color:#FFD71C"/>
				<stop  offset="0.9375" style="stop-color:#FFBC0E"/>
				<stop  offset="1" style="stop-color:#FFD200"/>
			</radialGradient>
			<path id="path16192" class="st27" d="M1247.8,256.1c-8.7,0-16.3,5.5-16.9,11.9c-1,6.4,4.9,12.8,13.4,14.2
				c7.3,1.3,15.5-1.4,19-6.2c4.7-5.7,2.2-14-5.3-17.6C1255.1,256.8,1251.5,256,1247.8,256.1L1247.8,256.1z"/>
			
				<radialGradient id="path16201_1_" cx="984.7048" cy="416.1885" r="24.4133" gradientTransform="matrix(0.7267 0 0 -0.551 532.6584 498.5934)" gradientUnits="userSpaceOnUse">
				<stop  offset="0" style="stop-color:#FFFFE2"/>
				<stop  offset="0.5" style="stop-color:#FFE871"/>
				<stop  offset="0.75" style="stop-color:#FFDD38"/>
				<stop  offset="0.875" style="stop-color:#FFD71C"/>
				<stop  offset="0.9375" style="stop-color:#FFBC0E"/>
				<stop  offset="1" style="stop-color:#FFD200"/>
			</radialGradient>
			<path id="path16201" class="st28" d="M1247.8,256c-7.7,0.1-14.7,4.4-16.5,9.9c-1.8,5.1,0.8,10.8,6.5,14c5,2.9,12.3,3.5,18.1,1.3
				c6.4-2.3,10.6-7.7,9.9-13c-0.4-4.7-4.6-9.3-10.4-11.1C1252.9,256.3,1250.4,256,1247.8,256L1247.8,256z"/>
			
				<radialGradient id="path16210_1_" cx="984.7118" cy="416.1952" r="24.4063" gradientTransform="matrix(0.7267 0 0 -0.551 532.6584 498.5934)" gradientUnits="userSpaceOnUse">
				<stop  offset="0" style="stop-color:#FFFFE2"/>
				<stop  offset="0.5" style="stop-color:#FFE871"/>
				<stop  offset="0.75" style="stop-color:#FFDD38"/>
				<stop  offset="0.875" style="stop-color:#FFD71C"/>
				<stop  offset="0.9375" style="stop-color:#FFBC0E"/>
				<stop  offset="1" style="stop-color:#FFD200"/>
			</radialGradient>
			<path id="path16210" class="st29" d="M1247.8,255.9c-6.7,0.1-13.1,3.4-15.6,8c-2.3,3.9-1.9,8.6,1.1,12.3c2.8,3.6,8.3,6.2,14,6.4
				c6.4,0.3,12.9-2.3,16.1-6.4c2.7-3.3,3.3-7.6,1.6-11.3c-1.9-4.4-7.2-7.9-13.3-8.7C1250.3,256,1249.1,255.9,1247.8,255.9
				L1247.8,255.9z"/>
			
				<radialGradient id="path16219_1_" cx="984.7103" cy="416.1947" r="24.4073" gradientTransform="matrix(0.7267 0 0 -0.551 532.6584 498.5934)" gradientUnits="userSpaceOnUse">
				<stop  offset="0" style="stop-color:#FFFFE2"/>
				<stop  offset="0.5" style="stop-color:#FFE871"/>
				<stop  offset="0.75" style="stop-color:#FFDD38"/>
				<stop  offset="0.875" style="stop-color:#FFD71C"/>
				<stop  offset="0.9375" style="stop-color:#FFBC0E"/>
				<stop  offset="1" style="stop-color:#FFD200"/>
			</radialGradient>
			<path id="path16219" class="st30" d="M1247.8,255.9c-3.3,0.1-6.5,0.8-9.2,2.2c-1.1,0.5-2.1,1.2-3.1,1.9c-0.9,0.7-1.6,1.4-2.3,2.3
				c-2.7,3.2-3.4,7.3-1.9,10.9c0.7,1.7,1.8,3.3,3.3,4.6c0.6,0.6,1.4,1.2,2.2,1.7c1,0.6,2,1.1,3.2,1.6c3.1,1.3,6.8,1.8,10.3,1.5
				c3-0.3,5.9-1.2,8.3-2.5c1.1-0.6,2.3-1.4,3.2-2.3c0.5-0.5,1.1-1.1,1.5-1.6c1.7-2,2.5-4.4,2.5-6.8c0-2.6-1-5.2-2.9-7.4
				c-0.8-0.9-1.6-1.7-2.7-2.4c-1.1-0.8-2.2-1.4-3.5-1.9C1254.2,256.4,1251,255.8,1247.8,255.9L1247.8,255.9z"/>
			
				<radialGradient id="path16228_1_" cx="984.7095" cy="416.2001" r="24.405" gradientTransform="matrix(0.7267 0 0 -0.551 532.6584 498.5934)" gradientUnits="userSpaceOnUse">
				<stop  offset="0" style="stop-color:#FFFFE2"/>
				<stop  offset="0.5" style="stop-color:#FFE871"/>
				<stop  offset="0.75" style="stop-color:#FFDD38"/>
				<stop  offset="0.875" style="stop-color:#FFD71C"/>
				<stop  offset="0.9375" style="stop-color:#FFBC0E"/>
				<stop  offset="1" style="stop-color:#FFD200"/>
			</radialGradient>
			<path id="path16228" class="st31" d="M1247.8,255.8c-3.7,0.1-7.3,1-10.2,2.7c-2.2,1.3-4.1,2.9-5.2,4.7c-2.6,3.8-2.5,8.6,0.2,12.4
				c1.4,2,3.5,3.7,6,5c3.1,1.5,6.8,2.3,10.5,2.2c2.7-0.1,5.4-0.6,7.7-1.6c1.8-0.7,3.4-1.7,4.8-2.9c2.4-2,3.9-4.5,4.4-7.1
				c0.5-2.5,0-5.1-1.4-7.5c-1.2-2.1-3.2-3.8-5.5-5.2c-2.6-1.5-5.9-2.5-9.3-2.6C1249,255.8,1248.4,255.8,1247.8,255.8L1247.8,255.8z"
				/>
			
				<radialGradient id="path16237_1_" cx="984.7095" cy="416.2001" r="24.405" gradientTransform="matrix(0.7267 0 0 -0.551 532.6584 498.5934)" gradientUnits="userSpaceOnUse">
				<stop  offset="0" style="stop-color:#FFFFE2"/>
				<stop  offset="0.5" style="stop-color:#FFE871"/>
				<stop  offset="0.75" style="stop-color:#FFDD38"/>
				<stop  offset="0.875" style="stop-color:#FFD71C"/>
				<stop  offset="0.9375" style="stop-color:#FFBC0E"/>
				<stop  offset="1" style="stop-color:#FFD200"/>
			</radialGradient>
			<path id="path16237" class="st32" d="M1247.8,255.8c-3.7,0.1-7.3,1-10.2,2.7c-2.2,1.3-4.1,2.9-5.2,4.7c-2.6,3.8-2.5,8.6,0.2,12.4
				c1.4,2,3.5,3.7,6,5c3.1,1.5,6.8,2.3,10.5,2.2c2.7-0.1,5.4-0.6,7.7-1.6c1.8-0.7,3.4-1.7,4.8-2.9c2.4-2,3.9-4.5,4.4-7.1
				c0.5-2.5,0-5.1-1.4-7.5c-1.2-2.1-3.2-3.8-5.5-5.2c-2.6-1.5-5.9-2.5-9.3-2.6C1249,255.8,1248.4,255.8,1247.8,255.8L1247.8,255.8z"
				/>
			
				<radialGradient id="path16246_1_" cx="984.7208" cy="416.187" r="24.4058" gradientTransform="matrix(0.7267 0 0 -0.551 532.6584 498.5934)" gradientUnits="userSpaceOnUse">
				<stop  offset="0" style="stop-color:#FFFFE2"/>
				<stop  offset="0.5" style="stop-color:#FFE871"/>
				<stop  offset="0.75" style="stop-color:#FFDD38"/>
				<stop  offset="0.875" style="stop-color:#FFD71C"/>
				<stop  offset="0.9375" style="stop-color:#FFBC0E"/>
				<stop  offset="1" style="stop-color:#FFD200"/>
			</radialGradient>
			<path id="path16246" class="st33" d="M1247.8,255.8c-6.3,0-12.2,2.9-15.1,6.9c-3.7,4.9-2.8,11.5,2.3,15.7
				c4,3.5,10.7,5.2,16.8,4.3c7.3-1,13.1-5.7,14.2-11.1c1.1-4.8-1.6-10-6.8-13C1255.9,256.6,1251.9,255.7,1247.8,255.8L1247.8,255.8z
				"/>
			
				<radialGradient id="path16255_1_" cx="984.7009" cy="416.2097" r="24.4045" gradientTransform="matrix(0.7267 0 0 -0.551 532.6584 498.5934)" gradientUnits="userSpaceOnUse">
				<stop  offset="0" style="stop-color:#FFFFE2"/>
				<stop  offset="0.5" style="stop-color:#FFE871"/>
				<stop  offset="0.75" style="stop-color:#FFDD38"/>
				<stop  offset="0.875" style="stop-color:#FFD71C"/>
				<stop  offset="0.9375" style="stop-color:#FFBC0E"/>
				<stop  offset="1" style="stop-color:#FFD200"/>
			</radialGradient>
			<path id="path16255" class="st34" d="M1247.8,255.7c-7.9,0.1-15.2,4.5-16.9,10.2c-2.2,5.9,1.8,12.7,9.2,15.5
				c6.5,2.6,15,1.7,20.2-2c5.3-3.6,7.3-9.5,4.9-14.4C1262.9,259.4,1255.6,255.5,1247.8,255.7L1247.8,255.7z"/>
			
				<radialGradient id="path16264_1_" cx="984.6951" cy="416.1763" r="24.4237" gradientTransform="matrix(0.7267 0 0 -0.551 532.6584 498.5934)" gradientUnits="userSpaceOnUse">
				<stop  offset="0" style="stop-color:#FFFFE2"/>
				<stop  offset="0.5" style="stop-color:#FFE871"/>
				<stop  offset="0.75" style="stop-color:#FFDD38"/>
				<stop  offset="0.875" style="stop-color:#FFD71C"/>
				<stop  offset="0.9375" style="stop-color:#FFBC0E"/>
				<stop  offset="1" style="stop-color:#FFD200"/>
			</radialGradient>
			<path id="path16264" class="st35" d="M1247.8,255.6c-8.9,0-16.8,5.7-17.5,12.3c-1.1,6.6,5.1,13.3,13.9,14.7
				c8.2,1.6,17.4-2,20.6-7.8c3.7-5.9,0.6-13.6-6.9-17.1C1254.9,256.3,1251.4,255.5,1247.8,255.6L1247.8,255.6z"/>
			
				<radialGradient id="path16273_1_" cx="984.71" cy="416.1968" r="24.4002" gradientTransform="matrix(0.7267 0 0 -0.551 532.6584 498.5934)" gradientUnits="userSpaceOnUse">
				<stop  offset="0" style="stop-color:#FFFFE2"/>
				<stop  offset="0.5" style="stop-color:#FFE871"/>
				<stop  offset="0.75" style="stop-color:#FFDD38"/>
				<stop  offset="0.875" style="stop-color:#FFD71C"/>
				<stop  offset="0.9375" style="stop-color:#FFBC0E"/>
				<stop  offset="1" style="stop-color:#FFD200"/>
			</radialGradient>
			<path id="path16273" class="st36" d="M1266,269.3c0,7.4-7.9,13.4-17.7,13.4s-17.7-6-17.7-13.4c0-7.4,7.9-13.4,17.7-13.4
				S1266,261.9,1266,269.3z"/>
		</g>
	</g>
</g>
</svg>
