<?xml version="1.0" encoding="utf-8"?>
<!-- Generator: Adobe Illustrator 19.0.0, SVG Export Plug-In . SVG Version: 6.00 Build 0)  -->
<svg version="1.1" id="Layer_1" xmlns="http://www.w3.org/2000/svg" xmlns:xlink="http://www.w3.org/1999/xlink" x="0px" y="0px"
	 viewBox="0 0 228.1 216.4" enable-background="new 0 0 228.1 216.4" xml:space="preserve">
<g>
	<g>
		<rect id="XMLID_49_" opacity="0" fill="#FFFFFF" width="228.1" height="216.4"/>
		<ellipse id="XMLID_48_" fill="#9BCAED" cx="114" cy="108.2" rx="95" ry="90.2"/>
		<path id="XMLID_47_" fill="#4EB6E7" d="M209.1,108.2c0-7.2-0.9-14.2-2.6-20.9l-27-25.7c-0.7-1.1-1.7-1.3-2.7-1.3l-3.6-3.1
			c0-0.3-0.3-0.6-1-0.9c-1.3-0.5-4.2,0.2-5.5,0.2c-3.3,0.1-5.4-1-7.2-1.3c-2.8-0.3-7.5-1-10.6,3.2c-1.2,1.7,1,6.4,0,8.2
			c-1.3,2.4-8.4,1.8-9.4,6.1c-0.6,2.6,2.8,4.4,3.3,6.1c0.2,0.8,0.1,3.2,0.1,3.2l3.1,2.9h-11.1c-0.4,0-0.9,0.2-1.1,0.5l-1.9,2.2
			l-2,2.3l-3.3,3.8l-0.4,0.5l-0.7,0.8c-1,0-2-0.1-3-0.1c-1.7,0-3.5,0-5.2,0.2c-1.6,0.1-3.1,0.3-4.7,0.5c-1.7,0.2-3.5,0.6-5.2,1
			c-1.5,0.4-3.1,0.8-4.5,1.4c-1.4,0.6-2.6,1.5-3.7,2.5c-1.4,1.2-2.7,2.4-4,3.7c-0.9,0.9-1.8,1.9-2.7,2.8c0.1,0,0.1,0,0.2,0
			c-1.5,0-3.1,0.1-4.6,0.4c-1.8,0.3-3.5,0.9-5.1,1.7c-0.9,0.5-1.8,1.1-2.6,1.7c-0.8,0.7-1.7,1.4-2.4,2.2c-1.3,1.5-2.3,3.2-3.2,4.9
			c-0.6,1.1-1.1,2.1-1.6,3.2l-20.1,0c-0.2,0-0.5,0-0.7,0c-1.5,0-3.5,0.2-4.4,1.8c-0.9,1.6-0.3,3.8,2.1,7.2c0,0,0,0,0,0l12.6,16.8
			l3.4,4.5h0.3l0,0l-0.2,0.1l2.5,3.4c0,0,0,0,0,0.1c0.6,0.7,1.2,1.4,1.9,2l43.6,41.4C166.6,198.3,209.1,157.9,209.1,108.2z"/>
	</g>
	<g>
		<path fill="#C8CDD1" d="M164.1,120c-1.6-3.7-4.5-6.9-8-9.1c-1.5-1-3.3-1.8-5.1-2.1c-1.2-0.3-2.5-0.2-3.8-0.3
			c-1.2,0-2.5-0.1-3.7-0.1c-5.3-0.1-10.5-0.2-15.8-0.4c-5.4-0.1-10.8-0.2-16.1-0.2c-5.2,0-10.4-0.1-15.7,0.1c-1.9,0-3.9,0.1-5.8,0.5
			c-1.9,0.4-3.8,1-5.5,1.9c-1,0.5-1.9,1.2-2.8,1.9c-0.9,0.7-1.8,1.5-2.6,2.4c-1.4,1.7-2.5,3.6-3.5,5.5c-0.6,1.2-1.2,2.4-1.8,3.6
			c1.3,0,2.6,0,3.9,0c1.5,0,3,0,4.6,0c2.5,0,5,0,7.6,0c2.7,0,5.4,0,8,0c2,0,4,0,6,0c0.5,0,1,0,1.4,0c0.1,0,0.2,0,0.2,0
			c0.6,0,1.1,0.4,1.4,0.9c0.8,1.2,1.7,2.3,2.5,3.5c0.5,0.7,1,1.3,1.5,2c0.2,0.3,0.4,0.5,0.6,0.7c0.3,0.2,0.6,0.4,0.9,0.6
			c1.7,1,3.8,1.5,5.8,1.9c0.6,0.1,1.1,0.2,1.7,0.3c0.5,0.1,1.1,0.1,1.7,0.2c0.8,0.1,1.6,0.2,2.5,0.3c4.6,0.5,9.3,0.6,13.9,0.6
			c4.8,0,9.7-0.2,14.5-0.6c1-0.1,1.9-0.2,2.9-0.3c1.1-0.1,2.2-0.4,3.2-0.7c2.5-0.7,5-1.5,7.6-1.9c0.5-0.1,1-0.1,1.5-0.2
			c-0.6-2.1-1.2-4.2-1.9-6.2C165.3,123.3,164.8,121.7,164.1,120C161.6,114.4,165.1,122.3,164.1,120z M92.8,119.9
			c-0.9,0-1.8-0.5-2.2-1.4c-0.4-0.8-0.3-1.8,0.4-2.5c0.6-0.7,1.6-1,2.5-0.7c0.9,0.2,1.6,1,1.7,1.9C95.4,118.5,94.2,119.9,92.8,119.9
			z M106.2,119.9c-0.9,0-1.8-0.5-2.2-1.4c-0.4-0.8-0.3-1.8,0.4-2.5c0.6-0.7,1.6-1,2.5-0.7c0.9,0.2,1.6,1,1.7,1.9
			C108.8,118.5,107.7,119.9,106.2,119.9z M119.7,119.9c-0.9,0-1.8-0.5-2.2-1.4c-0.4-0.8-0.3-1.8,0.3-2.5c0.6-0.7,1.6-1,2.5-0.7
			c0.9,0.2,1.6,1,1.7,1.9C122.3,118.5,121.1,119.9,119.7,119.9z M123.8,130.4c-0.9,0-1.8-0.5-2.2-1.4c-0.4-0.8-0.3-1.9,0.4-2.6
			c0.6-0.7,1.6-1,2.5-0.7c0.9,0.2,1.6,1,1.7,1.9C126.5,129.1,125.3,130.4,123.8,130.4z M133.1,119.9c-0.9,0-1.8-0.5-2.2-1.4
			c-0.4-0.8-0.3-1.8,0.4-2.5c0.6-0.7,1.6-1,2.5-0.7c0.9,0.2,1.6,1,1.7,1.9C135.7,118.5,134.6,119.9,133.1,119.9z M137.3,130.4
			c-0.9,0-1.8-0.5-2.2-1.4c-0.4-0.8-0.3-1.9,0.4-2.6c0.6-0.7,1.6-1,2.5-0.7c0.9,0.2,1.6,1,1.7,1.9
			C139.9,129.1,138.7,130.4,137.3,130.4z M146.6,119.9c-0.9,0-1.8-0.5-2.2-1.4c-0.4-0.8-0.3-1.8,0.4-2.5c0.6-0.7,1.6-1,2.5-0.7
			c0.9,0.2,1.6,1,1.7,1.9C149.2,118.5,148,119.9,146.6,119.9z M150.7,130.4c-0.9,0-1.8-0.5-2.2-1.4c-0.4-0.8-0.3-1.9,0.4-2.6
			c0.6-0.7,1.6-1,2.5-0.7c0.9,0.2,1.6,1,1.7,1.9C153.3,129.1,152.2,130.4,150.7,130.4z"/>
		<g>
			<path id="XMLID_37_" fill="#7F8C8C" d="M149.7,79.7c0,0,0.1-2.7-0.1-3.6c-0.5-1.9-4.2-3.9-3.5-6.8c1.1-4.8,8.8-4.2,10.2-6.8
				c1.1-2.1-1.4-7.4,0-9.3c3.4-4.8,8.5-4,11.5-3.6c2,0.3,4.3,1.6,7.9,1.4c1.5-0.1,4.6-0.8,6-0.3c2.6,1-0.7,2.5,1.6,4.3
				c1.4,1.2,5.2-1.3,6.8,2.8c2.4,6.2-2,5.1-3.9,7.1c-1.6,1.7-0.1,4-3.9,4.7c-2.4,0.4-6.7-3.6-9.2-3.4c-6.4,0.5-3.4,3.4-4.6,5.2
				c-0.9,1.5-4.2,3.4-5.9,3.7c-1.3,0.2-3.9-1.3-5.2-1.2C153.6,74.2,149.7,79.7,149.7,79.7z"/>
			<path id="XMLID_36_" fill="#ECF0F0" d="M163.3,86h3.8l0.5-0.7c0.3-0.5,0.4-1.1,0.1-1.6c-0.3-0.5-0.8-0.8-1.4-0.8h-25.4
				c-0.5,0-0.9,0.2-1.2,0.6l-2.1,2.5h4H163.3z"/>
			<polygon id="XMLID_35_" fill="#ECF0F0" points="158.4,93 162.2,93 162.3,93 162.3,92.9 165.3,88.7 161.5,88.7 139.4,88.7 
				135.4,88.7 131.8,93 135.9,93 			"/>
			<path id="XMLID_34_" fill="#E67465" d="M158.4,93h-22.5h-4l-0.5,0.6l-0.7,0.9c0.3,0,0.5,0,0.8,0c1.1,0.1,2.1,0.1,3,0.3
				c0,0,0.1,0,0.1,0c0.3,0,0.5,0.1,0.8,0.1c0,0,0,0,0,0c0.1,0,0.2,0,0.4,0.1c0.3,0,0.6,0.1,0.9,0.1c0.2,0,0.4,0.1,0.6,0.1
				c0,0,0,0,0.1,0c0.1,0,0.2,0,0.3,0.1c0.1,0,0.3,0.1,0.4,0.1c0.1,0,0.3,0.1,0.4,0.1c0.2,0,0.4,0.1,0.6,0.1c0.4,0.1,0.7,0.2,1.1,0.3
				c0.1,0,0.2,0.1,0.3,0.1c0.1,0,0.2,0.1,0.3,0.1c0.1,0,0.2,0.1,0.3,0.1c0.5,0.2,0.9,0.4,1.3,0.6c0.1,0,0.1,0.1,0.2,0.1c0,0,0,0,0,0
				c0.1,0,0.1,0.1,0.2,0.1c0.1,0,0.1,0.1,0.2,0.1c0.1,0.1,0.2,0.1,0.2,0.2c0.1,0.1,0.2,0.1,0.2,0.2c0.1,0.1,0.1,0.1,0.2,0.2
				c0.2,0.1,0.3,0.3,0.5,0.4c0.1,0.1,0.1,0.1,0.2,0.2c0,0,0,0,0,0c0.1,0.1,0.2,0.2,0.2,0.2c0.1,0.1,0.1,0.1,0.2,0.2
				c1.1,1.1,2.2,2.4,3.3,3.8c0.2,0.2,0.3,0.4,0.5,0.6c0.5,0.6,0.9,1.3,1.4,1.9v0c0.5,0.6,0.9,1.3,1.3,1.9c0.2,0.3,0.4,0.6,0.6,0.9
				l6.8-9.6l3.8-5.4H158.4z"/>
			<polygon id="XMLID_33_" fill="#E67465" points="163.3,86 141.6,86 137.6,86 135.4,88.7 139.4,88.7 161.5,88.7 165.3,88.7 
				167.1,86 			"/>
		</g>
		<path fill="#ECF0F0" d="M151.7,108.1c-1.4-2.2-2.9-4.3-4.5-6.3c-0.8-1-1.6-1.9-2.5-2.8c-0.8-0.8-1.6-1.6-2.6-2.2
			c-1-0.6-2.2-1-3.4-1.3c-1.2-0.3-2.4-0.5-3.6-0.7c-2.6-0.3-5.2-0.5-7.8-0.5c-1.9,0-3.8,0-5.6,0.2c-1.7,0.1-3.4,0.3-5.1,0.6
			c-1.9,0.3-3.8,0.6-5.7,1.1c-1.7,0.4-3.3,0.9-4.9,1.6c-1.5,0.7-2.8,1.7-4,2.8c-1.5,1.3-2.9,2.7-4.3,4.1c-1,1-2,2.1-3,3.2
			c5.2-0.1,10.4-0.1,15.6-0.1c5.4,0,10.7,0.1,16.1,0.2c5.3,0.1,10.6,0.2,15.9,0.4c1.7,0,3.3,0.1,5,0.1c0.8,0,1.6,0,2.4,0.1
			c0.9,0.1,1.7,0.3,2.5,0.5C152.2,108.8,151.9,108.4,151.7,108.1C151.5,107.8,152,108.5,151.7,108.1z M113,105.4
			c-0.9,0-1.8-0.6-2.1-1.5c-0.3-0.9,0-1.9,0.7-2.4c0.7-0.6,1.8-0.6,2.6-0.1c0.8,0.5,1.1,1.5,0.9,2.4
			C114.8,104.8,113.9,105.4,113,105.4z M125.2,105.4c-0.9,0-1.8-0.6-2.1-1.5c-0.3-0.9,0-1.9,0.7-2.4c0.7-0.6,1.8-0.6,2.6-0.1
			c0.8,0.5,1.1,1.5,0.9,2.4C127.1,104.8,126.2,105.4,125.2,105.4z"/>
		<g>
			<path id="XMLID_29_" fill="#42BDBD" d="M125.2,101.1c-1.2,0-2.2,1-2.2,2.2c0,1.2,1,2.2,2.2,2.2c1.2,0,2.2-1,2.2-2.2
				C127.4,102,126.4,101.1,125.2,101.1z"/>
			<path id="XMLID_28_" fill="#42BDBD" d="M113,101.1c-1.2,0-2.2,1-2.2,2.2c0,1.2,1,2.2,2.2,2.2c1.2,0,2.2-1,2.2-2.2
				C115.2,102,114.2,101.1,113,101.1z"/>
		</g>
		<g>
			<path id="XMLID_27_" fill="#42BDBD" d="M162.9,141.7c-2.1,0-3.9,1.7-3.9,3.8c0,2.1,1.7,3.8,3.9,3.8c2.1,0,3.9-1.7,3.9-3.8
				C166.8,143.4,165.1,141.7,162.9,141.7z"/>
			<path id="XMLID_26_" fill="#42BDBD" d="M151.7,141.7c-2.1,0-3.9,1.7-3.9,3.8c0,2.1,1.7,3.8,3.9,3.8s3.9-1.7,3.9-3.8
				C155.6,143.4,153.8,141.7,151.7,141.7z"/>
			<path id="XMLID_25_" fill="#42BDBD" d="M140.4,141.7c-2.1,0-3.9,1.7-3.9,3.8c0,2.1,1.7,3.8,3.9,3.8c2.2,0,3.9-1.7,3.9-3.8
				C144.3,143.4,142.6,141.7,140.4,141.7z"/>
			<path id="XMLID_24_" fill="#42BDBD" d="M129.2,141.7c-2.1,0-3.9,1.7-3.9,3.8c0,2.1,1.7,3.8,3.9,3.8c2.1,0,3.9-1.7,3.9-3.8
				C133.1,143.4,131.3,141.7,129.2,141.7z"/>
			<path id="XMLID_23_" fill="#42BDBD" d="M118,141.7c-2.1,0-3.9,1.7-3.9,3.8c0,2.1,1.7,3.8,3.9,3.8c2.1,0,3.9-1.7,3.9-3.8
				C121.8,143.4,120.1,141.7,118,141.7z"/>
			<path id="XMLID_22_" fill="#42BDBD" d="M106.7,141.7c-2.1,0-3.9,1.7-3.9,3.8c0,2.1,1.7,3.8,3.9,3.8c2.1,0,3.9-1.7,3.9-3.8
				C110.6,143.4,108.9,141.7,106.7,141.7z"/>
			<path id="XMLID_21_" fill="#42BDBD" d="M95.5,141.7c-2.1,0-3.9,1.7-3.9,3.8c0,2.1,1.7,3.8,3.9,3.8s3.9-1.7,3.9-3.8
				C99.4,143.4,97.6,141.7,95.5,141.7z"/>
		</g>
		<g>
			<path id="XMLID_20_" fill="#42BDBD" d="M150.7,125.7c-1.3,0-2.4,1.1-2.4,2.4c0,1.3,1.1,2.4,2.4,2.4c1.3,0,2.4-1.1,2.4-2.4
				C153.1,126.7,152.1,125.7,150.7,125.7z"/>
			<path id="XMLID_19_" fill="#42BDBD" d="M146.6,115.1c-1.3,0-2.4,1.1-2.4,2.4c0,1.3,1.1,2.4,2.4,2.4c1.3,0,2.4-1.1,2.4-2.4
				C149,116.2,147.9,115.1,146.6,115.1z"/>
			<path id="XMLID_18_" fill="#42BDBD" d="M137.3,125.7c-1.3,0-2.4,1.1-2.4,2.4c0,1.3,1.1,2.4,2.4,2.4c1.3,0,2.4-1.1,2.4-2.4
				C139.7,126.7,138.6,125.7,137.3,125.7z"/>
			<path id="XMLID_17_" fill="#42BDBD" d="M133.1,115.1c-1.3,0-2.4,1.1-2.4,2.4c0,1.3,1.1,2.4,2.4,2.4c1.3,0,2.4-1.1,2.4-2.4
				C135.5,116.2,134.4,115.1,133.1,115.1z"/>
			<path id="XMLID_16_" fill="#42BDBD" d="M123.8,125.7c-1.3,0-2.4,1.1-2.4,2.4c0,1.3,1.1,2.4,2.4,2.4c1.3,0,2.4-1.1,2.4-2.4
				C126.2,126.7,125.2,125.7,123.8,125.7z"/>
			<path id="XMLID_15_" fill="#42BDBD" d="M119.7,115.1c-1.3,0-2.4,1.1-2.4,2.4c0,1.3,1.1,2.4,2.4,2.4c1.3,0,2.4-1.1,2.4-2.4
				C122.1,116.2,121,115.1,119.7,115.1z"/>
			<path id="XMLID_14_" fill="#42BDBD" d="M106.2,115.1c-1.3,0-2.4,1.1-2.4,2.4c0,1.3,1.1,2.4,2.4,2.4c1.3,0,2.4-1.1,2.4-2.4
				C108.6,116.2,107.6,115.1,106.2,115.1z"/>
			<path id="XMLID_13_" fill="#42BDBD" d="M92.8,115.1c-1.3,0-2.4,1.1-2.4,2.4c0,1.3,1.1,2.4,2.4,2.4c1.3,0,2.4-1.1,2.4-2.4
				C95.2,116.2,94.1,115.1,92.8,115.1z"/>
		</g>
		<g>
			<path id="XMLID_12_" fill="#2D3E50" d="M171.8,158.1H69.9h-3.5l-0.2,0.2l2.7,3.8c0,0,0,0,0,0.1c3.6,4.6,8.6,7,15,7.3
				c0,0,0.1,0,0.1,0h76.6c0.1,0,0.2,0,0.3,0c4,0,9.2-3.9,11.8-7.6c0.8-0.9,1.8-2.2,2.8-3.7l-0.2-0.1H171.8z"/>
			<path fill="#2D3E50" d="M181.8,133.5c-0.8-1.2-2.2-1.8-3.9-2c-2.1-0.3-4.9-0.4-6.4-0.4c-1.3,0-2.6,0-3.7,0.1c-0.2,0-0.4,0-0.6,0
				c-0.2,0-0.5,0-0.8,0.1c-0.5,0.1-1.1,0.2-1.7,0.3c-0.4,0.1-0.9,0.2-1.3,0.3c-0.1,0-0.2,0.1-0.4,0.1c-0.1,0-0.2,0.1-0.4,0.1
				c-0.6,0.2-1.3,0.3-1.9,0.5c-1.9,0.5-3.9,1.1-5.2,1.3c-4.7,0.5-12.1,0.9-18.7,0.9h0c-6.4,0-11.7-0.3-15.1-0.9c0,0-0.1,0-0.1,0
				c-4.1-0.4-9-1.7-10.3-3.4c-1.5-1.9-4.4-6.1-4.4-6.1c-0.3-0.4-0.8-0.7-1.3-0.7l-28.2,0l-3.5,0l-21.9,0c-0.3,0-0.5,0-0.8,0
				c-1.6,0-3.8,0.2-4.8,2c-1,1.8-0.3,4.3,2.2,8.1c0,0,0,0,0,0.1l13.6,19l3.8,0l60.1-0.1l48.8-0.1l1.2,0v0l2.3,0
				c1.7-3.3,3-6.7,3.3-9.2C183.2,138.5,183.2,135.4,181.8,133.5z M95.5,149.4c-2.1,0-3.9-1.7-3.9-3.8c0-2.1,1.7-3.8,3.9-3.8
				s3.9,1.7,3.9,3.8C99.4,147.7,97.6,149.4,95.5,149.4z M106.7,149.4c-2.1,0-3.9-1.7-3.9-3.8c0-2.1,1.7-3.8,3.9-3.8s3.9,1.7,3.9,3.8
				C110.6,147.7,108.9,149.4,106.7,149.4z M118,149.4c-2.1,0-3.9-1.7-3.9-3.8c0-2.1,1.7-3.8,3.9-3.8c2.1,0,3.9,1.7,3.9,3.8
				C121.8,147.7,120.1,149.4,118,149.4z M129.2,149.4c-2.1,0-3.9-1.7-3.9-3.8c0-2.1,1.7-3.8,3.9-3.8c2.1,0,3.9,1.7,3.9,3.8
				C133.1,147.7,131.3,149.4,129.2,149.4z M140.4,149.4c-2.1,0-3.9-1.7-3.9-3.8c0-2.1,1.7-3.8,3.9-3.8c2.1,0,3.9,1.7,3.9,3.8
				C144.3,147.7,142.6,149.4,140.4,149.4z M151.7,149.4c-2.1,0-3.9-1.7-3.9-3.8c0-2.1,1.7-3.8,3.9-3.8c2.1,0,3.9,1.7,3.9,3.8
				C155.6,147.7,153.8,149.4,151.7,149.4z M162.9,149.4c-2.1,0-3.9-1.7-3.9-3.8c0-2.1,1.7-3.8,3.9-3.8c2.1,0,3.9,1.7,3.9,3.8
				C166.8,147.7,165.1,149.4,162.9,149.4z"/>
			<path id="XMLID_3_" fill="#E67465" d="M176.3,152.8h-1.2l-48.8,0.1L66.3,153l0,0l-3.8,0l3.7,5.1h0.4h3.5h101.9h3.6h0.2
				c1-1.6,2.1-3.4,3-5.3L176.3,152.8z"/>
		</g>
		<path fill="#ECF0F0" d="M76.8,139.6c-0.4-0.1-1.2,0.8-1.4,1.2c-0.1,0.1-0.1,0.5,0,0.7c0.1,0.1,0.3,0.2,0.4,0.3
			c0,0.5-1,1.5-1.5,1.8c-0.5,0.3-1.7,0.4-2.2,0.3c-1.1-0.3-1.4-0.4-1.7-1.3c-0.4-1.6-0.6-4.5-0.6-6c0-0.2,0.1-0.6,0.3-0.7
			c0.5-0.1,1.4,0,1.8-0.2c0.1-0.1,0.4-0.3,0.3-0.6c0-0.3-0.5-0.5-0.7-0.5c-0.3-0.1-1,0.1-1.4,0c-0.2,0-0.4-0.2-0.4-0.4
			c0,0,0-0.2,0-0.3c0.7-0.2,1.2-0.9,1.2-1.6l0,0l0,0c0-0.9-0.8-1.7-1.7-1.7c-1,0-1.7,0.8-1.7,1.7l0,0l0,0c0,0.8,0.5,1.4,1.2,1.6
			c0,0.2,0,0.3,0,0.3c-0.1,0.1-0.3,0.3-0.4,0.4c-0.3,0.1-1-0.1-1.4,0c-0.2,0-0.6,0.2-0.7,0.5c0,0.4,0.2,0.6,0.3,0.6
			c0.4,0.2,1.3,0.1,1.8,0.2c0.2,0,0.3,0.5,0.3,0.7c0,1.5-0.2,4.4-0.6,6c-0.3,0.9-0.6,1-1.7,1.3c-0.5,0.1-1.7,0-2.2-0.3
			c-0.5-0.3-1.5-1.2-1.5-1.8c0-0.1,0.3-0.2,0.4-0.3c0.1-0.2,0.1-0.5,0-0.7c-0.2-0.4-1-1.3-1.4-1.2c-0.5,0.2-0.6,1.3-0.5,1.8
			c0,0.1,0.1,0.6,0.3,0.6c0.2,0.2,0.4-0.1,0.5,0c0,0.4,0.2,1,0.3,1.4c0.1,0.4,0.5,1,0.8,1.2c0.4,0.3,1.3,0.7,1.8,0.8
			c1.1,0.3,2.2,0.2,3,0.7c0.8,0.5,1,1.4,1.4,2.2v0v0c0.4-0.8,0.6-1.7,1.4-2.2c0.8-0.5,1.9-0.5,3-0.7c0.5-0.1,1.4-0.5,1.7-0.8
			c0.3-0.2,0.7-0.9,0.8-1.2c0.2-0.5,0.3-1,0.3-1.4c0.1-0.1,0.4,0.1,0.5,0c0.2,0,0.3-0.5,0.3-0.6C77.4,140.9,77.3,139.7,76.8,139.6z
			 M69.2,131.1c0.6,0,1,0.5,1,1c0,0.4-0.2,0.8-0.6,0.9c0-0.1,0-0.2,0-0.3c0-0.1,0-0.1,0-0.2l0,0l0,0c0-0.3-0.2-0.5-0.5-0.5
			c-0.3,0-0.5,0.2-0.5,0.5l0,0l0,0c0,0.1,0,0.1,0,0.2c0,0.1,0,0.2,0,0.3c-0.3-0.2-0.6-0.5-0.6-0.9C68.2,131.5,68.7,131.1,69.2,131.1
			z"/>
	</g>
</g>
</svg>
